<ttFont>
          <CharString index="0">
            80 0 555.350006104 732 -78.9499969482 0 rlineto
            return
          </CharString>
          <CharString index="1">
            -143.699996948 -27.5 rlineto
            return
          </CharString>
          <CharString index="2">
            314 0 13.8000030518 86 -314 0 rlineto
            return
          </CharString>
          <CharString index="3">
            -2.00001525879 -14 9 -9 14 0 rrcurveto
            62 hlineto
            13.9999847412 0 11 5 3 18 rrcurveto
            10.5 66 rlineto
            2.99998474121 16 -6 9 -18 0 rrcurveto
            -62 hlineto
            -16.0000152588 0 -10 -10 -2 -15 rrcurveto
            return
          </CharString>
          <CharString index="4">
            -115.949996948 0 -89.5500030518 -7.75 -101.149993896 -13.75 rrcurveto
            -11.1000061035 -68.5 rlineto
            return
          </CharString>
          <CharString index="5">
            83.0000152588 -31 105.5 3 114 0 122 0 67.8499908447 57.1999969482 17.3000030518 110.800003052 rrcurveto
            9.25 54.5 rlineto
            11.9999847412 76 -17.3499908447 52.1000061035 -41.0500030518 20.3999938965 43 10.6999969482 35 44 12.8499908447 79.8000030518 rrcurveto
            10.3999938965 64.5 rlineto
            15.6000061035 98.6000061035 -64.75 70.3999938965 -98.0999908447 2 -117 2 -114.5 1 -93 -31 rrcurveto
            -9.39999389648 -61 299 0 rlineto
            52 0 48.950012207 -12.75 -11.5500030518 -72.25 rrcurveto
            -9.5 -59.8500061035 rlineto
            -9.54998779297 -58.75 -38.75 -29.75 -69 -3 rrcurveto
            return
          </CharString>
          <CharString index="6">
            -232 -9.69999694824 -12.3999938965 -73 rlineto
            return
          </CharString>
          <CharString index="7">
            230 -7.30000305176 rlineto
            55.3499908447 -2.29998779297 45 -3.55000305176 -14.6499938965 -91.9000091553 rrcurveto
            -8.64999389648 -51.6499938965 rlineto
            -10.3999938965 -64 -57.5500030518 -22.25 -52.5 0 rrcurveto
            return
          </CharString>
          <CharString index="8">
            26.8000030518 -44.5 356.449996948 0 -27.8000030518 -177.5 94.5500030518 0 27.8000030518 177.5 rlineto
            return
          </CharString>
          <CharString index="9">
            88.8000030518 20.5 11.1000061035 72.5 -85.5 0 43.3500061035 271.5 -56.5 0 -50.0500030518 -75.4499969482 -31.3500061035 -196.050003052 rlineto
            return
          </CharString>
          <CharString index="10">
            -249.149993896 0 346.25 459.5 -110.25 0 rlineto
            return
          </CharString>
          <CharString index="11">
            278.5 0 11.1000061035 68.9499969482 rlineto
            return
          </CharString>
          <CharString index="12">
            376 0 -350.600006104 -643 105.699996948 0 366.850006104 679.5 -21.25 52.5 -462.300003052 0 rlineto
            return
          </CharString>
          <CharString index="13">
            427 0 14.6499938965 86 -427 0 rlineto
            return
          </CharString>
          <CharString index="14">
            126 0 116 17 50 10 rrcurveto
            9.64999389648 57.5 rlineto
            return
          </CharString>
          <CharString index="15">
            92 0 116 732 -92 0 rlineto
            return
          </CharString>
          <CharString index="16">
            44.1499938965 281 69.1999969482 6 126.25 0 119.050003052 0 73.3500061035 -7.35000610352 -44 -279.649993896 -36.9000091553 -234.899993896 -67.25 -41.1000061035 -133.599990845 0 -142.200012207 0 -46.5 34.6000061035 38.450012207 241.399993896 rrcurveto
            return
          </CharString>
          <CharString index="17">
            118.899993896 -134.5 75 0 -98.1999969482 134.5 rlineto
            return
          </CharString>
          <CharString index="18">
            94.9499969482 0 -73.1999969482 -448 92 0 74.0500030518 448 rlineto
            return
          </CharString>
          <CharString index="19">
            -99.5 -18.6999969482 rlineto
            return
          </CharString>
          <CharString index="20">
            92 0 84 531 -92 0 rlineto
            return
          </CharString>
          <CharString index="21">
            -13.8000030518 60.5 -68.5 0 rlineto
            return
          </CharString>
          <CharString index="22">
            145.100006104 0 13.3500061035 83 -145.100006104 0 23.1499938965 148 -72.5 0 -42.6499938965 -148 rlineto
            return
          </CharString>
          <CharString index="23">
            -98.8500061035 -21 rlineto
            return
          </CharString>
          <CharString index="24">
            15.1499938965 -44.8999938965 rlineto
            return
          </CharString>
          <CharString index="25">
            37.549987793 15.5 21.6000061035 19.5 39 0 rrcurveto
            return
          </CharString>
          <CharString index="26">
            39 0 21.1999969482 -35 44.6999969482 0 52.6999969482 0 42.6000061035 45.8000030518 30.3999938965 26.1999969482 rrcurveto
            -14.8500061035 46.8000030518 rlineto
            -28.5500030518 -17.049987793 -32.3000030518 -23.25 -39.1499938965 0.300003051758 rrcurveto
            return
          </CharString>
          <CharString index="27">
            -40 0 -16 35 -44 0 rrcurveto
            -53.450012207 0 -32.6999969482 -35.4499969482 -42.8999938965 -33.450012207 rrcurveto
            return
          </CharString>
          <CharString index="28">
            -4.30001831055 -29.1999969482 19.9000091553 -24.0500030518 29.1999969482 0 29.1999969482 0 27.1999969482 24.0500030518 4.30000305176 29.1999969482 4.30000305176 29.1999969482 -19.0500030518 23.0500030518 -29.1999969482 0 -29.1999969482 0 -28.0500030518 -23.0500030518 -4.30000305176 -29.1999969482 rrcurveto
            return
          </CharString>
          <CharString index="29">
            -18.8500061035 -124.100006104 12.1499938965 -246.899993896 192.149993896 0 rrcurveto
            251 hlineto
            151 0 85.5500030518 160.600006104 32.5 202.899993896 22.1000061035 137.649993896 9.25 230.850006104 -193.650009155 0 rrcurveto
            -251 hlineto
            -197.549987793 0 -67.0500030518 -180.449996948 -27.6000061035 -180.550003052 rrcurveto
            return
          </CharString>
          <CharString index="30">
            37.3999938965 237.949996948 84.3999938965 56.0500030518 88.1499938965 0 rrcurveto
            259.5 hlineto
            131 0 -18.9499969482 -174 -19 -120 -32 -204 -78.5 -94 -79.8000030518 0 rrcurveto
            -254.600006104 hlineto
            -113.999984741 0 -26.9000091553 152.600006104 23.3000030518 145.399993896 rrcurveto
            return
          </CharString>
          <CharString index="31">
            178 -208 62.25 51.6499938965 -126.949996948 148.899993896 176.100006104 150.300003052 -51.3999938965 60.1499938965 rlineto
            return
          </CharString>
          <CharString index="32">
            292 0 10.75 67.5 -292 0 rlineto
            return
          </CharString>
          <CharString index="33">
            317.699996948 0 11.6499938965 72.3500061035 -180.75 0 rlineto
            32.4499969482 30.8999938965 171.400009155 99.049987793 20.799987793 140.700012207 8.90000915527 49.049987793 -29 91.75 -93.6999969482 0 rrcurveto
            return
          </CharString>
          <CharString index="34">
            -76.200012207 0 -46.4499969482 -7.29998779297 -65.8000030518 -8.75 -0.849990844727 0.849990844727 -9.5 -57.1499938965 1.69999694824 0 rrcurveto
            return
          </CharString>
          <CharString index="35">
            168.399993896 hlineto
            57.4000091553 1.52587890625e-05 14.5 -21 -7.69999694824 -50.4499969482 -16.3500061035 -102.650009155 -194.5 -118.449996948 -73.4499969482 -50.6999969482 rrcurveto
            return
          </CharString>
          <CharString index="36">
            54.450012207 -20.4499969482 58.75 2 74.8999938965 0 98.6000061035 -0.849990844727 36.75 46.299987793 11.3000030518 72.5 rrcurveto
            4 26.8000030518 rlineto
            6.30001831055 39.0999908447 -12.1000061035 36.8499908447 -27.6000061035 16.25 30.5500030518 9.40000915527 24.1500091553 35.8000030518 8 47.299987793 rrcurveto
            5.69999694824 33.6499938965 rlineto
            9.60000610352 62.8500061035 -36.9499969482 56 -77 1 -76.8999938965 1.15000915527 -64.75 0.699996948242 -60.75 -20.4499969482 rrcurveto
            -8.5 -52.8999938965 181.350006104 0 rlineto
            50.3000030518 0 15.25 -15.299987793 -6.69999694824 -39.3000030518 rrcurveto
            -2.55000305176 -19.3000030518 rlineto
            -5.55001831055 -37.3000030518 -26.3499908447 -18.5500030518 -45.1500091553 -2 rrcurveto
            -138.199996948 -5.69999694824 -9.5 -58.6499938965 136.050003052 -4.85000610352 rlineto
            36.1999969482 -1.15000915527 28.1999969482 -14.6000061035 -7.25 -46.6499938965 rrcurveto
            -3.55000305176 -20.3000030518 rlineto
            -6.40000915527 -40.8500061035 -32.6999969482 -14.5999908447 -40.1000061035 0 rrcurveto
            0 -145.149993896 -0.850006103516 -27.1999969482 vhcurveto
            return
          </CharString>
          <CharString index="37">
            75 0 151.300003052 134.5 -102.5 0 rlineto
            return
          </CharString>
          <CharString index="38">
            65.4499969482 1.52587890625e-05 47.6999969482 16.5 18.6500091553 14.3499908447 rrcurveto
            -63.6499938965 -394.300003052 74.6000061035 0 76.1499938965 479.350006104 -72.6000061035 0 rlineto
            -4.79998779297 -5.55001831055 -65.3000030518 -59.6499938965 -68 0 rrcurveto
            return
          </CharString>
          <CharString index="39">
            311.199996948 0 9.44999694824 61 -311.199996948 0 rlineto
            return
          </CharString>
          <CharString index="40">
            73 0 573 770 -73 0 rlineto
            return
          </CharString>
          <CharString index="41">
            114 -5 70.25 12 101.900009155 14.5 rrcurveto
            10.25 65.1000061035 rlineto
            return
          </CharString>
          <CharString index="42">
            118.899414062 -134.5 75 0 -98.19921875 134.5 rlineto
            return
          </CharString>
          <CharString index="43">
            101.099609375 0 100.350585938 192.599609375 280.649414062 0 36.30078125 -192.599609375 93.599609375 0 -135.75 732 -97.25 0 rlineto
            return
          </CharString>
          <CharString index="44">
            166.150390625 326.900390625 57 -326.900390625 rlineto
            return
          </CharString>
          <CharString index="45">
            75 0 151.30078125 134.5 -102.5 0 rlineto
            return
          </CharString>
          <CharString index="46">
            86.2998046875 0 85.2001953125 78.2001953125 53.1005859375 -78.2001953125 71.8994140625 0 -80.8994140625 131.5 -80 0 rlineto
            return
          </CharString>
          <CharString index="47">
            15.1494140625 -44.900390625 rlineto
            32.4501953125 15.5 24.150390625 18.650390625 43.25 0.849609375 rrcurveto
            return
          </CharString>
          <CharString index="48">
            36.4501953125 0.849609375 12.69921875 -34.1494140625 54.05078125 -0.8505859375 45.0498046875 -0.849609375 40.0498046875 36.4501953125 40.599609375 27.8994140625 rrcurveto
            -14.849609375 46.80078125 rlineto
            -9 -6.8505859375 -64.599609375 -29.2001953125 -26.400390625 1.150390625 rrcurveto
            return
          </CharString>
          <CharString index="49">
            -29.7998046875 0.849609375 -21.1005859375 30.75 -49.099609375 2.55078125 rrcurveto
            -43.25 0 -42.900390625 -32.05078125 -42.8994140625 -33.44921875 rrcurveto
            return
          </CharString>
          <CharString index="50">
            -4.30078125 -29.2001953125 19.900390625 -24.0498046875 29.2001953125 0 29.2001953125 0 27.19921875 24.0498046875 4.30078125 29.2001953125 4.2998046875 29.2001953125 -19.0498046875 23.0498046875 -29.2001953125 0 -29.2001953125 0 -28.0498046875 -23.0498046875 -4.2998046875 -29.2001953125 rrcurveto
            return
          </CharString>
          <CharString index="51">
            -4.9892578125 -57 42.50390625 -44.7001953125 56 0 56 0 48.49609375 44.7001953125 4.9892578125 57 4.98828125 57 -41.279296875 45.5498046875 -56 0 -56 0 -49.720703125 -45.5498046875 -4.98828125 -57 rrcurveto
            return
          </CharString>
          <CharString index="52">
            118.900390625 -134.5 75 0 -98.2001953125 134.5 rlineto
            return
          </CharString>
          <CharString index="53">
            -16.3505859375 -102.849609375 73.0498046875 -34.400390625 67.25 3.75 0 0 292.600585938 14.900390625 15.8994140625 2.099609375 rrcurveto
            12.400390625 72.75 -296.5 0 rlineto
            -29 0 -33.150390625 -1 7.30078125 53 rrcurveto
            28.3994140625 177.200195312 rlineto
            return
          </CharString>
          <CharString index="54">
            317.850585938 9.849609375 12.3994140625 74.2998046875 rlineto
            return
          </CharString>
          <CharString index="55">
            -315.700195312 10.150390625 28.1005859375 176 rlineto
            4 27 8.25 29 48.599609375 0 rrcurveto
            return
          </CharString>
          <CharString index="56">
            306.5 0 11.5498046875 73.75 rlineto
            return
          </CharString>
          <CharString index="57">
            -17.25 2.400390625 -295.25 13.599609375 0 0 -77.94921875 3.400390625 -61.900390625 -33 -17.0498046875 -104.900390625 rrcurveto
            return
          </CharString>
          <CharString index="58">
            75 0 151.299804688 134.5 -102.5 0 rlineto
            return
          </CharString>
          <CharString index="59">
            -4.2998046875 -29.2001953125 19.900390625 -24.0498046875 29.19921875 0 29.2001953125 0 27.2001953125 24.0498046875 4.2998046875 29.2001953125 4.2998046875 29.2001953125 -19.0498046875 23.0498046875 -29.2001953125 0 -29.19921875 0 -28.05078125 -23.0498046875 -4.2998046875 -29.2001953125 rrcurveto
            return
          </CharString>
          <CharString index="60">
            86.2998046875 0 85.2001953125 78.2001953125 53.099609375 -78.2001953125 71.900390625 0 -80.900390625 131.5 -80 0 rlineto
            return
          </CharString>
          <CharString index="61">
            -4.2998046875 -29.2001953125 19.8994140625 -24.0498046875 29.2001953125 0 29.2001953125 0 27.2001953125 24.0498046875 4.2998046875 29.2001953125 4.2998046875 29.2001953125 -19.0498046875 23.0498046875 -29.2001953125 0 -29.2001953125 0 -28.0498046875 -23.0498046875 -4.2998046875 -29.2001953125 rrcurveto
            return
          </CharString>
          <CharString index="62">
            93 0 88.599609375 560.25 260.80078125 -560.25 88.599609375 0 116 732 -92 0 -88.75 -561.75 -259.650390625 561.75 -90.599609375 0 rlineto
            return
          </CharString>
          <CharString index="63">
            118.899414062 -134.5 75 0 -98.2001953125 134.5 rlineto
            return
          </CharString>
          <CharString index="64">
            -53 -333 124.80078125 -35.75 164.69921875 0 174.05078125 0 112.149414062 38.25 49.2998046875 323 50.6005859375 332.799804688 -111.400390625 46.9501953125 -173.849609375 0 -173.950195312 0 -109.400390625 -29.25 -54 -343 rrcurveto
            return
          </CharString>
          <CharString index="65">
            44.150390625 281 69.2001953125 6 126.25 0 119.049804688 0 73.349609375 -7.349609375 -44 -279.650390625 -36.8994140625 -234.900390625 -67.25 -41.099609375 -133.600585938 0 -142.19921875 0 -46.5 34.599609375 38.44921875 241.400390625 rrcurveto
            return
          </CharString>
          <CharString index="66">
            15.150390625 -44.900390625 rlineto
            32.4501953125 15.5 24.1494140625 18.650390625 43.25 0.849609375 rrcurveto
            return
          </CharString>
          <CharString index="67">
            36.4501953125 0.849609375 12.7001953125 -34.1494140625 54.0498046875 -0.8505859375 45.0498046875 -0.849609375 40.0498046875 36.4501953125 40.6005859375 27.8994140625 rrcurveto
            -14.8505859375 46.80078125 rlineto
            -9 -6.8505859375 -64.599609375 -29.2001953125 -26.400390625 1.150390625 rrcurveto
            return
          </CharString>
          <CharString index="68">
            -29.7998046875 0.849609375 -21.099609375 30.75 -49.1005859375 2.55078125 rrcurveto
            -43.25 0 -42.8994140625 -32.05078125 -42.900390625 -33.44921875 rrcurveto
            return
          </CharString>
          <CharString index="69">
            -4.2998046875 -29.2001953125 19.900390625 -24.0498046875 29.2001953125 0 29.19921875 0 27.2001953125 24.0498046875 4.2998046875 29.2001953125 4.30078125 29.2001953125 -19.05078125 23.0498046875 -29.19921875 0 -29.2001953125 0 -28.0498046875 -23.0498046875 -4.30078125 -29.2001953125 rrcurveto
            return
          </CharString>
          <CharString index="70">
            -37.69921875 -237.799804688 92.6494140625 -76.400390625 159.799804688 0 224.700195312 0 59.650390625 135.200195312 27.2001953125 170 rrcurveto
            66.7998046875 431.799804688 -93 0 -67.5498046875 -427.299804688 rlineto
            -25.900390625 -164.799804688 -58.75 -55.900390625 -123.849609375 0 -116.25 0 -43.150390625 45.099609375 27.75 175.600585938 rrcurveto
            67.5498046875 427.299804688 -92.849609375 0 rlineto
            return
          </CharString>
          <CharString index="71">
            153.950195312 -481 -39.650390625 -251 92 0 39.650390625 251 326.049804688 481 -107.650390625 0 -250.399414062 -372.450195312 -116 372.450195312 rlineto
            return
          </CharString>
          <CharString index="72">
            -40.44921875 -235 78.5498046875 -54.7998046875 111.149414062 0 73.400390625 0 77.4501953125 42.75 28.25 22.75 rrcurveto
            return
          </CharString>
          <CharString index="73">
            13.849609375 -58.5 68 0 70 478.700195312 rlineto
            -51 49 -131.950195312 20.650390625 -71.7998046875 -7.650390625 rrcurveto
            -85.2998046875 -8.5 -102.5 -31.650390625 -37.650390625 -217.75 rrcurveto
            return
          </CharString>
          <CharString index="74">
            28.1494140625 175.400390625 52.80078125 14 59.599609375 11.25 37.849609375 7.5498046875 64.1005859375 -7.099609375 52.2001953125 -14.650390625 rrcurveto
            -48.25 -314.950195312 rlineto
            return
          </CharString>
          <CharString index="75">
            -58.25 -29.599609375 -42.1005859375 -19 -71.75 0 -73.7998046875 0 -20.75 49.2998046875 20.2001953125 127.799804688 rrcurveto
            return
          </CharString>
          <CharString index="76">
            86.2998046875 0 85.2001953125 78.19921875 53.099609375 -78.19921875 71.900390625 0 -80.900390625 131.5 -80 0 rlineto
            return
          </CharString>
          <CharString index="77">
            15.150390625 -44.8994140625 rlineto
            32.44921875 15.5 24.150390625 18.6494140625 43.25 0.8505859375 rrcurveto
            return
          </CharString>
          <CharString index="78">
            -29.7998046875 0.849609375 -21.099609375 30.75 -49.1005859375 2.5498046875 rrcurveto
            -43.25 0 -42.8994140625 -32.0498046875 -42.900390625 -33.4501953125 rrcurveto
            return
          </CharString>
          <CharString index="79">
            -4.2998046875 -29.2001953125 19.8994140625 -24.0498046875 29.2001953125 0 29.2001953125 0 27.2001953125 24.0498046875 4.2998046875 29.2001953125 4.2998046875 29.19921875 -19.0498046875 23.05078125 -29.2001953125 0 -29.2001953125 0 -28.0498046875 -23.05078125 -4.2998046875 -29.19921875 rrcurveto
            return
          </CharString>
          <CharString index="80">
            -36 -194 35.7998046875 -95.349609375 127.850585938 -1.650390625 90.6494140625 -1.7998046875 83.75 7.5 82.9501953125 23.2998046875 rrcurveto
            10.400390625 68 rlineto
            -73.650390625 -10.849609375 -95.1494140625 -9 -71.5 5.099609375 -71 0.849609375 -19.150390625 33.3505859375 18.900390625 112.299804688 37 -15 315.75 -44.0498046875 24.5498046875 225.299804688 13.2001953125 117.650390625 -86 35.5 -122.850585938 -0.150390625 -195 -0.2998046875 -39.5 -93.7001953125 -31 -163 rrcurveto
            return
          </CharString>
          <CharString index="81">
            17.2001953125 84.099609375 8.2998046875 85.8505859375 141.450195312 0.2998046875 80 0.150390625 39.5 -8.75 -11.1005859375 -65.150390625 -21.349609375 -126.900390625 -254 30.400390625 0 0 rrcurveto
            return
          </CharString>
          <CharString index="82">
            92 0 63.80078125 401.5 rlineto
            72.94921875 35.5 39.6005859375 18.5 73.5498046875 0 46.650390625 0 30.25 -27 -9.55078125 -62.400390625 rrcurveto
            -58.25 -366.099609375 92 0 58.25 365.5 rlineto
            14.6005859375 91.599609375 -38.5498046875 82.900390625 -110.80078125 0 -81 0 -56.5498046875 -35.099609375 -62.6494140625 -34.400390625 rrcurveto
            return
          </CharString>
          <CharString index="83">
            -13.80078125 60.5 -68.5 0 rlineto
            return
          </CharString>
          <CharString index="84">
            -30 -190 59.3505859375 -76.75 174.25 0 177.399414062 0 58.80078125 62.25 32.69921875 197 31.30078125 190.599609375 -55.400390625 91.6005859375 -170.700195312 0 -175.5 0 -68.2001953125 -57.7001953125 -34 -217 rrcurveto
            return
          </CharString>
          <CharString index="85">
            29.05078125 173.5 42.349609375 20.4501953125 104.049804688 0 107.850585938 0 32.5498046875 -31.3505859375 -27.3505859375 -162.599609375 -28.19921875 -165.400390625 -46.900390625 -13.099609375 -97.5 0 -95.2001953125 0 -47.8994140625 16.5498046875 27.19921875 161.950195312 rrcurveto
            return
          </CharString>
          <CharString index="86">
            86.30078125 0 85.19921875 78.2001953125 53.1005859375 -78.2001953125 71.8994140625 0 -80.8994140625 131.5 -80 0 rlineto
            return
          </CharString>
          <CharString index="87">
            -15.4501953125 -97.5498046875 39.400390625 -76.9501953125 110.799804688 0 81 0 55.1005859375 33.900390625 63.25 35.599609375 rrcurveto
            return
          </CharString>
          <CharString index="88">
            13.6494140625 -60.5 68.5 0 84.150390625 531 -92 0 -62.9501953125 -401.5 rlineto
            return
          </CharString>
          <CharString index="89">
            -72.9501953125 -35.5 -39.599609375 -18.5 -73.5498046875 0 -46.650390625 0 -32.099609375 18.5 11.25 70.900390625 rrcurveto
            57.5498046875 366.099609375 -92 0 rlineto
            return
          </CharString>
          <CharString index="90">
            57.150390625 -414.099609375 rlineto
            13.6494140625 -98.5 63.9501953125 -18.400390625 38.7998046875 0 -37 -71.4501953125 -48.25 -85.7001953125 -83.25 -51.6494140625 rrcurveto
            -65.4501953125 vlineto
            102.75 19.900390625 81.4501953125 78.7998046875 86.75 176.399414062 rrcurveto
            207.350585938 419.200195312 rlineto
            16.75 33.8505859375 7.599609375 39.349609375 -11.2998046875 39.599609375 rrcurveto
            -79.75 hlineto
            -5.8505859375 -41.349609375 -5.8994140625 -20.2001953125 -13.400390625 -27.1494140625 rrcurveto
            -176.950195312 -355.30078125 rlineto
            -2.3994140625 0.150390625 -54 -7.4501953125 -6.9501953125 46.2998046875 rrcurveto
            -55.599609375 403.150390625 rlineto
            return
          </CharString>
          <CharString index="91">
            -14.6999816895 -92.7500152588 71.8499908447 -19.9499969482 47.25 0 rrcurveto
            117.300003052 hlineto
            72.5500030518 0 45.0999908447 19.25 14.700012207 93.4499969482 rrcurveto
            39.3999938965 251.399993896 rlineto
            11 67 -31.4499969482 45.6999969482 -79.5 0 rrcurveto
            -117.300003052 hlineto
            -70.6000061035 1.52587890625e-05 -53.1999969482 -29.3000030518 -13.1499938965 -84.3000030518 rrcurveto
            return
          </CharString>
          <CharString index="92">
            37.6499938965 233.350006104 rlineto
            4.85000610352 29.5 13.1999969482 19.8000030518 44.6000061035 0 rrcurveto
            98.3500061035 hlineto
            47.75 -1.52587890625e-05 2.10000610352 -15.5 -5.85000610352 -33.8000030518 rrcurveto
            -37.6499938965 -233.5 rlineto
            -5.85000610352 -34.549987793 -12.5999908447 -14.75 -42.4000091553 0 rrcurveto
            -96.8500061035 hlineto
            -43.8999938965 0 -10.0999908447 7.09999084473 6.69999694824 42.3500061035 rrcurveto
            return
          </CharString>
          <CharString index="93">
            18.75 -30.1499938965 240.699996948 0 -18.9499969482 -113.699996948 74.5500030518 0 17.6499938965 113.850006104 rlineto
            return
          </CharString>
          <CharString index="94">
            57.8999938965 14.1999969482 9.5 61 -55.3000030518 0 26.25 164.350006104 -46.75 0 -34.9499969482 -48.4499969482 -18.25 -115.899993896 rlineto
            return
          </CharString>
          <CharString index="95">
            -147.75 0 212.75 286.600006104 -85 0 rlineto
            return
          </CharString>
          <CharString index="96">
            85.8999938965 -15.3000030518 45.799987793 1.55000305176 81.9000091553 -0.850006103516 67.1499938965 -0.849990844727 49.8500061035 21.8000030518 13.9499969482 92.299987793 rrcurveto
            10.8500061035 65.9499969482 rlineto
            10.25 67.8499908447 -34.0500030518 53.9499969482 -67.6999969482 1.20001220703 -32.3000030518 0.449996948242 -75.3000030518 8.5 -33.5500030518 -27.3500061035 rrcurveto
            27 124.5 226.949996948 0 11.6499938965 72.3500061035 -299.050003052 0 -62.3000030518 -294.699996948 66.1999969482 0 rlineto
            5.55000305176 32.1499938965 19.0500030518 12.9499969482 24.3999938965 0 rrcurveto
            98.6999969482 hlineto
            48.9499969482 -1.52587890625e-05 -7.05000305176 -35.5 -2.85000610352 -21.25 rrcurveto
            -7.80000305176 -49.8500061035 rlineto
            -4.55000305176 -31.5 -17.0500030518 -20.1500091553 -35.3000030518 0 rrcurveto
            -205.75 hlineto
            return
          </CharString>
          <CharString index="97">
            -32.1499938965 -198.950012207 62.3500061035 -54.049987793 64.3499908447 0 rrcurveto
            105.5 hlineto
            73.799987793 0 42.1499938965 30 11.450012207 74.549987793 rrcurveto
            11 72.25 rlineto
            7.75 46.8000030518 -26.6500091553 61.3500061035 -74.1499938965 -0.850006103516 -49.3500061035 -0.849990844727 -66.8999938965 -6.25 -51.6500091553 -7.20001220703 9.40000915527 52.450012207 14.8999938965 87.6499938965 59.9000091553 0 rrcurveto
            196.800003052 0 rlineto
            return
          </CharString>
          <CharString index="98">
            9.5 59.1499938965 rlineto
            return
          </CharString>
          <CharString index="99">
            157.850006104 hlineto
            29.25 1.52587890625e-05 13.6000061035 -6.85000610352 -5.55000305176 -33.75 rrcurveto
            -8.94999694824 -54.8500061035 rlineto
            -5.40000915527 -33.3000030518 -14.9499969482 -13.3500061035 -31.3500061035 0 rrcurveto
            -94.8999938965 hlineto
            -60 -1.52587890625e-05 14.9499969482 106.25 5.44999694824 35.8500061035 rrcurveto
            return
          </CharString>
          <CharString index="100">
            250.350006104 0 -232.800003052 -405.300003052 83.3500061035 0 252.699996948 442.449996948 -15.1000061035 35.1999969482 -326.850006104 0 rlineto
            return
          </CharString>
          <CharString index="101">
            -7.85000610352 -51.3500061035 22.75 -56.8500061035 87 0 rrcurveto
            114.550003052 hlineto
            63.3499908447 0 49 11.200012207 14.4499969482 93.8499908447 rrcurveto
            8.85000610352 56.9499969482 rlineto
            4.14999389648 28.1500091553 -5.35000610352 48.1999969482 -37.3999938965 13.25 48.3000030518 9.39999389648 14.3000030518 50.0500030518 2.14999389648 14.6000061035 rrcurveto
            5.85000610352 38.3500061035 rlineto
            12.1499938965 75.5 -44.5500030518 43 -58.8000030518 0 rrcurveto
            -113.850006104 hlineto
            -68.1999816895 0 -54 -22.4499969482 -15 -92.3000030518 rrcurveto
            -7 -40.6000061035 rlineto
            -5.15000915527 -31.6499938965 8.44999694824 -40.3499908447 40.950012207 -21.6000061035 -29.4000091553 -7.69999694824 -32.8999938965 -17.3500061035 -7.55000305176 -45.75 rrcurveto
            return
          </CharString>
          <CharString index="102">
            7.39999389648 45.6499938965 rlineto
            5.39999389648 36.1000061035 18.4499969482 11.6999969482 29.6999969482 0 rrcurveto
            104 hlineto
            28.5500030518 -1.52587890625e-05 12.3499908447 -14.3999938965 -5.39999389648 -33.4000091553 rrcurveto
            -6.55000305176 -45.6499938965 rlineto
            -4.55001831055 -31.1499938965 -19.1499938965 -10.700012207 -28.1499938965 0 rrcurveto
            -96.3500061035 hlineto
            -43.3999938965 0 -7 11.950012207 4.69999694824 29.8999938965 rrcurveto
            return
          </CharString>
          <CharString index="103">
            4.69999694824 29.4499969482 rlineto
            6.54998779297 42.5500030518 15.950012207 11.1999969482 38.6999969482 0 rrcurveto
            91.9499969482 hlineto
            34.6999969482 0 12.6000061035 -9.35000610352 -7.40000915527 -44.3999938965 rrcurveto
            -4.69999694824 -29.4499969482 rlineto
            -3.70001220703 -21.799987793 -7.25 -28.25 -44.3000030518 0 rrcurveto
            -99.6000061035 hlineto
            -22.1500091553 0 -22.4499969482 9.80000305176 6.39999389648 40.25 rrcurveto
            return
          </CharString>
          <CharString index="104">
            7.94999694824 53.3500061035 rlineto
            5.54998779297 33.6000061035 14.6499938965 13.5 31.3500061035 0 rrcurveto
            94.75 hlineto
            60 0 -13.8000030518 -104.899993896 -5.59999084473 -36.6000061035 rrcurveto
            -157.850006104 hlineto
            -29.25 0 -13.4499969482 7 5.69999694824 34.0500030518 rrcurveto
            return
          </CharString>
          <CharString index="105">
            16.6000061035 109.25 rlineto
            10.25 65.8999938965 51.799987793 11.5500030518 33 0 rrcurveto
            129.800003052 hlineto
            94.7499847412 -1.52587890625e-05 -9.80000305176 -145.899993896 -17.8499908447 -112.800003052 rrcurveto
            -239.600006104 hlineto
            -59.1000061035 0 -19.4000091553 13.6999969482 9.55000305176 58.3000030518 rrcurveto
            return
          </CharString>
          <CharString index="106">
            473 0 13.9499969482 87 -473 0 rlineto
            return
          </CharString>
          <CharString index="107">
            696 0 13.9499969482 87 -696 0 rlineto
            return
          </CharString>
          <CharString index="108">
            -158.200195312 -66.1005859375 61.150390625 -135.099609375 115.899414062 18.7001953125 rrcurveto
            10.6005859375 64.5 rlineto
            -76.1005859375 -4.30078125 -1.6494140625 56.55078125 91.7998046875 65.75 rrcurveto
            return
          </CharString>
          <CharString index="109">
            81.6494140625 -131.5 79.25 0 135.600585938 131.5 -86.30078125 0 -84.599609375 -78.2001953125 -53.7001953125 78.2001953125 rlineto
            return
          </CharString>
          <CharString index="110">
            44 -11.0498046875 119.6953125 -14.4501953125 86.3046875 0 84.5498046875 0 125.850585938 11.099609375 21.44921875 157.400390625 rrcurveto
            9.650390625 67.25 rlineto
            12.5498046875 81.7001953125 -19.7001953125 96.2998046875 -127.349609375 0 rrcurveto
            -129.25 hlineto
            -53.150390625 0 -44.7998046875 -5.099609375 15.2001953125 95.599609375 rrcurveto
            8.7998046875 57.75 rlineto
            13.7998046875 87.900390625 44.650390625 10.5 72.7001953125 -3.400390625 9.8994140625 0 183.30078125 -8.099609375 51.94921875 -1.05078125 rrcurveto
            11.25 72.80078125 rlineto
            -56.3994140625 10.849609375 -128.850585938 13.400390625 -67.25 1.099609375 -108.599609375 2.9501953125 -93.900390625 -25.400390625 -24.25 -154.349609375 rrcurveto
            -10.1494140625 -68.7001953125 rlineto
            -11.125 -70.8173828125 3.0751953125 -107.932617188 162.099609375 0 rrcurveto
            128.650390625 hlineto
            71.19921875 0 1.900390625 -37.099609375 -8.400390625 -52.80078125 rrcurveto
            -9.6494140625 -60.19921875 rlineto
            -11.7998046875 -76.75 -78.3505859375 -5.900390625 -41.2998046875 0 -93 0 -111.599609375 4.4501953125 -42.400390625 5.7001953125 rrcurveto
            return
          </CharString>
          <CharString index="111">
            52.5 hlineto
            81.7998046875 0 28.3505859375 35.5 16 102 rrcurveto
            -74.5 hlineto
            -6 -38 -8.5 -29.2001953125 -30 -12 rrcurveto
            -52.6005859375 -15 rlineto
            return
          </CharString>
          <CharString index="112">
            81.6494140625 -131.5 79.25 0 135.600585938 131.5 -86.2998046875 0 -84.6005859375 -78.2001953125 -53.7001953125 78.2001953125 rlineto
            return
          </CharString>
          <CharString index="113">
            209.5 0 -101.599609375 -643 92 0 101.599609375 643 215.5 0 14.400390625 89 -517 0 rlineto
            return
          </CharString>
          <CharString index="114">
            496 0 14.400390625 89 -375.900390625 0 463.099609375 554 14.400390625 89 -496 0 -14.400390625 -89 378.75 0 -465.94921875 -554 rlineto
            return
          </CharString>
          <CharString index="115">
            -2 -14 9 -9 14 0 rrcurveto
            56 hlineto
            14 0 10 8 2 15 rrcurveto
            9.8994140625 60 rlineto
            2 14 -6 11 -15 0 rrcurveto
            -56 hlineto
            -16 0 -10 -10 -2 -15 rrcurveto
            return
          </CharString>
          <CharString index="116">
            35.9501953125 -9.5498046875 177.5 -12.150390625 63.099609375 0 57.2001953125 0 76.400390625 11.349609375 17 109 rrcurveto
            9 62.400390625 rlineto
            12.1494140625 75.599609375 -40.599609375 58.650390625 -90.900390625 0 rrcurveto
            -142.5 hlineto
            -25.599609375 0 -33.9501953125 -8.5 9.7998046875 59.349609375 rrcurveto
            6.9501953125 44.25 rlineto
            3 19.7001953125 7.2998046875 33.150390625 56.3505859375 0 rrcurveto
            return
          </CharString>
          <CharString index="117">
            255.299804688 0 10.349609375 65.5498046875 rlineto
            return
          </CharString>
          <CharString index="118">
            81.650390625 -131.5 79.25 0 135.599609375 131.5 -86.2998046875 0 -84.599609375 -78.2001953125 -53.7001953125 78.2001953125 rlineto
            return
          </CharString>
          <CharString index="119">
            -47.25 10.099609375 -151.5 8.900390625 -65.6494140625 0 -103 0 -42.6005859375 -46.599609375 -13.849609375 -85.400390625 rrcurveto
            -8 -50.25 rlineto
            -16 -100.450195312 50.8994140625 -36.7001953125 94 0 rrcurveto
            140.05078125 hlineto
            39.7998046875 0 8.099609375 -17.8994140625 -5.3994140625 -31.5498046875 rrcurveto
            -7.80078125 -46.650390625 rlineto
            -8.7998046875 -52.5 -46.349609375 4.0498046875 -2.5498046875 0 rrcurveto
            return
          </CharString>
          <CharString index="120">
            -267.55078125 hlineto
            return
          </CharString>
          <CharString index="121">
            52.5 hlineto
            81.7998046875 0 28.349609375 35.5 16 102 rrcurveto
            -74.5 hlineto
            -6 -38 -8.5 -29.2001953125 -30 -12 rrcurveto
            -52.599609375 -15 rlineto
            return
          </CharString>
          <CharString index="122">
            390 hlineto
            0 0 13.9501953125 85 -1 1 rrcurveto
            -261.75 0 320.700195312 358 12.099609375 86 -405 0 -12.099609375 -86 282.549804688 0 -328.200195312 -358.299804688 rlineto
            return
          </CharString>
          <CharString index="123">
            92 0 48.1005859375 302.75 180.5 -12.5 95.3994140625 -290.25 102 0 -105.399414062 298.25 rlineto
            30.7998046875 4.2998046875 105.450195312 14.150390625 20.349609375 189.299804688 18.7998046875 169.25 -69 56.75 -91.75 0 rrcurveto
            -311.25 hlineto
            return
          </CharString>
          <CharString index="124">
            -6 -73.1005859375 52.650390625 -40.599609375 55.3994140625 0 69.30078125 0 45.849609375 34.650390625 10.25 79.0498046875 rrcurveto
            -49.150390625 hlineto
            -7.099609375 -47.5498046875 -26.75 -18.150390625 -42.25 0.849609375 -32.849609375 0 -25.75 23.80078125 5.5498046875 41.0498046875 rrcurveto
            return
          </CharString>
          <CharString index="125">
            -29.5 -181.400390625 29.2998046875 -196.799804688 188.25 -0.4501953125 77.4501953125 -0.4501953125 92.3994140625 1.3505859375 82.150390625 23.44921875 rrcurveto
            10.400390625 72.80078125 rlineto
            -120.700195312 -8.5 -71.9501953125 -2.2001953125 -53.150390625 2.5498046875 -114.599609375 7.650390625 -25.75 113.049804688 27.7001953125 162.299804688 45.599609375 289 103 -4.849609375 59.3505859375 0.849609375 96.19921875 1.7001953125 119.100585938 -14.4501953125 18.849609375 -2.5498046875 rrcurveto
            11.25 72.7998046875 rlineto
            -69.9501953125 15.849609375 -106.94921875 15.650390625 -65.80078125 0 -199 0 -65.099609375 -133.5 -38.5498046875 -233.849609375 rrcurveto
            return
          </CharString>
          <CharString index="126">
            -158.200195312 -66.099609375 61.150390625 -135.100585938 115.899414062 18.7001953125 rrcurveto
            10.6005859375 64.5 rlineto
            -76.1005859375 -4.2998046875 -1.6494140625 56.5498046875 91.7998046875 65.75 rrcurveto
            return
          </CharString>
          <CharString index="127">
            41.849609375 264.450195312 214.5 0 rlineto
            50.7998046875 0 26.400390625 -14.9501953125 -10.400390625 -118.799804688 -8.849609375 -99.599609375 -49.650390625 -31.1005859375 -54.3994140625 0 rrcurveto
            return
          </CharString>
          <CharString index="128">
            2.53125 28.349609375 25.5078125 23.5 28.349609375 0 28.3505859375 0 20.4921875 -23.5 -2.53125 -28.349609375 -2.53125 -28.3505859375 -24.4345703125 -22.5 -28.3505859375 0 -28.349609375 0 -21.5654296875 22.5 2.53125 28.3505859375 rrcurveto
            return
          </CharString>
          <CharString index="129">
            -6 -73.1005859375 52.6494140625 -40.599609375 55.400390625 0 69.2998046875 0 45.849609375 34.6494140625 10.25 79.05078125 rrcurveto
            -49.1494140625 hlineto
            -7.1005859375 -47.55078125 -26.75 -18.1494140625 -42.25 0.849609375 -32.849609375 0 -25.75 23.7998046875 5.5498046875 41.05078125 rrcurveto
            return
          </CharString>
          <CharString index="130">
            -34.7001953125 -202.049804688 72.7998046875 -73.2998046875 101.549804688 -1 90.3505859375 -1.150390625 62.599609375 6.150390625 83.2001953125 24.5 rrcurveto
            10.349609375 64.69921875 rlineto
            0 -133.149414062 -10.5498046875 -92 vhcurveto
            -66.05078125 0 -29.75 39.5498046875 25.80078125 144.950195312 33.75 184.400390625 35.599609375 7.25 60.349609375 0 rrcurveto
            89 126.150390625 -7.7001953125 0 hvcurveto
            9.5 63 rlineto
            -69.5 15.7001953125 -106 13.5 -52 0 -95.2001953125 0 -80.2998046875 -21.7001953125 -42.349609375 -246.25 rrcurveto
            return
          </CharString>
          <CharString index="131">
            25.6500091553 155.5 41.8000030518 35.25 55.1999969482 0 69.1999969482 0 46.1500091553 -7.39999389648 57.3000030518 -16.950012207 rrcurveto
            -48.4499969482 -308.050003052 rlineto
            -50.3999938965 -21.25 -59.8500061035 -21.1500091553 -71.799987793 0 -61.3000030518 0 -23.9000091553 62.3000030518 20.4000091553 121.75 rrcurveto
            return
          </CharString>
          <CharString index="132">
            81.650390625 -131.5 79.25 0 135.599609375 131.5 -86.2998046875 0 -84.6005859375 -78.2001953125 -53.69921875 78.2001953125 rlineto
            return
          </CharString>
          <CharString index="133">
            -19 -96 59.5 -61 110.400009155 0 rrcurveto
            134.5 hlineto
            147.000015259 0 20.0500030518 79.6499938965 11.4499969482 72.8500061035 rrcurveto
            5.60000610352 36 rlineto
            13.6000061035 83.5 -67.6000061035 50.8999938965 -67.8499908447 10.0500030518 rrcurveto
            -172.300003052 24.5500030518 rlineto
            -20.8500061035 3.14999389648 -19.5999908447 7.80000305176 4.14999389648 24.8000030518 5 29.75 24.8500061035 -5 16 0 rrcurveto
            132 hlineto
            142.000015259 0 46.6999969482 114.5 10.3000030518 77 19.8000030518 147.149993896 -85.8000030518 44.200012207 -68 0.149993896484 rrcurveto
            -103.5 2 rlineto
            -105.049987793 2 -76.5 -54.1000061035 -20.4499969482 -132.399993896 -8 -53 9.69999694824 -66.3000030518 43.3000030518 -29.1999969482 -50 0 -22 -50 -5 -36 rrcurveto
            return
          </CharString>
          <CharString index="134">
            9.00001525879 52 19.4499969482 54 74.1999969482 0 rrcurveto
            87.5 hlineto
            67.3999938965 0 6.94999694824 -51 -9 -55 -5.85000610352 -37.3999938965 -25.25 -74.6000061035 -68.3999938965 0 rrcurveto
            -87.5 hlineto
            -70.8499908447 0 -5.64999389648 63 8 49 rrcurveto
            return
          </CharString>
          <CharString index="135">
            -1.81498718262 -14 8.5119934082 -9 14 0 rrcurveto
            62 hlineto
            13.9999847412 0 11.1770019531 5 3.12600708008 18 rrcurveto
            10.4770050049 66 rlineto
            2.54598999023 16 -5.5119934082 9 -18 0 rrcurveto
            -62 hlineto
            -16 0 -9.50401306152 -10 -2.5299987793 -15 rrcurveto
            return
          </CharString>
          <CharString index="136">
            93.25 0 -70.6499938965 -448 92 0 rlineto
            return
          </CharString>
          <CharString index="137">
            70.6499938965 448 rlineto
            return
          </CharString>
          <CharString index="138">
            -97.8000030518 -17 rlineto
            return
          </CharString>
          <CharString index="139">
            -50 -315 81.6000061035 -72.1499938965 99.049987793 0 rrcurveto
            145.649993896 hlineto
            97.3000183105 0 74.1999969482 33.4499969482 18.4499969482 114.699996948 rrcurveto
            19.25 126.5 rlineto
            10.1999969482 63.9499969482 -12.6499938965 95.75 -136.650009155 -1.69999694824 -75.5 -0.850006103516 -94.049987793 -8.79998779297 -79.950012207 -11.3500061035 14.5500030518 82.3500061035 43.6999969482 155.149993896 86.75 0 rrcurveto
            return
          </CharString>
          <CharString index="140">
            239.600006104 hlineto
            59.1000061035 0 19.5500030518 -13.6999969482 -9.55000305176 -58.3000030518 rrcurveto
            -16.75 -109.25 rlineto
            -10.25 -65.8999938965 -51.8000030518 -11.5500030518 -33 0 rrcurveto
            -129.949996948 hlineto
            -94.75 1.52587890625e-05 9.94999694824 145.899993896 17.8500061035 112.800003052 rrcurveto
            return
          </CharString>
          <CharString index="141">
            -6.60000610352 -41.0500030518 -11.3000030518 -119.699996948 171.300003052 0 rrcurveto
            146.5 hlineto
            80 0 88.3000030518 10.5 23.4499969482 145.149993896 rrcurveto
            14.5500030518 94.6999969482 rlineto
            7.85000610352 43 -10 73.6999969482 -55.9499969482 17.25 72.8000030518 14.0999908447 22.3000030518 77.8500061035 2.30000305176 22.75 rrcurveto
            10.3999938965 61.8500061035 rlineto
            17.4499969482 112.699996948 -53.5999908447 63.4499969482 -101.850006104 0 rrcurveto
            -147.5 hlineto
            -111.5 0 -73.3500061035 -34.25 -21.1499938965 -135.75 rrcurveto
            -10.8500061035 -65 rlineto
            -8.29998779297 -49.9499969482 11.549987793 -66.0500030518 66.3000030518 -24.25 -49.3499908447 -5.60000610352 -48.4000091553 -33.75 -11.3999938965 -70.3999938965 rrcurveto
            return
          </CharString>
          <CharString index="142">
            15.3500061035 95.25 rlineto
            9.09999084473 56.75 42.1500091553 19.1499938965 45.3999938965 0 rrcurveto
            143.25 hlineto
            43.25 0 32.6000061035 -23.5500030518 -8.25 -52.3499908447 rrcurveto
            -15.3500061035 -95.25 rlineto
            -8.25 -55.200012207 -46.1000061035 -17.1499938965 -39.75 0 rrcurveto
            -131.050003052 hlineto
            -67.3000030518 0 -23.6000061035 17.8000030518 8.55000305176 54.5500030518 rrcurveto
            return
          </CharString>
          <CharString index="143">
            9.94999694824 62.3000030518 rlineto
            10.3999938965 66.4000091553 23.1000061035 26.8000030518 75.049987793 0 rrcurveto
            131.899993896 hlineto
            58.0000152588 0 21.3000030518 -18 -12.25 -75.1999969482 rrcurveto
            -9.94999694824 -62.3000030518 rlineto
            -5.84999084473 -35.1000061035 -17.75 -42.8999938965 -68.6500091553 0 rrcurveto
            -142.949996948 hlineto
            -34.0000152588 0 -48.5500030518 15.1999969482 10.25 62.8000030518 rrcurveto
            return
          </CharString>
          <CharString index="144">
            -2 -14 9 -9 14 0 rrcurveto
            56 hlineto
            14 0 10 8 2 15 rrcurveto
            9.900390625 60 rlineto
            2 14 -6 11 -15 0 rrcurveto
            -56 hlineto
            -16 0 -10 -10 -2 -15 rrcurveto
            return
          </CharString>
          <CharString index="145">
            -6 -73.099609375 52.650390625 -40.6005859375 55.3994140625 0 69.2998046875 0 45.8505859375 34.650390625 10.25 79.0498046875 rrcurveto
            -49.150390625 hlineto
            -7.099609375 -47.5498046875 -26.75 -18.150390625 -42.25 0.8505859375 -32.8505859375 0 -25.75 23.7998046875 5.55078125 41.0498046875 rrcurveto
            return
          </CharString>
          <CharString index="146">
            -29.9501953125 -175.700195312 27.1494140625 -205.549804688 189.450195312 1.099609375 76.6005859375 0.75 74.94921875 31.5498046875 32.30078125 30.2001953125 rrcurveto
            15.5498046875 -55.7998046875 69 0 62.349609375 393.5 rlineto
            -24 2 -22.1494140625 1 -21 0 rrcurveto
            return
          </CharString>
          <CharString index="147">
            -78.75 0 -57.2001953125 -12.0498046875 -43.0498046875 -12.9501953125 rrcurveto
            -9.650390625 -60.5 rlineto
            return
          </CharString>
          <CharString index="148">
            151 0 -30.7001953125 -174.450195312 rlineto
            0 -101.149414062 -53.6494140625 -75.6005859375 vhcurveto
            -112.649414062 -0.8505859375 -23.9501953125 120.25 26 163.150390625 42.1494140625 283.700195312 98.650390625 3.349609375 64.099609375 -0.849609375 58.150390625 -0.8505859375 123.150390625 -6.7001953125 51.8994140625 -7.6494140625 rrcurveto
            10.400390625 72.2001953125 rlineto
            -77.150390625 16.599609375 -98.3994140625 14.75 -65.5 -0.849609375 rrcurveto
            -199 0 -62.9501953125 -131.850585938 -40.0498046875 -233.849609375 rrcurveto
            return
          </CharString>
          <CharString index="149">
            249.5 -24 rlineto
            97.0498046875 -9.7998046875 83.5 58 20.4501953125 127.299804688 rrcurveto
            96.6494140625 609.450195312 rlineto
            -46.75 6.7001953125 -114.849609375 18.25 -106 0 -113.950195312 0 -82.2001953125 -86.05078125 -27.44921875 -171.149414062 -25.75 -163.100585938 19.849609375 -124.349609375 158.950195312 0 45 0 62.599609375 11.7001953125 61.7001953125 26.2998046875 rrcurveto
            -19.5 -123.25 rlineto
            -10 -64 -42.099609375 -31 -47.900390625 0 rrcurveto
            -249 hlineto
            return
          </CharString>
          <CharString index="150">
            7.4501953125 47.25 28.7001953125 136.200195312 99.6494140625 0 rrcurveto
            161.75 0 -56.849609375 -354.5 rlineto
            -75.2001953125 -20.1005859375 -29.0498046875 -4 -65.900390625 0 -104.69921875 0 22.94921875 118 11.2001953125 77.150390625 rrcurveto
            return
          </CharString>
          <CharString index="151">
            -19 -96 59.5 -61 110.399414062 0 rrcurveto
            134.5 hlineto
            147 0 20.0498046875 79.650390625 11.4501953125 72.849609375 rrcurveto
            5.6005859375 36 rlineto
            13.599609375 83.5 -67.599609375 50.900390625 -67.8505859375 10.0498046875 rrcurveto
            -172.299804688 24.5498046875 rlineto
            -20.849609375 3.150390625 -19.6005859375 7.7998046875 4.150390625 24.7998046875 5 29.75 24.849609375 -5 16 0 rrcurveto
            132 hlineto
            142 0 46.7001953125 114.5 10.2998046875 77 19.7998046875 147.150390625 -85.7998046875 44.19921875 -68 0.150390625 rrcurveto
            -103.5 2 rlineto
            -105.049804688 2 -76.5 -54.099609375 -20.4501953125 -132.400390625 -8 -53 9.7001953125 -66.2998046875 43.2998046875 -29.2001953125 -50 0 -22 -50 -5 -36 rrcurveto
            return
          </CharString>
          <CharString index="152">
            25.8505859375 123.5 189.549804688 -28 rlineto
            47.099609375 -7.5498046875 27.7998046875 -19.8505859375 -6.5498046875 -44.1494140625 rrcurveto
            -4.3994140625 -25.4501953125 rlineto
            -6.400390625 -42.650390625 -18.4501953125 -28.5498046875 -53.75 0 rrcurveto
            -133.5 hlineto
            -36 0 -45.4501953125 3.650390625 14.2001953125 69.0498046875 rrcurveto
            return
          </CharString>
          <CharString index="153">
            9 52 19.4501953125 54 74.2001953125 0 rrcurveto
            87.5 hlineto
            67.3994140625 0 6.9501953125 -51 -9 -55 -5.849609375 -37.400390625 -25.25 -74.599609375 -68.400390625 0 rrcurveto
            -87.5 hlineto
            -70.849609375 0 -5.650390625 63 8 49 rrcurveto
            return
          </CharString>
          <CharString index="154">
            -101.850006104 -17 rlineto
            return
          </CharString>
          <CharString index="155">
            97 0 -70.6499938965 -448 92.1499938965 0 rlineto
            return
          </CharString>
          <CharString index="156">
            36.44921875 0.849609375 12.7001953125 -34.1494140625 54.0498046875 -0.8505859375 45.05078125 -0.849609375 40.0498046875 36.4501953125 40.599609375 27.8994140625 rrcurveto
            -14.849609375 46.80078125 rlineto
            -9 -6.8505859375 -64.6005859375 -29.2001953125 -26.3994140625 1.150390625 rrcurveto
            return
          </CharString>
          <CharString index="157">
            0 0 90.2255859375 -20.115234375 14.1748046875 89.4150390625 rrcurveto
            13.9501953125 89.1005859375 rlineto
            1.7998046875 13.5 -2.8349609375 10.7998046875 -16.2001953125 0 rrcurveto
            -54 hlineto
            -14.400390625 0 -9.7646484375 -8.099609375 -2.7001953125 -16.2001953125 rrcurveto
            -8.5498046875 -56.7001953125 rlineto
            -2.7001953125 -15.2998046875 9 -7.2001953125 12.6005859375 0 rrcurveto
            9.8994140625 0 -3.1943359375 -19.7998046875 rlineto
            -1.80078125 -9.765625 -3.3291015625 -17.6845703125 -27 0.900390625 rrcurveto
            return
          </CharString>
          <CharString index="158">
            0 0 90.2255859375 -20.115234375 14.1748046875 89.4150390625 rrcurveto
            13.9501953125 89.1005859375 rlineto
            1.7998046875 13.5 -2.8349609375 10.7998046875 -16.2001953125 0 rrcurveto
            -54 hlineto
            -14.400390625 0 -9.7646484375 -8.099609375 -2.7001953125 -16.2001953125 rrcurveto
            -8.5498046875 -56.7001953125 rlineto
            -2.7001953125 -15.2998046875 9 -7.2001953125 12.6005859375 0 rrcurveto
            9.8994140625 0 -3.1953125 -19.7998046875 rlineto
            -1.7998046875 -9.765625 -3.330078125 -17.6845703125 -27 0.900390625 rrcurveto
            return
          </CharString>
          <CharString index="159">
            15.150390625 -44.8994140625 rlineto
            32.4501953125 15.5 24.1494140625 18.6494140625 43.25 0.8505859375 rrcurveto
            return
          </CharString>
          <CharString index="160">
            36.4501953125 0.849609375 12.7001953125 -34.1494140625 54.0498046875 -0.8505859375 45.0498046875 -0.849609375 40.0498046875 36.4501953125 40.6005859375 27.8994140625 rrcurveto
            -14.8505859375 46.7998046875 rlineto
            -9 -6.849609375 -64.599609375 -29.2001953125 -26.400390625 1.150390625 rrcurveto
            return
          </CharString>
          <CharString index="161">
            0 0 90.224609375 -20.115234375 14.1748046875 89.4150390625 rrcurveto
            13.9501953125 89.1005859375 rlineto
            1.7998046875 13.5 -2.8349609375 10.7998046875 -16.2001953125 0 rrcurveto
            -54 hlineto
            -14.3994140625 0 -9.7646484375 -8.099609375 -2.7001953125 -16.2001953125 rrcurveto
            -8.5498046875 -56.7001953125 rlineto
            -2.7001953125 -15.2998046875 9 -7.2001953125 12.599609375 0 rrcurveto
            9.900390625 0 -3.1953125 -19.7998046875 rlineto
            -1.7998046875 -9.765625 -3.330078125 -17.6845703125 -27 0.900390625 rrcurveto
            return
          </CharString>
          <CharString index="162">
            15.150390625 -44.900390625 rlineto
            32.44921875 15.5 24.150390625 18.650390625 43.25 0.849609375 rrcurveto
            return
          </CharString>
          <CharString index="163">
            -158.200195312 -66.1005859375 61.1494140625 -135.099609375 115.900390625 18.7001953125 rrcurveto
            10.599609375 64.5 rlineto
            -76.099609375 -4.30078125 -1.650390625 56.55078125 91.80078125 65.75 rrcurveto
            return
          </CharString>
          <CharString index="164">
            80 0 421.899993896 570 -79.1000061035 0 rlineto
            return
          </CharString>
          <CharString index="165">
            274.5 0 11.9499969482 73.75 rlineto
            return
          </CharString>
          <CharString index="166">
            -8 -49.9999847412 -35.8499908447 -267.900009155 205.5 0.850006103516 62.8499908447 0 66.8000030518 16.6999969482 53.3500061035 34.3000030518 rrcurveto
            return
          </CharString>
          <CharString index="167">
            12.5 -44 69.5 0 49.75 313.25 rlineto
            -23.9999847412 2 -21 1 -21 0 rrcurveto
            return
          </CharString>
          <CharString index="168">
            -81 0 -62.8500061035 -12.5 -42 -11 rrcurveto
            -9.05000305176 -56.5 rlineto
            return
          </CharString>
          <CharString index="169">
            157 0 -16.75 -104.75 rlineto
            -21.8499908447 -18.6499938965 -74 -31.8500061035 -73.5 0 -110.25 0.149993896484 4.44999694824 133.300003052 11.5500030518 73.5500030518 27.25 171.5 34.5999908447 35 103.5 0 87.450012207 0 78.8499908447 -6.10000610352 65.1999969482 -6.89999389648 rrcurveto
            11.6499938965 72.5 rlineto
            -57.049987793 13.25 -135.899993896 12.6499938965 -51.5500030518 -0.899993896484 rrcurveto
            -169 -1.35000610352 -58.1500091553 -83.5999908447 -29 -184 rrcurveto
            return
          </CharString>
          <CharString index="170">
            92 0 90 570 -92 0 rlineto
            return
          </CharString>
          <CharString index="171">
            32.1500091553 203 69.4000091553 -2 89.299987793 0 104.950012207 0 55 -1.39999389648 -31.3000030518 -197.600006104 -31.1500091553 -198.550003052 -72.3499908447 -4.44999694824 -89.3500061035 0 -111.199996948 0 -44.0500030518 18.8999938965 28.6000061035 182.100006104 rrcurveto
            return
          </CharString>
          <CharString index="172">
            104.099609375 0 75.400390625 142.25 225.599609375 0 32.400390625 -142.25 92.5 0 -116.5 570 -99.5 0 rlineto
            return
          </CharString>
          <CharString index="173">
            121.849609375 223.5 45.599609375 -223.5 rlineto
            return
          </CharString>
          <CharString index="174">
            92 0 36.650390625 231.900390625 rlineto
            0.849609375 -1.7001953125 111.950195312 -10.7998046875 25.5 -1.7001953125 rrcurveto
            84.4501953125 -217.700195312 98.599609375 0 -93.2998046875 227.599609375 rlineto
            76.9501953125 8.3505859375 45.650390625 59.6494140625 8.6494140625 99.8505859375 11.25 137.849609375 -82.3994140625 37.400390625 -64.30078125 0 rrcurveto
            -262.5 hlineto
            return
          </CharString>
          <CharString index="175">
            29.75 185.350585938 167.75 0 rlineto
            10.599609375 0 62.4501953125 -10.9501953125 -14.3505859375 -76.5 -17.0498046875 -88.150390625 -38.2001953125 -9.75 -33.19921875 0 rrcurveto
            return
          </CharString>
          <CharString index="176">
            -10.0498046875 -62.349609375 32.7998046875 -32.650390625 56.900390625 0 rrcurveto
            296 0 14.25 89 -255 0 rlineto
            -27.4501953125 0 -17.3994140625 0.7001953125 5.8994140625 32.2998046875 rrcurveto
            70.7001953125 448 -92 0 rlineto
            return
          </CharString>
          <CharString index="177">
            -4.30001831055 -29.1999969482 19.9000091553 -24.0500030518 29.1999969482 0 29.1999969482 0 27.1999969482 24.0500030518 4.30000305176 29.1999969482 4.30000305176 29.200012207 -19.0500030518 23.8999938965 -29.1999969482 0 -29.1999969482 0 -28.0500030518 -23.8999938965 -4.30000305176 -29.200012207 rrcurveto
            return
          </CharString>
          <CharString index="178">
            35.4501953125 -14.3994140625 193.5 -8.2001953125 48.400390625 0 60.5498046875 0 75.8994140625 20.0498046875 17.4501953125 111.700195312 rrcurveto
            10.1005859375 64 rlineto
            12.2998046875 77.25 -30.9501953125 60.75 -93.150390625 0 rrcurveto
            -152.5 hlineto
            -34.2998046875 0 -24.3994140625 -1.349609375 8.7998046875 53.099609375 rrcurveto
            8.7998046875 51.9501953125 rlineto
            4.5498046875 31 15.9501953125 29.5498046875 46.599609375 0 rrcurveto
            100.400390625 157.950195312 -4.75 0 hvcurveto
            10.7998046875 69 rlineto
            -68.849609375 10.9501953125 -142 9.7998046875 -52 0 -107.950195312 0 -45.8505859375 -59.349609375 -13.1494140625 -83.05078125 rrcurveto
            -7.7001953125 -55.69921875 rlineto
            -13.2998046875 -101.100585938 46.6494140625 -37.5498046875 86.75 0 rrcurveto
            151 hlineto
            41.5 0 8.30078125 -8.9501953125 -6.400390625 -40.7998046875 rrcurveto
            -9.7998046875 -61.599609375 rlineto
            -4.25 -27.2001953125 -16.75 -21.7001953125 -38.6005859375 0 rrcurveto
            -97.19921875 -171.80078125 3.599609375 0 hvcurveto
            return
          </CharString>
          <CharString index="179">
            -8.8994140625 -57.25 31.25 -33.4501953125 53.599609375 -0.2998046875 rrcurveto
            return
          </CharString>
          <CharString index="180">
            0 0 292.950195312 10.7001953125 17.7001953125 3.8994140625 rrcurveto
            11.94921875 72.900390625 rlineto
            return
          </CharString>
          <CharString index="181">
            -270.5 hlineto
            -21 0 -15 3 5 29 rrcurveto
            19 123.349609375 rlineto
            return
          </CharString>
          <CharString index="182">
            275 7 11.80078125 73 rlineto
            return
          </CharString>
          <CharString index="183">
            -273 8 19.849609375 122.650390625 rlineto
            4 24 3.150390625 9 30 0 rrcurveto
            return
          </CharString>
          <CharString index="184">
            274.5 0 11.94921875 73.75 rlineto
            return
          </CharString>
          <CharString index="185">
            -13.5 2.5498046875 -273 10.2001953125 0 0 -66.5498046875 -0.150390625 -49.2998046875 -32 -9.900390625 -63.849609375 rrcurveto
            return
          </CharString>
          <CharString index="186">
            432 0 14.400390625 89 -306 0 368.19921875 392 13.400390625 89 -432 0 -13.400390625 -89 311.5 0 -373.69921875 -392 rlineto
            return
          </CharString>
          <CharString index="187">
            4.54998779297 28.3500061035 26.1999969482 22.6499938965 28.3500061035 0 28.3499908447 0 18.950012207 -22.6499938965 -4.55000305176 -28.3500061035 -4.55000305176 -28.3500061035 -25.0500030518 -22.5 -28.3499908447 0 -28.3500061035 0 -20.1000061035 22.5 4.55000305176 28.3500061035 rrcurveto
            return
          </CharString>
          <CharString index="188">
            -4.98828125 -57 42.50390625 -44.7001953125 56 0 56 0 48.49609375 44.7001953125 4.98828125 57 4.98828125 57 -41.279296875 45.5498046875 -56 0 -56 0 -49.720703125 -45.5498046875 -4.98828125 -57 rrcurveto
            return
          </CharString>
          <CharString index="189">
            -22.900390625 -143.700195312 -0.650390625 -175.099609375 185.05078125 0 82.849609375 0 84.599609375 13.4501953125 62.7001953125 14.8994140625 rrcurveto
            10.650390625 67.5 rlineto
            0 0 -143.650390625 -9.6494140625 -74.6494140625 -1.7001953125 -115 2 5.75 104.150390625 17.25 108.349609375 19.25 123.5 35.599609375 75 102 0 65 0 135.700195312 -8.5 15 -3 rrcurveto
            10.6494140625 69.5 rlineto
            -52 15 -117.849609375 11.5 -51.849609375 0 -172.100585938 0 -57.5 -112.349609375 -23.8994140625 -150.850585938 rrcurveto
            return
          </CharString>
          <CharString index="190">
            -158.200195312 -66.1005859375 61.150390625 -135.099609375 115.899414062 18.7001953125 rrcurveto
            10.6005859375 64.5 rlineto
            -76.1005859375 -4.2998046875 -1.6494140625 56.5498046875 91.7998046875 65.75 rrcurveto
            return
          </CharString>
          <CharString index="191">
            -4.30078125 -29.2001953125 19.900390625 -24.0498046875 29.2001953125 0 29.2001953125 0 27.19921875 24.0498046875 4.30078125 29.2001953125 4.2998046875 29.19921875 -19.0498046875 23.05078125 -29.2001953125 0 -29.2001953125 0 -28.0498046875 -23.05078125 -4.2998046875 -29.19921875 rrcurveto
            return
          </CharString>
          <CharString index="192">
            92 0 66.75 416.349609375 225.25 -416.349609375 88 0 90 571 -91 0 -65.599609375 -413.700195312 -226.400390625 413.700195312 -89 0 rlineto
            return
          </CharString>
          <CharString index="193">
            -39 -249 95.2998046875 -39.75 161 0 168 0 80.2001953125 43.25 39 245 41 256 -95.4501953125 35.75 -163 0 -166 0 -82.0498046875 -47.25 -39 -244 rrcurveto
            return
          </CharString>
          <CharString index="194">
            32.150390625 203 69.3994140625 -2 89.30078125 0 104.94921875 0 55 -1.400390625 -31.2998046875 -197.599609375 -31.1494140625 -198.549804688 -72.3505859375 -4.4501953125 -89.349609375 0 -111.200195312 0 -44.0498046875 18.900390625 28.599609375 182.099609375 rrcurveto
            return
          </CharString>
          <CharString index="195">
            -39 -239 114.100585938 -30.5 136 0 121 0 109.899414062 27.5 37 233 rrcurveto
            49 314.5 -93 0 -49 -310 rlineto
            -23.8994140625 -149.099609375 -58.400390625 -26.900390625 -90.1494140625 0 -104.850585938 0 -40.599609375 26.2998046875 24.8994140625 149.700195312 rrcurveto
            49 310 -93 0 rlineto
            return
          </CharString>
          <CharString index="196">
            149.150390625 -378.5 -30.150390625 -192.5 92 0 30.150390625 192.5 265.349609375 378.5 -103.799804688 0 -196.299804688 -275.900390625 -109.650390625 275.900390625 rlineto
            return
          </CharString>
          <CharString index="197">
            180 0 -76.599609375 -481 92 0 76.599609375 481 180 0 14.400390625 89 -452 0 rlineto
            return
          </CharString>
          <CharString index="198">
            -8 -50 -35.8505859375 -267.899414062 205.5 0.849609375 62.8505859375 0 66.7998046875 16.7001953125 53.349609375 34.2998046875 rrcurveto
            return
          </CharString>
          <CharString index="199">
            12.5 -44 69.5 0 49.75 313.25 rlineto
            -24 2 -21 1 -21 0 rrcurveto
            return
          </CharString>
          <CharString index="200">
            -81 0 -62.849609375 -12.5 -42 -11 rrcurveto
            -9.0498046875 -56.5 rlineto
            return
          </CharString>
          <CharString index="201">
            157 0 -16.75 -104.75 rlineto
            -21.8505859375 -18.650390625 -74 -31.849609375 -73.5 0 -110.25 0.150390625 4.4501953125 133.299804688 11.5498046875 73.5498046875 27.25 171.5 34.6005859375 35 103.5 0 87.44921875 0 78.8505859375 -6.099609375 65.2001953125 -6.900390625 rrcurveto
            11.6494140625 72.5 rlineto
            -57.0498046875 13.25 -135.900390625 12.650390625 -51.5498046875 -0.900390625 rrcurveto
            -169 -1.349609375 -58.1494140625 -83.6005859375 -29 -184 rrcurveto
            return
          </CharString>
          <CharString index="202">
            133.5 -732 99.0498046875 0 181.25 354.049804688 57.1005859375 -354.049804688 96.7998046875 0 371.5 732 -99.4501953125 0 -300.950195312 -597.049804688 -56.75 358.549804688 120.100585938 238.5 -102 0 -300.200195312 -591.950195312 -105.600585938 591.950195312 rlineto
            return
          </CharString>
          <CharString index="203">
            118.549804688 -531 104.799804688 0 133.650390625 259.299804688 52.75 -259.299804688 95.349609375 0 234.549804688 421.900390625 rlineto
            18.2001953125 32.69921875 4.400390625 37.1005859375 -11.30078125 39.599609375 rrcurveto
            -74.6494140625 hlineto
            -5.8505859375 -41.349609375 -8.7998046875 -20.3505859375 -13 -27 rrcurveto
            -176.599609375 -324.549804688 -50.1005859375 252.799804688 25.55078125 57.650390625 rlineto
            15.1494140625 32.9501953125 2.650390625 31.75 -10.5498046875 35.5498046875 rrcurveto
            -73.80078125 hlineto
            -5.849609375 -41.349609375 -8.7998046875 -20.3505859375 -13 -27 rrcurveto
            -170.650390625 -327.099609375 -88.849609375 418.049804688 rlineto
            return
          </CharString>
          <CharString index="204">
            115.049804688 -570 101.200195312 0 127.549804688 252.950195312 57 -252.950195312 99.5 0 285.200195312 570 -98.150390625 0 -220.649414062 -443.450195312 -58.0498046875 258.75 91.099609375 184.700195312 -98.150390625 0 -221.349609375 -443.450195312 -85.5 443.450195312 rlineto
            return
          </CharString>
          <CharString index="205">
            92.150390625 0 100.049804688 632.549804688 rlineto
            3 17 19.75 5.150390625 3.25 -15.150390625 rrcurveto
            142.899414062 -555.599609375 rlineto
            25.25 -126.549804688 166.100585938 9.3994140625 18.7001953125 124.450195312 rrcurveto
            98.5 640.75 -92 0 -99.75 -628.599609375 rlineto
            -3.7001953125 -21.80078125 -17.0498046875 0.5 -4.1005859375 18.30078125 rrcurveto
            -146.299804688 565.049804688 rlineto
            -18.75 99.849609375 -172.200195312 -1.7998046875 -16.4501953125 -122.450195312 rrcurveto
            return
          </CharString>
          <CharString index="206">
            85.9000091553 -15.3000030518 45.8000030518 1.55000305176 81.8999938965 -0.850006103516 67.1500091553 -0.849990844727 49.8499908447 21.8000030518 13.950012207 92.299987793 rrcurveto
            10.8500061035 65.9499969482 rlineto
            10.2499847412 67.8499908447 -34.0500030518 53.9499969482 -67.6999969482 1.20001220703 -32.3000030518 0.449996948242 -75.299987793 8.5 -33.5500030518 -27.3500061035 rrcurveto
            27 124.5 226.949996948 0 11.6499938965 72.3500061035 -299.050003052 0 -62.3000030518 -294.699996948 66.1999969482 0 rlineto
            5.55000305176 32.1499938965 19.0500030518 12.9499969482 24.3999938965 0 rrcurveto
            98.6999969482 hlineto
            48.9499816895 -1.52587890625e-05 -7.04998779297 -35.5 -2.85000610352 -21.25 rrcurveto
            -7.80000305176 -49.8500061035 rlineto
            -4.55001831055 -31.5 -17.049987793 -20.1500091553 -35.3000030518 0 rrcurveto
            return
          </CharString>
          <CharString index="207">
            92 0 66.3505859375 418.5 rlineto
            82.8994140625 31.7998046875 36.1005859375 3.7001953125 63.9501953125 0 48.2998046875 0 28.75 -27.900390625 -9.400390625 -62.099609375 rrcurveto
            -57.9501953125 -364 92 0 59 370 rlineto
            14.150390625 89.2001953125 -46.650390625 80.7998046875 -106 0 -116.69921875 0 -55.9501953125 -12.400390625 -115.299804688 -47.599609375 rrcurveto
            return
          </CharString>
          <CharString index="208">
            92 0 66.5 420 rlineto
            94.9501953125 34 73.8505859375 5.099609375 93.25 -9.599609375 rrcurveto
            14.099609375 88.5 rlineto
            -161 14 -78.150390625 -19.349609375 -119.649414062 -51.150390625 rrcurveto
            return
          </CharString>
          <CharString index="209">
            -32.8505859375 -220.400390625 72.7998046875 -61.75 118.950195312 0 13.9501953125 0 233.400390625 14.6005859375 8.5498046875 5.25 rrcurveto
            61.1494140625 470.299804688 rlineto
            -41.8994140625 18.849609375 -84.900390625 32.900390625 -99.8994140625 0 -154.25 0 -68.400390625 -60.9501953125 -26.599609375 -198.799804688 rrcurveto
            return
          </CharString>
          <CharString index="210">
            20.5498046875 157.899414062 37.900390625 36.55078125 95.8994140625 0 37.2001953125 0 49.849609375 -10.1005859375 47.1005859375 -10.25 rrcurveto
            -47.9501953125 -352.25 rlineto
            0 -105.650390625 -5.099609375 -62.8994140625 vhcurveto
            -71.4501953125 0 -18.2001953125 45.8994140625 17.650390625 137.350585938 rrcurveto
            return
          </CharString>
          <CharString index="211">
            -14.150390625 -89.2001953125 46 -85.2998046875 111.400390625 0 116.700195312 0 68.099609375 1.8994140625 94 31.1005859375 rrcurveto
            79.2001953125 507 -92 0 -69.6005859375 -439.75 rlineto
            -43.7998046875 -9.7001953125 -71.9501953125 -4.5498046875 -63.94921875 0 -48.30078125 0 -28.75 27.8994140625 9.400390625 62.1005859375 rrcurveto
            57.9501953125 364 -92 0 rlineto
            return
          </CharString>
        <CharString name=".notdef">
          248 0 13 505 13 hstem
          100 14 530 14 vstem
          100 hmoveto
          558 531 -558 hlineto
          14 -509 rmoveto
          0 485 256 -241 rlineto
          -246 252 rmoveto
          511 0 -254 -242 rlineto
          -254 -263 rmoveto
          254 243 253 -243 rlineto
          -242 253 rmoveto
          252 240 0 -481 rlineto
          endchar
        </CharString>
        <CharString name="A">
          157 21 -21 21 -21 192.600006104 87.6499938965 451.75 -20 hstemhm
          hintmask 10110000
          42 hmoveto
          101.100006104 0 100.350006104 192.600006104 280.649993896 0 36.3000030518 -192.600006104 93.6000061035 0 -135.75 732 -97.25 0 rlineto
          -133.899993896 -451.75 rmoveto
          166.149993896 326.899993896 57 -326.899993896 rlineto
          endchar
        </CharString>
        <CharString name="AE">
          436 21 -21 21 -21 12.3000030518 72.75 135.5 87.5 3.05000305176 94.3000030518 -84.450012207 74.3000030518 246.149993896 90.6000061035 -90.6000061035 74.6000061035 hstemhm
          hintmask 10010000
          28.0500030518 hmoveto
          104.5 0 144.850006104 220.550003052 192.899993896 0 -14.6499938965 -99.1000061035 rlineto
          -14.5999908447 -96.8500061035 73.4499969482 -33.3000030518 66.75 4 rrcurveto
          hintmask 00111000
          0 0 292.149993896 14.8999938965 15.75 2.10000610352 rrcurveto
          12.3999938965 72.75 -296.5 0 rlineto
          -28.9999847412 1.52587890625e-05 -33.8500061035 -1 8 53 rrcurveto
          27.3999938965 174.050003052 rlineto
          hintmask 00010100
          319.850006104 9.85000610352 11.3999938965 74.3000030518 rlineto
          hintmask 00011010
          -315.850006104 10.1499938965 29.1000061035 182.550003052 rlineto
          5.69999694824 26.9999847412 4.14999389648 26.4499969482 48.6000061035 0 rrcurveto
          hintmask 00010001
          309.050003052 0 11.3999938965 74.6000061035 rlineto
          hintmask 10010010
          -17.1000061035 2.39999389648 -297.949996948 13.6000061035 0 0 -91.25 1.05000305176 -81.25 10.3000030518 -96.8000030518 -147.150009155 rrcurveto
          -83.6999969482 -288.149993896 rmoveto
          203.5 308.25 -51.1999969482 -308.25 rlineto
          endchar
        </CharString>
        <CharString name="Aacute">
          157 0 21 171.600006104 87.6499938965 431.75 20 65 134.5 hstem
          442.51499939 226.300003052 vstem
          442.514648438 797 rmoveto
          -62 callsubr
          -524.315429688 -931.5 rmoveto
          -64 callsubr
          -133.900390625 -451.75 rmoveto
          -63 callsubr
          endchar
        </CharString>
        <CharString name="Abreve">
          157 0 21 171.600006104 87.6499938965 431.75 20 65 48.8500061035 hstem
          384.421005249 49.1499938965 129.149993896 49.1499938965 vstem
          384.420898438 910.700195312 rmoveto
          17 callsubr
          -391.571289062 -910.700195312 rmoveto
          -64 callsubr
          -133.900390625 -451.75 rmoveto
          -63 callsubr
          endchar
        </CharString>
        <CharString name="Acircumflex">
          157 0 21 171.600006104 87.6499938965 431.75 20 65 131.5 hstem
          331.839996338 296.5 vstem
          331.83984375 797 rmoveto
          -61 callsubr
          -425.440429688 -928.5 rmoveto
          -64 callsubr
          -133.900390625 -451.75 rmoveto
          -63 callsubr
          endchar
        </CharString>
        <CharString name="Adieresis">
          157 0 21 171.600006104 87.6499938965 431.75 20 65 105.5 hstem
          308.36000061 105.5 149.5 105.5 vstem
          308.360351562 850.25 rmoveto
          -57 callsubr
          255 hmoveto
          -57 callsubr
          -521.360351562 -850.25 rmoveto
          -64 callsubr
          -133.900390625 -451.75 rmoveto
          -63 callsubr
          endchar
        </CharString>
        <CharString name="Agrave">
          157 0 21 171.600006104 87.6499938965 431.75 20 65 134.5 hstem
          323.615005493 193.899993896 vstem
          323.615234375 931.5 rmoveto
          -65 callsubr
          -377.315429688 -931.5 rmoveto
          -64 callsubr
          -133.900390625 -451.75 rmoveto
          -63 callsubr
          endchar
        </CharString>
        <CharString name="Amacron">
          157 0 21 171.600006104 87.6499938965 431.75 20 65 67.5 hstem
          334.082992554 302.75 vstem
          334.083007812 797 rmoveto
          -75 callsubr
          -302.833007812 -864.5 rmoveto
          -64 callsubr
          -133.900390625 -451.75 rmoveto
          -63 callsubr
          endchar
        </CharString>
        <CharString name="Aogonek">
          240 -182.350006104 64.5 98 20 -0.149993896484 21 171.600006104 87.6499938965 431.75 20 hstemhm
          hintmask 11000000
          675.450195312 0.150390625 rmoveto
          1 callsubr
          hintmask 00111000
          -590.25 -0.150390625 rmoveto
          101.099609375 0 100.350585938 192.599609375 280.649414062 0 36.2998046875 -192.599609375 93.6005859375 0 -135.75 732 -97.25 0 rlineto
          -133.900390625 -451.75 rmoveto
          -63 callsubr
          endchar
        </CharString>
        <CharString name="Aring">
          157 0 21 171.600006104 87.6499938965 431.75 20 -1.85800170898 50.8500061035 102.699996948 50.6999969482 hstemhm
          384.121994019 203 hintmask 00011100
          384.122070312 831.841796875 rmoveto
          -56 callsubr
          50.150390625 hmoveto
          2.5302734375 28.3505859375 25.5078125 23.5 28.3505859375 0 28.349609375 0 20.4921875 -23.5 -2.53125 -28.3505859375 -2.5302734375 -28.349609375 -24.435546875 -22.5 -28.349609375 0 -28.3505859375 0 -21.564453125 22.5 2.53125 28.349609375 rrcurveto
          hintmask 11100000
          -392.272460938 -831.841796875 rmoveto
          -64 callsubr
          -133.900390625 -451.75 rmoveto
          -63 callsubr
          endchar
        </CharString>
        <CharString name="Atilde">
          157 0 21 171.600006104 87.6499938965 431.75 20 65.8500061035 75.3999938965 -41.25 75.3999938965 hstemhm
          hintmask 00001000
          316.869140625 841.900390625 rmoveto
          -60 callsubr
          hintmask 00010000
          -59 callsubr
          hintmask 00001000
          -58 callsubr
          hintmask 11100000
          -274.869140625 -841.900390625 rmoveto
          -64 callsubr
          -133.900390625 -451.75 rmoveto
          -63 callsubr
          endchar
        </CharString>
        <CharString name="B">
          87 0 87.5 253.350006104 86 217.649993896 87.5 hstem
          74.75 hmoveto
          287.5 hlineto
          154 0 63.1999969482 74.8500061035 15.9499969482 125.399993896 13.8500061035 112 -51.8999938965 61.6999969482 -35.6000061035 6.05000305176 59.3999938965 14.5 49.700012207 46.1499938965 11.6999969482 94.3000030518 11.5 90 -29.0500030518 107.050003052 -147.5 0 rrcurveto
          -286.75 hlineto
          -9.05000305176 -644.5 rmoveto
          39.8500061035 253.350006104 193.149993896 0 rlineto
          77.2499847412 0 22 -62.200012207 -11.0999908447 -68.4499969482 -17.200012207 -107.75 -64.299987793 -14.9499969482 -46.5 0 rrcurveto
          -139.350006104 339.350006104 rmoveto
          34.8500061035 217.649993896 192.5 0 rlineto
          57.6999969482 0 43.0999908447 -18.1000061035 -13.799987793 -89.049987793 -11.6500091553 -73.9000091553 -42.8000030518 -36.5999908447 -68.25 0 rrcurveto
          endchar
        </CharString>
        <CharString name="C">
          66 -6 89 568 89 hstem
          110.949996948 372.649993896 rmoveto
          -29.5000152588 -181.399993896 29.3000030518 -196.800003052 188.25 -0.449996948242 77.4499969482 -0.449996948242 92.4000091553 1.34999084473 82.1499938965 23.450012207 rrcurveto
          10.3999938965 72.8000030518 rlineto
          -120.699996948 -8.5 -71.9499969482 -2.19999694824 -53.1499938965 2.55000305176 -114.600006104 7.64999389648 -25.75 113.050003052 27.6999969482 162.300003052 45.6000061035 289 103 -4.85000610352 59.3499908447 0.850006103516 96.200012207 1.69999694824 119.099990845 -14.4499969482 18.8500061035 -2.55000305176 rrcurveto
          11.25 72.8000030518 rlineto
          -69.9499816895 15.8500061035 -106.950012207 15.6499938965 -65.799987793 0 -199 0 -65.1000061035 -133.5 -38.5500030518 -233.850006104 rrcurveto
          endchar
        </CharString>
        <CharString name="Cacute">
          66 -6 89 568 89 60 134.5 hstem
          408.542007446 226.300003052 vstem
          408.541992188 800 rmoveto
          -49 callsubr
          -421.391601562 -561.849609375 rmoveto
          18 callsubr
          endchar
        </CharString>
        <CharString name="Ccaron">
          66 -6 89 568 89 60 131.5 hstem
          327.07800293 296.5 vstem
          327.078125 931.5 rmoveto
          5 callsubr
          -288.02734375 -558.849609375 rmoveto
          18 callsubr
          endchar
        </CharString>
        <CharString name="Ccedilla">
          66 -174.350006104 43.3000030518 125.050003052 89 568 89 hstem
          289.699996948 74.5 vstem
          110.949996948 372.649993896 rmoveto
          -29.5000152588 -181.399993896 29.3000030518 -196.800003052 188.25 -0.449996948242 77.4499969482 -0.449996948242 92.4000091553 1.34999084473 82.1499938965 23.450012207 rrcurveto
          10.3999938965 72.8000030518 rlineto
          -120.699996948 -8.5 -71.9499969482 -2.19999694824 -53.1499938965 2.55000305176 -114.600006104 7.64999389648 -24.0500030518 113.050003052 27.6999969482 162.300003052 45.6000061035 289 101.300003052 -4.85000610352 59.3499908447 0.850006103516 96.200012207 1.69999694824 119.099990845 -14.4499969482 18.8500061035 -2.55000305176 rrcurveto
          11.25 72.8000030518 rlineto
          -69.9499816895 15.8500061035 -106.950012207 15.6499938965 -65.799987793 0 -199 0 -65.1000061035 -133.5 -38.5500030518 -233.850006104 rrcurveto
          74.4499969482 -547 rmoveto
          52.5 hlineto
          81.8000030518 0 28.5 35.5 16 102 0 0 -50.6999969482 -0.849990844727 -23.8000030518 0.849990844727 -6 -38 -7.80000305176 -32.5999908447 -30.8499908447 -8.60000610352 rrcurveto
          -52.6000061035 -15 rlineto
          endchar
        </CharString>
        <CharString name="Ccircumflex">
          66 -6 89 568 89 60 131.5 hstem
          296.567001343 296.5 vstem
          296.567382812 800 rmoveto
          -47 callsubr
          -321.216796875 -558.849609375 rmoveto
          18 callsubr
          endchar
        </CharString>
        <CharString name="Cdotaccent">
          66 -6 89 568 89 60 108 hstem
          381.251998901 112.899993896 vstem
          381.251953125 823 rmoveto
          37 callsubr
          -280.202148438 -510.349609375 rmoveto
          18 callsubr
          endchar
        </CharString>
        <CharString name="D">
          154 0 90.0500030518 554.449996948 87.5 hstem
          74.75 hmoveto
          282 hlineto
          185.699996948 0 91.4000091553 135.449996948 37.5999908447 223.050003052 23.6500091553 137.300003052 -3.80000305176 236.199996948 -221.100006104 0 rrcurveto
          -51 -228.449996948 0 -0.850006103516 hvcurveto
          -9.89999389648 -641.099990845 rmoveto
          87.8000030518 554.449996948 183.25 0 rlineto
          115.800003052 0 43.4499969482 -81.6499938965 -31.549987793 -198.850006104 -23.700012207 -147.800003052 -70.1999969482 -126.149993896 -120.099990845 0 rrcurveto
          endchar
        </CharString>
        <CharString name="Dcaron">
          154 0 90.0500030518 554.449996948 87.5 60.75 131.5 hstem
          332.649993896 296.5 vstem
          332.650390625 924.25 rmoveto
          2 callsubr
          -316.200195312 -924.25 rmoveto
          282 hlineto
          185.700195312 0 91.400390625 135.450195312 37.599609375 223.049804688 23.650390625 137.299804688 -3.7998046875 236.200195312 -221.100585938 0 rrcurveto
          -51 -228.450195312 0 -0.849609375 hvcurveto
          -9.8994140625 -641.100585938 rmoveto
          87.7998046875 554.450195312 183.25 0 rlineto
          115.799804688 0 43.4501953125 -81.650390625 -31.5498046875 -198.849609375 -23.7001953125 -147.799804688 -70.2001953125 -126.150390625 -120.099609375 0 rrcurveto
          endchar
        </CharString>
        <CharString name="Dcroat">
          153 0 90.0500030518 254.449996948 57 243 87.5 hstem
          85.650390625 344.5 rmoveto
          65 0 -54.7001953125 -344.5 283.5 0 rlineto
          185.700195312 0 90.75 139.049804688 37.599609375 219.450195312 23.650390625 134.75 -3.6005859375 238.75 -221.099609375 0 rrcurveto
          -51 -229.5 0 -0.849609375 hvcurveto
          -51.8505859375 -329.650390625 -65 0 rlineto
          106.950195312 -311.450195312 rmoveto
          40.6005859375 254.450195312 131.5 0 9.44921875 57 -131.5 0 37.75 243 185.5 0 rlineto
          114.150390625 0 42.7001953125 -81.650390625 -31.5498046875 -198.849609375 -23.7001953125 -147.799804688 -70.3505859375 -126.150390625 -119.049804688 0 rrcurveto
          endchar
        </CharString>
        <CharString name="E">
          55 14 72.75 229.199996948 94.3000030518 -84.4499969482 74.3000030518 242.149993896 89.75 -89.75 73.75 hstemhm
          hintmask 11000000
          92.8999938965 130.5 rmoveto
          -16.3499908447 -102.850006104 73.0500030518 -34.3999938965 67.25 3.75 0 0 292.599990845 14.8999938965 15.9000091553 2.10000610352 rrcurveto
          12.3999938965 72.75 -296.5 0 rlineto
          -29 0 -33.1499938965 -1 7.29998779297 53 rrcurveto
          28.3999938965 177.199996948 rlineto
          hintmask 10100000
          317.850006104 9.85000610352 12.3999938965 74.3000030518 rlineto
          hintmask 11010000
          -315.699996948 10.1499938965 28.1000061035 176 rlineto
          3.99998474121 27 8.25 29 48.6000061035 0 rrcurveto
          hintmask 10001000
          306.5 0 11.5500030518 73.75 rlineto
          hintmask 11010000
          -17.25 2.39999389648 -295.25 13.6000061035 0 0 -77.950012207 3.39999389648 -61.8999938965 -33 -17.0500030518 -104.899993896 rrcurveto
          endchar
        </CharString>
        <CharString name="Eacute">
          55 14 72.75 229.199996948 94.3000030518 -84.4499969482 74.3000030518 242.149993896 73.75 -73.75 89.75 60 134.5 hstemhm
          393.5 226.300003052 hintmask 00000110
          393.5 792 rmoveto
          -49 callsubr
          hintmask 11000000
          -424.399414062 -796 rmoveto
          -54 callsubr
          hintmask 10100000
          -53 callsubr
          hintmask 11001000
          -52 callsubr
          hintmask 10010000
          -51 callsubr
          hintmask 11001000
          -50 callsubr
          endchar
        </CharString>
        <CharString name="Ecaron">
          55 14 72.75 229.199996948 94.3000030518 -84.4499969482 74.3000030518 242.149993896 73.75 -73.75 89.75 65 131.5 hstemhm
          320.733001709 296.5 hintmask 00000110
          320.733398438 928.5 rmoveto
          2 callsubr
          hintmask 11000000
          -299.732421875 -798 rmoveto
          -54 callsubr
          hintmask 10100000
          -53 callsubr
          hintmask 11001000
          -52 callsubr
          hintmask 10010000
          -51 callsubr
          hintmask 11001000
          -50 callsubr
          endchar
        </CharString>
        <CharString name="Ecircumflex">
          55 14 72.75 229.199996948 94.3000030518 -84.4499969482 74.3000030518 242.149993896 73.75 -73.75 89.75 60 132.350006104 hstemhm
          282.300003052 296.5 hintmask 00000110
          282.299804688 792 rmoveto
          91.2001953125 0 81.150390625 75.650390625 48.849609375 -75.650390625 75.2998046875 0 -80.8994140625 132.349609375 -80 0 rlineto
          hintmask 11000000
          -325 -793.849609375 rmoveto
          -54 callsubr
          hintmask 10100000
          -53 callsubr
          hintmask 11001000
          -52 callsubr
          hintmask 10010000
          -51 callsubr
          hintmask 11001000
          -50 callsubr
          endchar
        </CharString>
        <CharString name="Edieresis">
          55 14 72.75 229.199996948 94.3000030518 -84.4499969482 74.3000030518 242.149993896 73.75 -73.75 89.75 57.75 105.5 hstemhm
          250.550003052 105.5 149.5 105.5 hintmask 00000111
          250.549804688 843 rmoveto
          -48 callsubr
          255 hmoveto
          -48 callsubr
          hintmask 11000000
          -412.649414062 -712.5 rmoveto
          -54 callsubr
          hintmask 10100000
          -53 callsubr
          hintmask 11001000
          -52 callsubr
          hintmask 10010000
          -51 callsubr
          hintmask 11001000
          -50 callsubr
          endchar
        </CharString>
        <CharString name="Edotaccent">
          55 14 72.75 229.199996948 94.3000030518 -84.4499969482 74.3000030518 242.149993896 73.75 -73.75 89.75 65 108 hstemhm
          390.406997681 112.899993896 hintmask 00000110
          390.407226562 820 rmoveto
          8 callsubr
          hintmask 11000000
          -307.40625 -749.5 rmoveto
          -54 callsubr
          hintmask 10100000
          -53 callsubr
          hintmask 11001000
          -52 callsubr
          hintmask 10010000
          -51 callsubr
          hintmask 11001000
          -50 callsubr
          endchar
        </CharString>
        <CharString name="Egrave">
          55 14 72.75 229.199996948 94.3000030518 -84.4499969482 74.3000030518 242.149993896 73.75 -73.75 89.75 60 134.5 hstemhm
          277.800003052 193.899993896 hintmask 00000110
          277.799804688 926.5 rmoveto
          -55 callsubr
          hintmask 11000000
          -280.599609375 -796 rmoveto
          -54 callsubr
          hintmask 10100000
          -53 callsubr
          hintmask 11001000
          -52 callsubr
          hintmask 10010000
          -51 callsubr
          hintmask 11001000
          -50 callsubr
          endchar
        </CharString>
        <CharString name="Emacron">
          55 14 72.75 229.199996948 94.3000030518 -84.4499969482 74.3000030518 242.149993896 73.75 -73.75 89.75 60 67.5 hstemhm
          277.550003052 302.75 hintmask 00000110
          277.549804688 792 rmoveto
          -75 callsubr
          hintmask 11000000
          -195.399414062 -729 rmoveto
          -54 callsubr
          hintmask 10100000
          -53 callsubr
          hintmask 11001000
          -52 callsubr
          hintmask 10010000
          -51 callsubr
          hintmask 11001000
          -50 callsubr
          endchar
        </CharString>
        <CharString name="Eng">
          152 -257 69 209 -21 21 -21 732 -20 hstemhm
          hintmask 11010000
          74.75 hmoveto
          93 0 88.6000061035 559.5 258.25 -554.399993896 -11.6999969482 -73.6000061035 rlineto
          -17.5 -110.699996948 -74.6999969482 4.94999694824 -59.5 -13.75 rrcurveto
          -10.9499969482 -69 rlineto
          118 -1.94999694824 109.899993896 19.8000030518 25.0500030518 158.149993896 rrcurveto
          13.3999938965 84.3999938965 115.149993896 728.600006104 -92 0 -88.75 -561 -259.649993896 561 -90.6000061035 0 rlineto
          endchar
        </CharString>
        <CharString name="Eogonek">
          50 -168.5 64.5 98 20 0 72.75 229.199996948 94.3000030518 -84.4499969482 74.3000030518 242.149993896 73.75 -73.75 89.75 hstemhm
          hintmask 11000000
          485.950195312 14 rmoveto
          19 callsubr
          hintmask 00110000
          -432.299804688 116.5 rmoveto
          -54 callsubr
          hintmask 00101000
          -53 callsubr
          hintmask 00110010
          -52 callsubr
          hintmask 00100100
          -51 callsubr
          hintmask 00110010
          -50 callsubr
          endchar
        </CharString>
        <CharString name="Eth">
          153 0 90.0500030518 254.449996948 57 243 87.5 hstem
          63.6000061035 344.5 rmoveto
          65 0 -54.6999969482 -344.5 283.5 0 rlineto
          185.700012207 0 90.75 139.050003052 37.5999908447 219.449996948 23.6500091553 134.75 -3.60000610352 238.75 -221.100006104 0 rrcurveto
          -51 -229.5 0 -0.850006103516 hvcurveto
          -51.8500061035 -329.649993896 -65 0 rlineto
          106.950012207 -311.449996948 rmoveto
          40.6000061035 254.449996948 131.5 0 9.44999694824 57 -131.5 0 37.75 243 185.5 0 rlineto
          114.150009155 0 42.6999969482 -81.6499938965 -31.549987793 -198.850006104 -23.700012207 -147.800003052 -70.3499908447 -126.149993896 -119.050003052 0 rrcurveto
          endchar
        </CharString>
        <CharString name="Euro">
          204 -6 86 173.5 53 99 66 -58 49 190 87.5 hstemhm
          hintmask 11101000
          66.25 253.5 rmoveto
          84 -7 rlineto
          -36 -226 156.149993896 -26.5 77 0 89 0 86.450012207 11.1000061035 83.3499908447 25.3999938965 rrcurveto
          10.9499969482 68 rlineto
          0 -152.299987793 -18.5 -95.3500061035 vhcurveto
          -88.6000061035 0 -62 29.6000061035 23.3500061035 136.899993896 -3 2 238 5 0 0 rrcurveto
          8.05000305176 53 -232.149993896 7 14.5 92 235 7 8.05000305176 52 -233 7 rlineto
          16.9499816895 95.0500030518 20.8500061035 85.9499969482 144.800003052 0 rrcurveto
          82 156.5 -15 0 hvcurveto
          10.9499969482 71 rlineto
          -69.9499969482 15.8500061035 -122.400009155 15.6499938965 -52 0 -244 0 -24.6999969482 -196.5 -11 -72 rrcurveto
          hintmask 11011000
          -86 -9 -7.89999389648 -49 rlineto
          hintmask 11101000
          83.8500061035 -8 -14.5 -92 -86.8500061035 -7 rlineto
          endchar
        </CharString>
        <CharString name="Euro.smcp">
          6 -5 87.3000030518 115.949996948 51.5 64 48.5 128.75 86 hstem
          45.8000030518 198.25 rmoveto
          64.8500061035 -6 rlineto
          -26.6499938965 -172.850006104 121.850006104 -24.3999938965 68.9499969482 0 65 0 84.0500030518 9.25 63.5999908447 18.75 rrcurveto
          11.8000030518 73.1499938965 rlineto
          0 -126.600006104 -13.8499908447 -81.5 vhcurveto
          -55.1999969482 0 -50.1999969482 15.3999938965 17.0500030518 94.5500030518 -2 2 185.849990845 4 0 0 rrcurveto
          7.75 51.5 -181 5 8.10000610352 53 183 5 8.60000610352 50.5 -181.850006104 6 rlineto
          8.69999694824 46.3999938965 17.6500091553 75.3500061035 102.899993896 0 rrcurveto
          64 133 -11 0 hvcurveto
          10.9499969482 74 rlineto
          -57.8000183105 10.8999938965 -102.699996948 12.1000061035 -41 0 -196.199996948 0 -23.0500030518 -147.100006104 -9.44999694824 -60.6499938965 rrcurveto
          -66.8500061035 -7 -6.89999389648 -48.5 64 -6 -8.10000610352 -53 -66.8500061035 -5 rlineto
          endchar
        </CharString>
        <CharString name="F">
          56 21 -21 21 -21 315.350006104 94.3000030518 -84.450012207 74.3000030518 242.75 89.75 -89.75 73.75 hstemhm
          hintmask 10100000
          74 hmoveto
          92 0 49.8000030518 315.350006104 rlineto
          hintmask 00010000
          319 9.85000610352 11.3999938965 74.3000030518 rlineto
          hintmask 00101000
          -315 10.1499938965 27.3999938965 176.600006104 rlineto
          4 27 8.39999389648 29 48.6000061035 0 rrcurveto
          hintmask 00000100
          306.5 0 11.3999938965 73.75 rlineto
          hintmask 10101000
          -17.25 2.39999389648 -295.25 13.6000061035 0 0 -78.1000061035 3.39999389648 -62.049987793 -36 -17.0500030518 -104.899993896 rrcurveto
          endchar
        </CharString>
        <CharString name="G">
          100 -6.69999694824 89.6000061035 228.099990845 85.5 -85.5 60.5 280.149993896 87.5 hstemhm
          499.449996948 69 hintmask 11011000
          113.399993896 373.449996948 rmoveto
          -29.9499969482 -175.700012207 27.1500091553 -205.550003052 189.449996948 1.10000610352 76.5999908447 0.75 74.950012207 31.5500030518 32.299987793 30.1999969482 rrcurveto
          15.5500030518 -55.8000030518 69 0 62.3500061035 393.5 rlineto
          -23.9999847412 2 -22.1500091553 1 -21 0 rrcurveto
          hintmask 10111000
          -78.75 0 -57.1999969482 -12.0500030518 -43.0500030518 -12.9499969482 rrcurveto
          -9.64999389648 -60.5 rlineto
          hintmask 11011000
          151 0 -30.6999969482 -174.449996948 rlineto
          1.52587890625e-05 1.52587890625e-05 -101.150009155 -53.6500091553 -75.5999908447 0 -112.650009155 -0.849990844727 -23.9499969482 120.25 26 163.149993896 42.1500091553 283.699996948 98.6499938965 3.35000610352 64.1000061035 -0.850006103516 58.1499938965 -0.849990844727 123.149993896 -6.69999694824 51.9000091553 -7.65000915527 rrcurveto
          10.3999938965 72.1999969482 rlineto
          -77.1500091553 16.6000061035 -98.4000091553 14.75 -65.5 -0.850006103516 rrcurveto
          -199 0 -62.9499969482 -131.849990845 -40.0500030518 -233.850006104 rrcurveto
          endchar
        </CharString>
        <CharString name="Gbreve">
          100 -6.69999694824 89.6000061035 228.099990845 60.5 -60.5 85.5 255.149993896 87.5 60.0360107422 48.8500061035 hstemhm
          336.833999634 49.1499938965 113.466003418 69 -53.3159942627 49.1499938965 hintmask 00001101
          336.833984375 912.885742188 rmoveto
          38 callsubr
          hintmask 10110010
          -272.583984375 -539.435546875 rmoveto
          39 callsubr
          hintmask 11010010
          40 callsubr
          hintmask 10110010
          41 callsubr
          endchar
        </CharString>
        <CharString name="Gcircumflex">
          100 -6.69999694824 89.6000061035 228.099990845 60.5 -60.5 85.5 255.149993896 87.5 60.0360107422 131.5 hstemhm
          284.554000854 296.5 -81.6040039062 69 hintmask 00001100
          284.553710938 799.185546875 rmoveto
          -61 callsubr
          hintmask 10110010
          -306.75390625 -557.235351562 rmoveto
          39 callsubr
          hintmask 11010010
          40 callsubr
          hintmask 10110010
          41 callsubr
          endchar
        </CharString>
        <CharString name="Gcommaaccent">
          100 -255.199996948 32.8500061035 215.649993896 89.6000061035 228.099990845 60.5 -60.5 85.5 255.149993896 87.5 hstemhm
          263.354995728 118.350006104 117.744995117 69 hintmask 10000100
          263.35546875 -255.200195312 rmoveto
          0 0 90.224609375 -20.115234375 14.1748046875 89.4150390625 rrcurveto
          13.9501953125 89.1005859375 rlineto
          1.7998046875 13.5 -2.8349609375 10.7998046875 -16.2001953125 0 rrcurveto
          -54 hlineto
          -14.3994140625 0 -9.765625 -8.099609375 -2.69921875 -16.2001953125 rrcurveto
          -8.55078125 -56.7001953125 rlineto
          -2.69921875 -15.2998046875 9 -7.2001953125 12.599609375 0 rrcurveto
          9.900390625 0 -3.1953125 -19.7998046875 rlineto
          -1.7998046875 -9.765625 -3.330078125 -17.6845703125 -27 0.900390625 rrcurveto
          hintmask 01011010
          -155.129882812 595.799804688 rmoveto
          39 callsubr
          hintmask 01101010
          40 callsubr
          hintmask 01011010
          41 callsubr
          endchar
        </CharString>
        <CharString name="Gdotaccent">
          100 -6.69999694824 89.6000061035 228.099990845 60.5 -60.5 85.5 255.149993896 87.5 60.8500061035 108 hstemhm
          389.649993896 112.899993896 -3.09999084473 69 hintmask 00001100
          389.650390625 823 rmoveto
          8 callsubr
          hintmask 10110010
          -286.149414062 -509.549804688 rmoveto
          39 callsubr
          hintmask 11010010
          40 callsubr
          hintmask 10110010
          41 callsubr
          endchar
        </CharString>
        <CharString name="H">
          128 21 -21 21 -21 309.5 89 333.5 -20 hstemhm
          hintmask 10110000
          79 hmoveto
          92 0 49.6499938965 309.5 323 0 -49.6499938965 -309.5 92 0 116 732 -92 0 -53.6499938965 -333.5 -323 0 53.6499938965 333.5 -92 0 rlineto
          endchar
        </CharString>
        <CharString name="Hbar">
          135 21 -21 21 -21 310.350006104 89.8500061035 116.649993896 57.8500061035 157.299987793 -20 hstemhm
          hintmask 10111000
          79.1499938965 hmoveto
          92 0 50.5 310.350006104 323 0 -50.5 -310.350006104 92 0 82 516.850006104 59.8999938965 0 8.44999694824 57.8500061035 -59.8999938965 0 25.5500030518 157.300003052 -92 0 -25.5500030518 -157.300003052 -323 0 25.5500030518 157.300003052 -92 0 rlineto
          -25.5500030518 -157.300003052 -61.6000061035 0 -8.44999694824 -57.8500061035 61.6000061035 0 rlineto
          73.200012207 -116.650009155 rmoveto
          18.8000030518 116.649993896 323 0 -18.8000030518 -116.649993896 rlineto
          endchar
        </CharString>
        <CharString name="Hcircumflex">
          128 0 21 288.5 89 313.5 20 65 131.5 hstem
          310.63999939 296.5 vstem
          310.639648438 797 rmoveto
          -21 callsubr
          -367.240234375 -928.5 rmoveto
          92 0 49.650390625 309.5 323 0 -49.650390625 -309.5 92 0 116 732 -92 0 -53.650390625 -333.5 -323 0 53.650390625 333.5 -92 0 rlineto
          endchar
        </CharString>
        <CharString name="I">
          -277 21 -21 21 -21 732 -20 hstemhm
          83.25 208 hintmask 10110000
          83.25 hmoveto
          -92 callsubr
          endchar
        </CharString>
        <CharString name="Iacute">
          -277 0 21 691 20 65 134.5 hstemhm
          83.25 208 -73.0350036621 226.300003052 hintmask 00101000
          218.21484375 797 rmoveto
          -49 callsubr
          hintmask 11010000
          -258.764648438 -931.5 rmoveto
          -92 callsubr
          endchar
        </CharString>
        <CharString name="Icircumflex">
          -277 0 21 691 20 65 131.5 hstemhm
          83.25 208 -183.859802246 296.5 hintmask 00101000
          107.390625 797 rmoveto
          -47 callsubr
          hintmask 11010000
          -159.740234375 -928.5 rmoveto
          -92 callsubr
          endchar
        </CharString>
        <CharString name="Idieresis">
          -277 0 21 691 20 65 105.5 hstemhm
          83.25 208 -207.340103149 105.5 149.5 105.5 hintmask 00101100
          83.91015625 850.25 rmoveto
          -46 callsubr
          255 hmoveto
          -46 callsubr
          hintmask 11010000
          -255.66015625 -850.25 rmoveto
          -92 callsubr
          endchar
        </CharString>
        <CharString name="Idotaccent">
          -277 0 21 691 20 65 108 hstemhm
          83.25 208 -83.6739959717 112.899993896 hintmask 00101000
          207.576171875 820 rmoveto
          8 callsubr
          hintmask 11010000
          -134.225585938 -880 rmoveto
          -92 callsubr
          endchar
        </CharString>
        <CharString name="Idotaccent.smcp">
          -288 21 -21 21 -21 629 108 hstemhm
          152.199996948 112.899993896 hintmask 10110000
          55.3500061035 hmoveto
          63 callsubr
          hintmask 00110000
          6.85018920898 82 rmoveto
          8 callsubr
          endchar
        </CharString>
        <CharString name="Igrave">
          -277 0 21 691 20 65 134.5 hstemhm
          83.25 208 -191.934799194 193.899993896 hintmask 00101000
          99.3154296875 931.5 rmoveto
          -65 callsubr
          hintmask 11010000
          -111.765625 -931.5 rmoveto
          -92 callsubr
          endchar
        </CharString>
        <CharString name="Imacron">
          -277 0 21 691 20 60.75 67.5 hstemhm
          42.4499969482 208 -191.349990845 302.75 hintmask 00101000
          59.099609375 792.75 rmoveto
          -75 callsubr
          hintmask 11010000
          -27.3994140625 -860.25 rmoveto
          -92 callsubr
          endchar
        </CharString>
        <CharString name="Iogonek">
          -277 -182.284133911 64.5 98 20 -0.215866088867 21 691 20 hstemhm
          83.25 208 hintmask 00000000
          hintmask 11000000
          110.659179688 0.2158203125 rmoveto
          -158.03515625 -66.099609375 61.0859375 -135.100585938 115.779296875 18.7001953125 rrcurveto
          10.5888671875 64.5 rlineto
          -76.0205078125 -4.2998046875 -1.6484375 56.5498046875 91.7041015625 65.75 rrcurveto
          hintmask 00111000
          -70.86328125 -0.2158203125 rmoveto
          -92 callsubr
          endchar
        </CharString>
        <CharString name="Itilde">
          -277 0 21 691 20 65.8500061035 75.3999938965 -41.25 75.3999938965 hstemhm
          83.25 208 hintmask 00010000
          92.419921875 841.900390625 rmoveto
          -60 callsubr
          hintmask 00100000
          49 callsubr
          hintmask 00010000
          -58 callsubr
          hintmask 11001000
          -9.169921875 -841.900390625 rmoveto
          -92 callsubr
          endchar
        </CharString>
        <CharString name="J">
          -151 21.6000061035 69 641.399993896 -20 hstem
          35.75 21.6000061035 rmoveto
          47 -34 112.25 -3.60000610352 58 34 55 32 13.3000030518 68 7 47 rrcurveto
          90 567 -92 0 -87.3000030518 -550.350006104 rlineto
          -19.6499938965 -125.449996948 -92.8500061035 19.1000061035 -76.1000061035 15.3000030518 rrcurveto
          endchar
        </CharString>
        <CharString name="Jcircumflex">
          -151 21.6000061035 69 621.399993896 20 65 131.5 hstem
          234.440002441 296.5 vstem
          234.440429688 797 rmoveto
          -47 callsubr
          -334.290039062 -906.900390625 rmoveto
          47 -34 112.25 -3.599609375 58 34 55 32 13.2998046875 68 7 47 rrcurveto
          90 567 -92 0 -87.2998046875 -550.349609375 rlineto
          -19.650390625 -125.450195312 -92.849609375 19.099609375 -76.099609375 15.2998046875 rrcurveto
          endchar
        </CharString>
        <CharString name="K">
          75 21 -21 21 -21 322.5 87.5 322 -20 hstemhm
          hintmask 10110000
          74.75 hmoveto
          91.5 0 50.8000030518 322.5 84.6999969482 0 158.649993896 -322.5 108.350006104 0 -181.25 360.050003052 297.25 371.949996948 -113.149993896 0 -263 -322 -78.4499969482 0 51.1000061035 322 -90.5 0 rlineto
          endchar
        </CharString>
        <CharString name="Kcommaaccent">
          75 -250.199996948 32.8500061035 217.349990845 21 301.5 87.5 302 20 hstem
          231.654998779 118.350006104 vstem
          hintmask 00000000
          231.655273438 -250.200195312 rmoveto
          54 callsubr
          -162.080078125 217.349609375 rmoveto
          91.5 0 50.7998046875 322.5 84.7001953125 0 158.650390625 -322.5 108.349609375 0 -181.25 360.049804688 297.25 371.950195312 -113.150390625 0 -263 -322 -78.44921875 0 51.099609375 322 -90.5 0 rlineto
          endchar
        </CharString>
        <CharString name="L">
          23 0 89 643 -20 hstem
          94.5 130.5 rmoveto
          -15.4499969482 -96.8500061035 64.5999908447 -33.6499938965 70.6000061035 0 rrcurveto
          306.199996948 0 13.5500030518 89 -291 0 rlineto
          -29 0 -33.8500061035 -1 8 53 rrcurveto
          94.4499969482 591 -91.1499938965 0 rlineto
          endchar
        </CharString>
        <CharString name="Lacute">
          23 0 89 623 20 60 134.5 hstem
          150.25 226.300003052 vstem
          150.25 792 rmoveto
          -49 callsubr
          -238.399414062 -796 rmoveto
          -15.4501953125 -96.849609375 64.599609375 -33.650390625 70.6005859375 0 rrcurveto
          306.19921875 0 13.55078125 89 -291 0 rlineto
          -29 0 -33.8505859375 -1 8 53 rrcurveto
          94.4501953125 591 -91.150390625 0 rlineto
          endchar
        </CharString>
        <CharString name="Lcaron">
          23 0 89 643 -20 hstem
          336.449996948 59 vstem
          94.5 130.5 rmoveto
          -15.4499969482 -96.8500061035 64.5930023193 -33.6499938965 70.6069946289 0 rrcurveto
          306.199996948 0 13.5500030518 89 -291 0 rlineto
          -29 0 -33.8500061035 -1 8 53 rrcurveto
          94.4499969482 591 -91.1499938965 0 rlineto
          144.999984741 -161 rmoveto
          59 0 31 134 10.8500061035 67 -80 0 -10.8500061035 -67 rlineto
          endchar
        </CharString>
        <CharString name="Lcommaaccent">
          23 -250.199996948 32.8500061035 217.349990845 89 623 20 hstem
          230.054992676 118.350006104 vstem
          hintmask 00000000
          230.0546875 -250.200195312 rmoveto
          50 callsubr
          -140.73046875 347.849609375 rmoveto
          -15.4501953125 -96.849609375 64.6005859375 -33.650390625 70.599609375 0 rrcurveto
          306.200195312 0 13.5498046875 89 -291 0 rlineto
          -29 0 -33.849609375 -1 8 53 rrcurveto
          94.44921875 591 -91.1494140625 0 rlineto
          endchar
        </CharString>
        <CharString name="Lslash">
          23 0 89 643 -20 hstem
          40.1000061035 315.949996948 rmoveto
          88.3500061035 36.1000061035 -35.5 -221.550003052 rlineto
          -15.450012207 -96.8500061035 64.7429962158 -33.6499938965 70.6070098877 0 rrcurveto
          305.350006104 0 14.25 89 -291.850006104 0 rlineto
          -29 0 -33 -1 8 53 rrcurveto
          40.0500030518 250.699996948 139.350006104 56.6999969482 11.3000030518 63.1499938965 -141.050003052 -56.6999969482 43.9499969482 277.149993896 -91.1499938965 0 -50.1499938965 -316.800003052 -88.3500061035 -35.25 rlineto
          endchar
        </CharString>
        <CharString name="M">
          299 21 -21 21 -21 732 -20 hstemhm
          hintmask 10100000
          65 hmoveto
          92.3000030518 0 130.350006104 568.149993896 84.3000030518 -568.149993896 98.6499938965 0 261.149993896 569 -47.1999969482 -569 91.5500030518 0 56.5500030518 732 -127.100006104 0 -263.699996948 -579.300003052 -86.25 579.300003052 -122.100006104 0 rlineto
          endchar
        </CharString>
        <CharString name="M.salt">
          305 21 -21 21 -21 hstemhm
          hintmask 10000000
          51.3999938965 hmoveto
          91 0 136.350006104 622.649993896 rlineto
          4.69999694824 22.950012207 21.75 -4.05000305176 1.40000915527 -16.1500091553 rrcurveto
          43.5 -362.600006104 rlineto
          11.5 -116.249984741 149.899993896 4.59999084473 36 95.9000091553 rrcurveto
          151.899993896 381.800003052 rlineto
          6.40000915527 16 24.3000030518 -4.05000305176 -2.85000610352 -17 rrcurveto
          -54.0500030518 -623.800003052 94 0 53.5 641.75 rlineto
          9.34999084473 112.899993896 -173.5 18.8500061035 -40.5 -107.350006104 rrcurveto
          -151.050003052 -385.649993896 rlineto
          -5.39999389648 -15.1499938965 -18.4000091553 -4 -2.09999084473 19.1499938965 rrcurveto
          -43.6000061035 367.199996948 rlineto
          -10.5 122.399993896 -174.300003052 -11.9000091553 -19.1499938965 -114 rrcurveto
          endchar
        </CharString>
        <CharString name="N">
          152 21 -21 21 -21 732 -20 hstemhm
          hintmask 10100000
          74.75 hmoveto
          93 0 88.6000061035 560.25 260.800003052 -560.25 88.6000061035 0 116 732 -92 0 -88.75 -561.75 -259.649993896 561.75 -90.6000061035 0 rlineto
          endchar
        </CharString>
        <CharString name="N.salt">
          175 21 -21 21 -21 732 -20 hstemhm
          hintmask 10100000
          74.75 hmoveto
          92.1499938965 0 100.050003052 632.550003052 rlineto
          2.99998474121 17.0000152588 19.75 5.14999389648 3.25 -15.1499938965 rrcurveto
          142.899993896 -555.600006104 rlineto
          25.25 -126.550018311 166.099990845 9.40000915527 18.6999969482 124.449996948 rrcurveto
          98.5 640.75 -92 0 -99.75 -628.600006104 rlineto
          -3.69999694824 -21.799987793 -17.0500030518 0.5 -4.09999084473 18.299987793 rrcurveto
          -146.300003052 565.050003052 rlineto
          -18.75 99.8499908447 -172.199996948 -1.80000305176 -16.4499969482 -122.449996948 rrcurveto
          endchar
        </CharString>
        <CharString name="Nacute">
          152 0 21 691 20 65 134.5 hstem
          429.13999939 226.300003052 vstem
          429.139648438 797 rmoveto
          -62 callsubr
          -478.190429688 -931.5 rmoveto
          -45 callsubr
          endchar
        </CharString>
        <CharString name="Nacute.salt">
          175 0 21 691 20 65.6000061035 134.5 hstem
          452.699996948 226.300003052 vstem
          452.700195312 797.599609375 rmoveto
          -49 callsubr
          -501.75 -932.099609375 rmoveto
          98 callsubr
          endchar
        </CharString>
        <CharString name="Ncaron">
          152 0 21 691 20 65 131.5 hstem
          339.276000977 296.5 vstem
          339.276367188 928.5 rmoveto
          2 callsubr
          -336.42578125 -928.5 rmoveto
          -45 callsubr
          endchar
        </CharString>
        <CharString name="Ncaron.salt">
          175 0 21 691 20 65.6000061035 131.5 hstem
          372.050003052 296.5 vstem
          372.049804688 929.099609375 rmoveto
          81.650390625 -131.5 79.25 0 135.599609375 131.5 -86.2998046875 0 -84.599609375 -78.19921875 -53.7001953125 78.19921875 rlineto
          -369.200195312 -929.099609375 rmoveto
          98 callsubr
          endchar
        </CharString>
        <CharString name="Ncommaaccent">
          152 -250.199996948 32.8500061035 217.349990845 21 691 20 hstem
          274.505004883 118.350006104 vstem
          hintmask 00000000
          274.504882812 -250.200195312 rmoveto
          51 callsubr
          -204.9296875 217.349609375 rmoveto
          -45 callsubr
          endchar
        </CharString>
        <CharString name="Ncommaaccent.salt">
          175 -261.369995117 33.3975067139 227.972488403 21 691 20 hstem
          267.811752319 120.322494507 vstem
          hintmask 00000000
          267.811523438 -261.370117188 rmoveto
          0 0 91.728515625 -20.4501953125 14.412109375 90.9052734375 rrcurveto
          14.181640625 90.5849609375 rlineto
          1.830078125 13.724609375 -2.8818359375 10.98046875 -16.4697265625 0 rrcurveto
          -54.900390625 hlineto
          -14.6396484375 0 -9.927734375 -8.2353515625 -2.7451171875 -16.4697265625 rrcurveto
          -8.6923828125 -57.64453125 rlineto
          -2.7451171875 -15.5556640625 9.1494140625 -7.3193359375 12.810546875 0 rrcurveto
          10.064453125 0 -3.248046875 -20.130859375 rlineto
          -1.830078125 -9.927734375 -3.384765625 -17.9794921875 -27.4501953125 0.9150390625 rrcurveto
          -198.323242188 227.97265625 rmoveto
          98 callsubr
          endchar
        </CharString>
        <CharString name="Ntilde">
          152 0 21 691 20 61.6000061035 75.3999938965 -41.25 75.3999938965 hstemhm
          hintmask 00010000
          296.950195312 837.650390625 rmoveto
          -60 callsubr
          hintmask 00100000
          -59 callsubr
          hintmask 00010000
          -58 callsubr
          hintmask 11000000
          -222.200195312 -837.650390625 rmoveto
          -45 callsubr
          endchar
        </CharString>
        <CharString name="Ntilde.salt">
          175 0 21 691 20 65.8500061035 75.3999938965 -41.25 75.3999938965 hstemhm
          hintmask 00010000
          288.700195312 841.900390625 rmoveto
          -60 callsubr
          hintmask 00100000
          -59 callsubr
          hintmask 00010000
          -58 callsubr
          hintmask 11000000
          -213.950195312 -841.900390625 rmoveto
          98 callsubr
          endchar
        </CharString>
        <CharString name="O">
          156 -4 89 563 89 hstem
          111.850006104 364.75 rmoveto
          -53 -333 124.799987793 -35.75 164.700012207 0 174.049987793 0 112.150009155 38.25 49.3000030518 323 50.5999908447 332.800003052 -111.399993896 46.9499969482 -173.850006104 0 -173.949996948 0 -109.399993896 -29.25 -54 -343 rrcurveto
          92 -3.75 rmoveto
          -91 callsubr
          endchar
        </CharString>
        <CharString name="OE">
          555 -4 89 -71 72.75 229.199996948 94.3000030518 -84.4499969482 74.3000030518 242.149993896 73.75 -68 89 hstemhm
          hintmask 10000000
          99.3500061035 364.75 rmoveto
          -53 -333 124.799987793 -35.75 164.700012207 0 89.4499969482 0 72.8000030518 10.6499938965 56 54.200012207 17.4499969482 -47.950012207 49.8499908447 -18.75 48.3000030518 2.85000610352 rrcurveto
          hintmask 01100000
          0 0 291.75 14.8999938965 15.9000091553 2.10000610352 rrcurveto
          12.25 72.75 -296.5 0 rlineto
          -29 0 -33 -1 7.29998779297 53 rrcurveto
          28.3999938965 177.199996948 rlineto
          hintmask 00010000
          318.699996948 9.85000610352 11.3999938965 74.3000030518 rlineto
          hintmask 00101000
          -314.850006104 10.1499938965 27.25 176 rlineto
          4.00001525879 27 8.39999389648 29 48.6000061035 0 rrcurveto
          306.5 0 11.5500030518 73.75 rlineto
          -17.25 2.39999389648 -295.400009155 13.6000061035 0 0 -58.1999969482 3 -48.4499969482 -13.5 -26.5500030518 -59.4499969482 rrcurveto
          hintmask 10000100
          -41.4499969482 61.8499908447 -73.1500091553 13.1000061035 -91.1999969482 0 rrcurveto
          -173.949996948 0 -109.399993896 -29.25 -54 -343 rrcurveto
          92 -3.75 rmoveto
          -91 callsubr
          endchar
        </CharString>
        <CharString name="Oacute">
          156 -4 89 563 89 60 134.5 hstem
          421.341995239 226.300003052 vstem
          421.341796875 797 rmoveto
          -49 callsubr
          -433.291992188 -566.75 rmoveto
          -43 callsubr
          92 -3.75 rmoveto
          -42 callsubr
          endchar
        </CharString>
        <CharString name="Ocircumflex">
          156 -4 89 563 89 60 131.5 hstem
          310.667007446 296.5 vstem
          310.666992188 797 rmoveto
          -47 callsubr
          -334.416992188 -563.75 rmoveto
          -43 callsubr
          92 -3.75 rmoveto
          -42 callsubr
          endchar
        </CharString>
        <CharString name="Odieresis">
          156 -4 89 563 89 60 105.5 hstem
          287.18699646 105.5 149.5 105.5 vstem
          287.186523438 850.25 rmoveto
          -38 callsubr
          255 hmoveto
          -38 callsubr
          -430.336914062 -485.5 rmoveto
          -43 callsubr
          92 -3.75 rmoveto
          -42 callsubr
          endchar
        </CharString>
        <CharString name="Ograve">
          156 -4 89 563 89 60 134.5 hstem
          302.442001343 193.899993896 vstem
          302.442382812 931.5 rmoveto
          -44 callsubr
          -286.291992188 -566.75 rmoveto
          -43 callsubr
          92 -3.75 rmoveto
          -42 callsubr
          endchar
        </CharString>
        <CharString name="Ohungarumlaut">
          156 -4 89 563 89 60 134.5 hstem
          351.067382812 797 rmoveto
          -49 callsubr
          16.8994140625 -134.5 rmoveto
          -62 callsubr
          -503.717773438 -566.75 rmoveto
          -43 callsubr
          92 -3.75 rmoveto
          -42 callsubr
          endchar
        </CharString>
        <CharString name="Omacron">
          156 -4 89 563 89 55.75 67.5 hstem
          319.149993896 302.75 vstem
          319.150390625 792.75 rmoveto
          -75 callsubr
          -218.05078125 -495.5 rmoveto
          -43 callsubr
          92 -3.75 rmoveto
          -42 callsubr
          endchar
        </CharString>
        <CharString name="Omega">
          263 0 80.5 569.5 89 hstem
          66.6499938965 hmoveto
          226 0 15.1000061035 91.5 rlineto
          -118.300003052 107.899993896 3.25 55.3500061035 19.9499969482 125.25 21.200012207 136.300003052 77.3499908447 133.699996948 179.300003052 0 188 0 20.6999969482 -132 -21.0500030518 -133 -19.9499969482 -126.399993896 -19.75 -78.8000030518 -143.199996948 -88.3000030518 rrcurveto
          -15.1000061035 -91.5 234 0 13.1000061035 80.5 -121 10 rlineto
          119.899993896 79.3999938965 25.1500091553 97.6000061035 19 117 29 182 -66.6000061035 172.5 -229.300003052 0 -262 0 -90.049987793 -190.350006104 -28.25 -153.149993896 -14.6000061035 -78.8500061035 -17.1000061035 -133.549987793 117.350006104 -91.6000061035 rrcurveto
          -129 -10 rlineto
          endchar
        </CharString>
        <CharString name="Oslash">
          156 -4 89 563 89 hstem
          61.8000030518 hmoveto
          64.75 0 33.3000030518 40.8500061035 rlineto
          45.1499938965 -38 66.4499969482 -6.85000610352 74.1999969482 0 174.050003052 0 112.150009155 37.5 49.299987793 323 23 150.550003052 -10 95.3499908447 -33.6999969482 55 rrcurveto
          60.3500061035 74.6000061035 -64.75 0 -29.5500030518 -36.9499969482 rlineto
          -43.3000030518 34.2500152588 -63 7.69999694824 -73.5500030518 0 -173.949996948 0 -109.550003052 -28.5 -54 -343 -22.6999969482 -140.199996948 9.55000305176 -91.9000091553 30.8000030518 -53.1499938965 rrcurveto
          74.3499908447 280.75 rmoveto
          44.1500091553 281 69.1999969482 6 126.25 0 51.6999969482 0 44.25 -1.44999694824 28.4499969482 -25.0500030518 rrcurveto
          -367.199996948 -455.149993896 rlineto
          -12.450012207 39.549987793 0.600006103516 61.1000061035 15.049987793 94 rrcurveto
          20.8000030518 -244 rmoveto
          369.850006104 457.399993896 rlineto
          13.6000061035 -41.5999908447 0.100006103516 -65.6000061035 -16.3500061035 -106.199996948 -36.8999938965 -234.899993896 -67.1000061035 -41.1000061035 -133.599990845 0 -60.3000030518 0 -42.8500061035 6.30000305176 -26.4499969482 25.6999969482 rrcurveto
          endchar
        </CharString>
        <CharString name="Otilde">
          156 -4 89 563 89 60.8500061035 75.3999938965 -41.25 75.3999938965 hstemhm
          hintmask 00010000
          295.545898438 841.900390625 rmoveto
          -41 callsubr
          hintmask 00100000
          -40 callsubr
          hintmask 00010000
          -39 callsubr
          hintmask 11000000
          -183.696289062 -477.150390625 rmoveto
          -43 callsubr
          92 -3.75 rmoveto
          -42 callsubr
          endchar
        </CharString>
        <CharString name="P">
          85 21 -21 21 -21 290.5 87.5 -70.0500030518 70.0500030518 265.5 88.5 hstemhm
          hintmask 10011000
          70.3500061035 hmoveto
          92 0 49.6499938965 307.949996948 rlineto
          hintmask 10101000
          5 -3.00001525879 166 -14 40 -0.449996948242 76.5500030518 -1.05000305176 109.800003052 -4.19999694824 31.8999938965 226.5 23.8000030518 171.199996948 -90.25 49.0500030518 -82.4499969482 0 rrcurveto
          -306 hlineto
          hintmask 00011000
          35.8999938965 -354 rmoveto
          42 265.5 211 0 rlineto
          38.3999938965 0 51.950012207 -8.85000610352 -17.3500061035 -118.849990845 rrcurveto
          hintmask 00101000
          -19.0500030518 -120.699996948 -46.8999938965 -17.1000061035 -49.9000091553 0 rrcurveto
          endchar
        </CharString>
        <CharString name="Q">
          160 -144.25 89 51.25 89 563 89 hstem
          115.25 365.5 rmoveto
          -53 -333 124.800003052 -36.5 164.699996948 0 174.050003052 0.300003051758 112.149993896 37.1999969482 49.3000030518 323 50.6000061035 332.800003052 -111.400009155 47.6999969482 -173.849990845 0 -173.950012207 0 -109.399993896 -28.5 -54 -343 rrcurveto
          92 -4.5 rmoveto
          44.1499938965 281 69.200012207 6 126.25 0 119.049987793 0 73.3500061035 -7.35000610352 -44 -279.649993896 -36.8999938965 -234.899993896 -67.25 -41.1000061035 -133.600006104 0 -142.199996948 0 -46.5 34.6000061035 38.4499969482 241.399993896 rrcurveto
          97.3999938965 -394 rmoveto
          -3.44999694824 -107.649993896 128.150009155 -29.25 83.6499938965 25.6499938965 rrcurveto
          14.3500061035 89 rlineto
          -61.1500091553 -19.6499938965 -55.8999938965 -4.65000915527 -46.1500091553 46.5500030518 rrcurveto
          endchar
        </CharString>
        <CharString name="R">
          98 21 -21 21 -21 302.75 76.3000030518 264.449996948 88.5 hstemhm
          hintmask 10110000
          70.3500061035 hmoveto
          92 0 48.1000061035 302.75 180.5 -12.5 95.3999938965 -290.25 102 0 -105.399993896 298.25 rlineto
          30.799987793 4.30000305176 105.449996948 14.1499938965 20.3500061035 189.300003052 18.8000030518 169.25 -69 56.75 -91.75 0 rrcurveto
          -311.25 hlineto
          37.049987793 -352.949996948 rmoveto
          41.8500061035 264.449996948 214.5 0 rlineto
          50.8000030518 0 26.3999938965 -14.9499969482 -10.3999938965 -118.800003052 -8.85000610352 -99.6000061035 -49.6499938965 -31.0999908447 -54.4000091553 0 rrcurveto
          endchar
        </CharString>
        <CharString name="Racute">
          98 0 21 281.75 76.3000030518 264.449996948 88.5 64.25 134.5 hstem
          378.315002441 226.300003052 vstem
          378.315429688 796.25 rmoveto
          -49 callsubr
          -433.565429688 -930.75 rmoveto
          16 callsubr
          37.0498046875 -352.950195312 rmoveto
          41.8505859375 264.450195312 214.5 0 rlineto
          50.7998046875 0 26.400390625 -14.9501953125 -10.400390625 -118.799804688 -8.849609375 -99.599609375 -49.650390625 -31.1005859375 -54.400390625 0 rrcurveto
          endchar
        </CharString>
        <CharString name="Rcaron">
          98 0 21 281.75 76.3000030518 264.449996948 88.5 65 131.5 hstem
          295.550994873 296.5 vstem
          295.55078125 928.5 rmoveto
          11 callsubr
          -297.1015625 -928.5 rmoveto
          16 callsubr
          37.05078125 -352.950195312 rmoveto
          20 callsubr
          endchar
        </CharString>
        <CharString name="Rcommaaccent">
          98 -250.199996948 32.8500061035 217.349990845 21 281.75 76.3000030518 264.449996948 88.5 hstem
          248.705001831 118.350006104 vstem
          hintmask 00000000
          248.705078125 -250.200195312 rmoveto
          0 0 90.224609375 -20.115234375 14.17578125 89.4150390625 rrcurveto
          13.94921875 89.1005859375 rlineto
          1.80078125 13.5 -2.8359375 10.7998046875 -16.19921875 0 rrcurveto
          -54 hlineto
          -14.400390625 0 -9.7646484375 -8.099609375 -2.7001953125 -16.2001953125 rrcurveto
          -8.5498046875 -56.7001953125 rlineto
          -2.7001953125 -15.2998046875 9 -7.2001953125 12.599609375 0 rrcurveto
          9.900390625 0 -3.1953125 -19.7998046875 rlineto
          -1.7998046875 -9.765625 -3.330078125 -17.6845703125 -27 0.900390625 rrcurveto
          -183.530273438 217.349609375 rmoveto
          16 callsubr
          37.05078125 -352.950195312 rmoveto
          20 callsubr
          endchar
        </CharString>
        <CharString name="S">
          63 -8 89 232.75 92 243.25 89 hstem
          76.75 17.5 rmoveto
          44 -11.0500030518 119.695007324 -14.4499969482 86.3049926758 0 84.5500030518 0 125.849990845 11.1000061035 21.450012207 157.399993896 rrcurveto
          9.64999389648 67.25 rlineto
          12.5500030518 81.6999969482 -19.6999969482 96.3000030518 -127.350006104 0 rrcurveto
          -129.25 hlineto
          -53.1499938965 0 -44.8000030518 -5.10000610352 15.1999969482 95.6000061035 rrcurveto
          8.80000305176 57.75 rlineto
          13.8000183105 87.8999938965 44.6499938965 10.5 72.6999969482 -3.39999389648 9.90000915527 0 183.299987793 -8.10000610352 51.950012207 -1.04998779297 rrcurveto
          11.25 72.8000030518 rlineto
          -56.4000091553 10.8500061035 -128.849990845 13.3999938965 -67.25 1.10000610352 -108.600006104 2.94999694824 -93.8999938965 -25.3999938965 -24.25 -154.350006104 rrcurveto
          -10.1499938965 -68.6999969482 rlineto
          -11.1250152588 -70.8170013428 3.07499694824 -107.932998657 162.100006104 0 rrcurveto
          128.649993896 hlineto
          71.200012207 0 1.89999389648 -37.1000061035 -8.39999389648 -52.799987793 rrcurveto
          -9.64999389648 -60.1999969482 rlineto
          -11.8000183105 -76.75 -78.3499908447 -5.89999389648 -41.3000030518 0 -93 0 -111.600006104 4.44999694824 -42.3999938965 5.69999694824 rrcurveto
          endchar
        </CharString>
        <CharString name="Sacute">
          63 -8 89 232.75 92 243.25 89 60.1499938965 134.5 hstem
          367.75 226.300003052 vstem
          367.75 798.150390625 rmoveto
          -49 callsubr
          -425 -915.150390625 rmoveto
          44 -11.0498046875 119.6953125 -14.4501953125 86.3046875 0 84.5498046875 0 125.850585938 11.099609375 21.4501953125 157.400390625 rrcurveto
          9.6494140625 67.25 rlineto
          12.5498046875 81.7001953125 -19.69921875 96.2998046875 -127.350585938 0 rrcurveto
          -129.25 hlineto
          -53.1494140625 0 -44.80078125 -5.099609375 15.2001953125 95.599609375 rrcurveto
          8.7998046875 57.75 rlineto
          13.80078125 87.900390625 44.6494140625 10.5 72.7001953125 -3.400390625 9.900390625 0 183.299804688 -8.099609375 51.9501953125 -1.05078125 rrcurveto
          11.25 72.80078125 rlineto
          -56.400390625 10.849609375 -128.849609375 13.400390625 -67.25 1.099609375 -108.600585938 2.9501953125 -93.8994140625 -25.400390625 -24.25 -154.349609375 rrcurveto
          -10.150390625 -68.7001953125 rlineto
          -11.125 -70.8173828125 3.0751953125 -107.932617188 162.099609375 0 rrcurveto
          128.650390625 hlineto
          71.2001953125 0 1.8994140625 -37.099609375 -8.3994140625 -52.80078125 rrcurveto
          -9.650390625 -60.19921875 rlineto
          -11.7998046875 -76.75 -78.3505859375 -5.900390625 -41.2998046875 0 -93 0 -111.599609375 4.4501953125 -42.400390625 5.7001953125 rrcurveto
          endchar
        </CharString>
        <CharString name="Scaron">
          63 -8 89 232.75 92 243.25 89 60.4680023193 131.5 hstem
          294.651000977 296.5 vstem
          294.651367188 929.967773438 rmoveto
          2 callsubr
          -289.80078125 -912.467773438 rmoveto
          3 callsubr
          endchar
        </CharString>
        <CharString name="Scedilla">
          63 -182.5 43.3000030518 131.199996948 89 232.75 92 243.25 89 hstem
          277.699996948 74.5 vstem
          173.549804688 -182.5 rmoveto
          4 callsubr
          -103.849609375 156.700195312 rmoveto
          3 callsubr
          endchar
        </CharString>
        <CharString name="Scircumflex">
          63 -8 89 232.75 92 243.25 89 60.4680023193 131.5 hstem
          261.089996338 296.5 vstem
          261.08984375 798.467773438 rmoveto
          -61 callsubr
          -319.940429688 -912.467773438 rmoveto
          3 callsubr
          endchar
        </CharString>
        <CharString name="T">
          71 21 -21 21 -21 643 89 hstemhm
          hintmask 10100000
          134.350006104 643 rmoveto
          209.5 0 -101.600006104 -643 92 0 101.600006104 643 215.5 0 14.3999938965 89 -517 0 rlineto
          endchar
        </CharString>
        <CharString name="Tbar">
          74 21 -21 21 -21 384 57 202 89 hstemhm
          hintmask 10110000
          134.350006104 643 rmoveto
          209.5 0 -32.0500030518 -202 -114 0 -8.60000610352 -57 114 0 -60.9499969482 -384 92 0 60.9499969482 384 114 0 8.60000610352 57 -114 0 32.0500030518 202 215.5 0 14.3999938965 89 -517 0 rlineto
          endchar
        </CharString>
        <CharString name="Tcaron">
          71 0 21 622 89 65 131.5 hstem
          290.201004028 296.5 vstem
          290.201171875 928.5 rmoveto
          5 callsubr
          -227.750976562 -285.5 rmoveto
          6 callsubr
          endchar
        </CharString>
        <CharString name="Tcommaaccent">
          71 -184.399993896 43.3000030518 141.099990845 21 622 89 hstem
          224.199996948 74.5 vstem
          120.049804688 -184.400390625 rmoveto
          52.5 hlineto
          81.7998046875 0 28.3505859375 35.5 16 102 rrcurveto
          -74.5 hlineto
          -6 -38 -8.5 -29.19921875 -30 -12 rrcurveto
          -52.6005859375 -15 rlineto
          -13.19921875 784.099609375 rmoveto
          209.5 0 -101.600585938 -643 92 0 101.600585938 643 215.5 0 14.3994140625 89 -517 0 rlineto
          endchar
        </CharString>
        <CharString name="Thorn">
          42 21 -21 21 -21 153.25 87.5 258.899993896 88.3500061035 hstemhm
          hintmask 10110000
          56.1000061035 hmoveto
          92 0 27.8500061035 173.100006104 rlineto
          58.6999816895 -21 83.450012207 0.849990844727 40.8999938965 0.300003051758 85.0500030518 0.449996948242 96.5 10.25 26.0500030518 209.100006104 22.8999938965 179.849990845 -101.199996948 35.1000061035 -63.6999969482 0 rrcurveto
          -183.5 0 22 141 -92 0 rlineto
          -38 -243 -39 -243 -38 -243 rrcurveto
          130.099990845 240.75 rmoveto
          40.8000030518 258.899993896 171.5 0 rlineto
          31.5 0 60.1000061035 -4.39999389648 -17.3500061035 -119 -19.1999969482 -121.300003052 -37.0500030518 -14.1999969482 -58.8000030518 0 rrcurveto
          endchar
        </CharString>
        <CharString name="U">
          145 -5 89 648 -20 hstem
          122.350006104 309.199996948 rmoveto
          -37.700012207 -237.800018311 92.6500091553 -76.3999938965 159.800003052 0 224.699996948 0 59.6499938965 135.199996948 27.1999969482 170 rrcurveto
          66.8000030518 431.800003052 -93 0 -67.5500030518 -427.300003052 rlineto
          -25.8999938965 -164.800018311 -58.75 -55.8999938965 -123.850006104 0 -116.25 0 -43.1499938965 45.1000061035 27.75 175.599990845 rrcurveto
          67.5500030518 427.300003052 -92.8500061035 0 rlineto
          endchar
        </CharString>
        <CharString name="Uacute">
          145 -5 89 628 20 65 134.5 hstem
          425.339996338 226.300003052 vstem
          425.33984375 797 rmoveto
          -49 callsubr
          -426.790039062 -622.299804688 rmoveto
          -37 callsubr
          endchar
        </CharString>
        <CharString name="Ubreve">
          145 -5 89 628 20 65 48.8500061035 hstem
          367.246002197 49.1499938965 129.150009155 49.1499938965 vstem
          367.24609375 910.700195312 rmoveto
          -6 -73.1005859375 52.650390625 -40.599609375 55.3994140625 0 69.2998046875 0 45.8505859375 34.650390625 10.25 79.0498046875 rrcurveto
          -49.150390625 hlineto
          -7.099609375 -47.5498046875 -26.75 -18.150390625 -42.25 0.849609375 -32.8505859375 0 -25.75 23.80078125 5.55078125 41.0498046875 rrcurveto
          -294.046875 -601.5 rmoveto
          -37 callsubr
          endchar
        </CharString>
        <CharString name="Ucircumflex">
          145 -5 89 628 20 65 131.5 hstem
          314.664993286 296.5 vstem
          314.665039062 797 rmoveto
          -47 callsubr
          -327.915039062 -619.299804688 rmoveto
          -37 callsubr
          endchar
        </CharString>
        <CharString name="Udieresis">
          145 -5 89 628 20 65 105.5 hstem
          291.184997559 105.5 149.5 105.5 vstem
          291.184570312 850.25 rmoveto
          -38 callsubr
          255 hmoveto
          -38 callsubr
          -423.834960938 -541.049804688 rmoveto
          -37 callsubr
          endchar
        </CharString>
        <CharString name="Ugrave">
          145 -5 89 628 20 65 134.5 hstem
          306.440002441 193.899993896 vstem
          306.440429688 931.5 rmoveto
          -44 callsubr
          -279.790039062 -622.299804688 rmoveto
          -37 callsubr
          endchar
        </CharString>
        <CharString name="Uhungarumlaut">
          145 -5 89 628 20 65 134.5 hstem
          355.065429688 797 rmoveto
          -49 callsubr
          16.8994140625 -134.5 rmoveto
          -62 callsubr
          -497.215820312 -622.299804688 rmoveto
          -37 callsubr
          endchar
        </CharString>
        <CharString name="Umacron">
          145 -5 89 628 20 65 67.5 hstem
          316.908004761 302.75 vstem
          316.908203125 797 rmoveto
          -75 callsubr
          -205.30859375 -555.299804688 rmoveto
          -37 callsubr
          endchar
        </CharString>
        <CharString name="Uogonek">
          145 -181.5 64.5 98 20 -6 89 628 20 hstemhm
          hintmask 11000000
          317.5 1 rmoveto
          19 callsubr
          hintmask 00110000
          -238.650390625 308.200195312 rmoveto
          -37 callsubr
          endchar
        </CharString>
        <CharString name="Uring">
          145 -5 89 628 20 65 50.8500061035 102.699996948 50.6999969482 hstem
          377.479003906 203 vstem
          377.478515625 898.700195312 rmoveto
          -4.98828125 -57 42.50390625 -44.7001953125 56 0 56 0 48.49609375 44.7001953125 4.98828125 57 4.98828125 57 -41.2783203125 45.5498046875 -56 0 -56 0 -49.7216796875 -45.5498046875 -4.98828125 -57 rrcurveto
          50.150390625 hmoveto
          21 callsubr
          -305.279296875 -589.5 rmoveto
          -37 callsubr
          endchar
        </CharString>
        <CharString name="Utilde">
          145 -5 89 628 20 65.8500061035 75.3999938965 -41.25 75.3999938965 hstemhm
          hintmask 00010000
          299.543945312 841.900390625 rmoveto
          55 callsubr
          hintmask 00100000
          -40 callsubr
          hintmask 00010000
          -39 callsubr
          hintmask 11000000
          -177.194335938 -532.700195312 rmoveto
          -37 callsubr
          endchar
        </CharString>
        <CharString name="V">
          164 21 -21 21 -21 732 -20 hstemhm
          hintmask 10100000
          147 732 rmoveto
          133.5 -732 98 0 377.5 732 -104.350006104 0 -303.300003052 -595.149993896 -104.449996948 595.149993896 rlineto
          endchar
        </CharString>
        <CharString name="W">
          494 21 -21 21 -21 732 -20 hstemhm
          hintmask 10100000
          147 732 rmoveto
          133.5 -732 99.0500030518 0 181.25 354.050003052 57.1000061035 -354.050003052 96.8000030518 0 371.5 732 -99.4499969482 0 -300.949996948 -597.050003052 -56.75 358.550003052 120.100006104 238.5 -102 0 -300.199996948 -591.949996948 -105.600006104 591.949996948 rlineto
          endchar
        </CharString>
        <CharString name="Wacute">
          494 0 21 691 20 65 134.5 hstem
          589.565002441 226.300003052 vstem
          589.565429688 797 rmoveto
          -49 callsubr
          -566.365234375 -199.5 rmoveto
          95 callsubr
          endchar
        </CharString>
        <CharString name="Wcircumflex">
          494 0 21 691 20 65 131.5 hstem
          472.440002441 296.5 vstem
          472.440429688 797 rmoveto
          -47 callsubr
          -461.040039062 -196.5 rmoveto
          95 callsubr
          endchar
        </CharString>
        <CharString name="Wdieresis">
          494 0 21 691 20 65 105.5 hstem
          456.759994507 105.5 149.5 105.5 vstem
          456.759765625 850.25 rmoveto
          -48 callsubr
          255 hmoveto
          -48 callsubr
          -564.759765625 -118.25 rmoveto
          95 callsubr
          endchar
        </CharString>
        <CharString name="Wgrave">
          494 0 21 691 20 65 134.5 hstem
          470.664993286 193.899993896 vstem
          470.665039062 931.5 rmoveto
          -55 callsubr
          -419.365234375 -199.5 rmoveto
          95 callsubr
          endchar
        </CharString>
        <CharString name="X">
          102 21 -21 21 -21 732 -20 hstemhm
          hintmask 10100000
          36.5 hmoveto
          107.899993896 0 206.800003052 275.899993896 119.300003052 -275.899993896 98.5500030518 0 -156.100006104 353.199996948 283.050003052 378.800003052 -107.899993896 0 -215.199996948 -288 -124.850006104 288 -98.5500030518 0 161.5 -365.149993896 rlineto
          endchar
        </CharString>
        <CharString name="X.salt">
          115 21 -21 21 -21 732 -20 hstemhm
          hintmask 10100000
          18.6499938965 hmoveto
          108.649993896 0 203.899993896 279.050003052 rlineto
          43.3499908447 56.950012207 -12.3000030518 94.5 -24.8000030518 55 rrcurveto
          -105 246.5 -97.8000030518 0 118 -273.5 rlineto
          25.8000030518 -61.5 2.35000610352 -29.1999969482 -43.6500091553 -61.3000030518 rrcurveto
          153.800003052 -27.4499969482 rmoveto
          116.75 -279.050003052 97.8000030518 0 -122.5 303.5 rlineto
          -24.5 61.3000030518 12.6000061035 29.1999969482 45.25 61.5 rrcurveto
          205.149993896 276.5 -107.149993896 0 -183.149993896 -246.5 rlineto
          -42.6500091553 -54.6999969482 -22.25 -94.8000030518 24.6499938965 -56.9499969482 rrcurveto
          endchar
        </CharString>
        <CharString name="Y">
          127 21 -21 21 -21 732 -20 hstemhm
          hintmask 10100000
          147 732 rmoveto
          153.949996948 -481 -39.6499938965 -251 92 0 39.6499938965 251 326.050003052 481 -107.649993896 0 -250.399993896 -372.449996948 -116 372.449996948 rlineto
          endchar
        </CharString>
        <CharString name="Yacute">
          127 0 21 691 20 65 134.5 hstem
          405.964996338 226.300003052 vstem
          405.96484375 797 rmoveto
          -49 callsubr
          -382.764648438 -199.5 rmoveto
          -36 callsubr
          endchar
        </CharString>
        <CharString name="Ycircumflex">
          127 0 21 691 20 65 131.5 hstem
          295.13999939 296.5 vstem
          295.139648438 797 rmoveto
          -21 callsubr
          -283.740234375 -196.5 rmoveto
          -36 callsubr
          endchar
        </CharString>
        <CharString name="Ydieresis">
          127 0 21 691 20 60.75 105.5 hstem
          234.649993896 105.5 149.5 105.5 vstem
          234.650390625 846 rmoveto
          -57 callsubr
          255 hmoveto
          -57 callsubr
          -379.200195312 -114 rmoveto
          -36 callsubr
          endchar
        </CharString>
        <CharString name="Ygrave">
          127 0 21 691 20 65 134.5 hstem
          287.065002441 193.899993896 vstem
          287.065429688 931.5 rmoveto
          -44 callsubr
          -235.764648438 -199.5 rmoveto
          -36 callsubr
          endchar
        </CharString>
        <CharString name="Z">
          52 0 89 554 89 hstem
          32.75 hmoveto
          496 0 14.3999938965 89 -375.899993896 0 463.100006104 554 14.3999938965 89 -496 0 -14.3999938965 -89 378.75 0 -465.949996948 -554 rlineto
          endchar
        </CharString>
        <CharString name="Zacute">
          52 0 89 554 89 60.75 134.5 hstem
          456.800003052 226.300003052 vstem
          456.799804688 792.75 rmoveto
          -49 callsubr
          -459.44921875 -927.25 rmoveto
          496 0 14.3994140625 89 -375.899414062 0 463.099609375 554 14.400390625 89 -496 0 -14.400390625 -89 378.75 0 -465.950195312 -554 rlineto
          endchar
        </CharString>
        <CharString name="Zcaron">
          52 0 89 554 89 65 131.5 hstem
          279.776000977 296.5 vstem
          279.776367188 928.5 rmoveto
          2 callsubr
          -318.92578125 -928.5 rmoveto
          7 callsubr
          endchar
        </CharString>
        <CharString name="Zdotaccent">
          52 0 89 554 89 65 108 hstem
          359.151000977 112.899993896 vstem
          359.151367188 820 rmoveto
          8 callsubr
          -336.30078125 -880 rmoveto
          7 callsubr
          endchar
        </CharString>
        <CharString name="a">
          30 -6.69999694824 86.1499938965 -58.1499938965 -21 21 -21 hstemhm
          427.550003052 68 hintmask 10010000
          85.3500061035 283.100006104 rmoveto
          -40.450012207 -235 78.5500030518 -54.8000030518 111.150009155 0 73.3999938965 0 77.4499969482 42.75 28.25 22.75 rrcurveto
          hintmask 01010000
          13.8500061035 -58.5 68 0 70 478.699996948 rlineto
          -50.9999847412 49 -131.949996948 20.6499938965 -71.8000030518 -7.64999389648 rrcurveto
          -85.3000030518 -8.5 -102.5 -31.6499938965 -37.6499938965 -217.75 rrcurveto
          88.8499908447 -26.5500030518 rmoveto
          28.1499938965 175.400009155 52.799987793 14 59.6000061035 11.25 37.8500061035 7.55000305176 64.0999908447 -7.10000610352 52.1999969482 -14.6499938965 rrcurveto
          -48.25 -314.949996948 rlineto
          hintmask 10010000
          -58.25 -29.5999908447 -42.0999908447 -19 -71.75 0 -73.8000030518 0 -20.75 49.3000030518 20.1999969482 127.800003052 rrcurveto
          endchar
        </CharString>
        <CharString name="a.salt">
          28 -7.14999389648 83.8500061035 377.699981689 80.3500061035 hstem
          84.8999938965 275 rmoveto
          -32.8499908447 -220.399993896 72.8000030518 -61.75 118.949996948 0 13.9499969482 0 233.399993896 14.5999908447 8.55000305176 5.25 rrcurveto
          61.1499938965 470.300003052 rlineto
          -41.9000091553 18.8500061035 -84.8999938965 32.8999938965 -99.9000091553 0 -154.25 0 -68.3999938965 -60.9499969482 -26.6000061035 -198.800003052 rrcurveto
          91.5500030518 -15.0500030518 rmoveto
          20.549987793 157.899993896 37.8999938965 36.549987793 95.9000091553 0 37.1999969482 0 49.8500061035 -10.0999908447 47.0999908447 -10.25 rrcurveto
          -47.9499969482 -352.25 rlineto
          1.52587890625e-05 -105.649993896 -5.10000610352 -62.9000091553 vhcurveto
          -71.4499969482 0 -18.1999969482 45.9000091553 17.6499938965 137.349990845 rrcurveto
          endchar
        </CharString>
        <CharString name="a.smcp">
          85 21 -21 21 -21 142.25 84.5 hstemhm
          hintmask 10100000
          32.75 hmoveto
          104.100006104 0 75.3999938965 142.25 225.600006104 0 32.3999938965 -142.25 92.5 0 -116.5 570 -99.5 0 rlineto
          -89.3500061035 -343.25 rmoveto
          121.850006104 223.5 45.6000061035 -223.5 rlineto
          endchar
        </CharString>
        <CharString name="a.superior">
          -106 363.25 69.25 hstem
          366.149993896 47.8500061035 vstem
          113.300003052 557.199996948 rmoveto
          -23.8999938965 -150.150009155 50.1500091553 -43.8000030518 75.3000030518 0 60.6499938965 0 55.8999938965 35.6499938965 19.5500030518 21.5500030518 rrcurveto
          15.1999969482 -52.1999969482 47.8500061035 0 47.6999969482 321.850006104 rlineto
          -34.3000183105 33 -109.449996948 14.3999938965 -50.8000030518 -3.39999389648 -53.4499969482 -3.40000915527 -75.8999938965 -23.6499938965 -24.5 -149.850006104 rrcurveto
          70.3999938965 -7 rmoveto
          14.6499938965 102.149993896 44.5 13.3999938965 27.6499938965 3.14999389648 26.6000061035 3 50.549987793 -3.69999694824 37.1000061035 -9.94999694824 rrcurveto
          -28.75 -183 rlineto
          -39.3999938965 -22.3999938965 -45.5 -20.3500061035 -45 0 -45.75 0 -9.45001220703 32.3500061035 12.8000030518 85.3499908447 rrcurveto
          endchar
        </CharString>
        <CharString name="aacute">
          30 -6.69999694824 86.1499938965 -79.1499938965 21 581.376296997 134.5 hstemhm
          329.160995483 226.300003052 -127.910995483 68 hintmask 00110000
          329.161132812 602.676757812 rmoveto
          -49 callsubr
          hintmask 10001000
          -367.611328125 -454.077148438 rmoveto
          -35 callsubr
          hintmask 01001000
          -34 callsubr
          88.8505859375 -26.5498046875 rmoveto
          -33 callsubr
          hintmask 10001000
          -32 callsubr
          endchar
        </CharString>
        <CharString name="aacute.salt">
          28 -7.14999389648 83.8500061035 377.699981689 80.3500061035 65.9499969482 134.5 hstem
          318.949996948 226.300003052 vstem
          318.950195312 600.700195312 rmoveto
          -49 callsubr
          -357.849609375 -460.200195312 rmoveto
          102 callsubr
          91.5498046875 -15.0498046875 rmoveto
          103 callsubr
          endchar
        </CharString>
        <CharString name="aacute.smcp">
          85 0 21 121.25 84.5 403.25 134.5 hstem
          368.641998291 226.300003052 vstem
          368.641601562 630 rmoveto
          -62 callsubr
          -459.692382812 -764.5 rmoveto
          65 callsubr
          -89.349609375 -343.25 rmoveto
          66 callsubr
          endchar
        </CharString>
        <CharString name="abreve">
          30 -6.69999694824 86.1499938965 -79.1499938965 21 581.676300049 48.8500061035 hstemhm
          278.065994263 49.1499938965 100.334014893 68 -39.1840057373 49.1499938965 hintmask 00110100
          278.06640625 716.676757812 rmoveto
          22 callsubr
          hintmask 10001000
          -241.866210938 -433.577148438 rmoveto
          -35 callsubr
          hintmask 01001000
          -34 callsubr
          88.8505859375 -26.5498046875 rmoveto
          -33 callsubr
          hintmask 10001000
          -32 callsubr
          endchar
        </CharString>
        <CharString name="abreve.salt">
          28 -7.14999389648 83.8500061035 377.699981689 80.3500061035 61.6999969482 48.8500061035 hstem
          254.317001343 49.1499938965 129.150009155 49.1499938965 vstem
          254.317382812 710.150390625 rmoveto
          22 callsubr
          -218.56640625 -435.150390625 rmoveto
          102 callsubr
          91.5498046875 -15.0498046875 rmoveto
          103 callsubr
          endchar
        </CharString>
        <CharString name="abreve.smcp">
          85 0 21 121.25 84.5 403.25 48.8500061035 hstem
          302.04699707 49.1499938965 129.150009155 49.1499938965 vstem
          302.046875 743.700195312 rmoveto
          17 callsubr
          -318.447265625 -743.700195312 rmoveto
          65 callsubr
          -89.349609375 -343.25 rmoveto
          66 callsubr
          endchar
        </CharString>
        <CharString name="acircumflex">
          30 -6.69999694824 86.1499938965 -79.1499938965 21 581.376296997 131.5 hstemhm
          209.985992432 296.5 -78.9359893799 68 hintmask 00110000
          209.986328125 602.676757812 rmoveto
          -31 callsubr
          hintmask 10001000
          -260.236328125 -451.077148438 rmoveto
          -35 callsubr
          hintmask 01001000
          -34 callsubr
          88.8505859375 -26.5498046875 rmoveto
          -33 callsubr
          hintmask 10001000
          -32 callsubr
          endchar
        </CharString>
        <CharString name="acircumflex.salt">
          28 -7.14999389648 83.8500061035 377.699981689 80.3500061035 61.6999969482 131.5 hstem
          210.436004639 296.5 vstem
          210.435546875 596.450195312 rmoveto
          -21 callsubr
          -261.135742188 -452.950195312 rmoveto
          102 callsubr
          91.5498046875 -15.0498046875 rmoveto
          103 callsubr
          endchar
        </CharString>
        <CharString name="acircumflex.smcp">
          85 0 21 121.25 84.5 403.25 131.5 hstem
          257.966995239 296.5 vstem
          257.966796875 630 rmoveto
          -61 callsubr
          -360.817382812 -761.5 rmoveto
          65 callsubr
          -89.349609375 -343.25 rmoveto
          66 callsubr
          endchar
        </CharString>
        <CharString name="acute">
          -268 531 134.5 hstem
          102.649993896 226.300003052 vstem
          102.649993896 531 rmoveto
          -70 callsubr
          endchar
        </CharString>
        <CharString name="acute.smcp">
          -268 531 134.5 hstem
          102.649993896 226.300003052 vstem
          102.649993896 531 rmoveto
          -70 callsubr
          endchar
        </CharString>
        <CharString name="adieresis">
          30 -6.69999694824 86.1499938965 -79.1499938965 21 581.376296997 105.5 hstemhm
          186.355392456 105.5 135.694610596 68 -54.1946105957 105.5 hintmask 00110100
          186.35546875 655.926757812 rmoveto
          -28 callsubr
          255 hmoveto
          -28 callsubr
          hintmask 10001000
          -356.005859375 -372.827148438 rmoveto
          -35 callsubr
          hintmask 01001000
          -34 callsubr
          88.8505859375 -26.5498046875 rmoveto
          -33 callsubr
          hintmask 10001000
          -32 callsubr
          endchar
        </CharString>
        <CharString name="adieresis.salt">
          28 -7.14999389648 83.8500061035 377.699981689 80.3500061035 61.6999969482 105.5 hstem
          186.105804443 105.5 149.5 105.5 vstem
          186.10546875 649.700195312 rmoveto
          -38 callsubr
          255 hmoveto
          -38 callsubr
          -356.205078125 -374.700195312 rmoveto
          102 callsubr
          91.5498046875 -15.0498046875 rmoveto
          103 callsubr
          endchar
        </CharString>
        <CharString name="adieresis.smcp">
          85 0 21 121.25 84.5 403.25 105.5 hstem
          234.486297607 105.5 149.5 105.5 vstem
          234.486328125 683.25 rmoveto
          -46 callsubr
          255 hmoveto
          -46 callsubr
          -456.736328125 -683.25 rmoveto
          65 callsubr
          -89.349609375 -343.25 rmoveto
          66 callsubr
          endchar
        </CharString>
        <CharString name="ae">
          377 -7 86.1499938965 377.350006104 84.5 hstem
          52.0500030518 281.449996948 rmoveto
          -41.299987793 -223.950012207 77.6999969482 -64.5 112.150009155 0 66.3999938965 0 95.9499969482 33.8999938965 39.1999969482 35.950012207 20.75 -45.950012207 40.700012207 -23.1499938965 62.3499908447 -0.75 90.6500091553 -1.80000305176 81.3999938965 7.5 82.9499969482 23.3000030518 rrcurveto
          11.25 68 rlineto
          -73.6500091553 -10.8500061035 -94.3500061035 -9 -71.5 5.10000610352 -71 0.850006103516 -19.1499938965 33.3499908447 18.8999938965 112.300003052 37 -15 315.600006104 -44.0500030518 24.5500030518 225.300003052 13.1999969482 117.649993896 -88.1000061035 35.5 -122.849990845 -0.149993896484 -75.1500091553 -0.149993896484 -50.6999969482 -14.5 -36.8500061035 -27.3000030518 -58.4499969482 33.5500030518 -104.949996948 15.1999969482 -60.0500030518 -6.80000305176 rrcurveto
          -85.3000030518 -8.5 -95.4499969482 -23.9499969482 -41.8999938965 -227.100006104 rrcurveto
          88.1499938965 -25.1999969482 rmoveto
          28.1499938965 175.399993896 53.5 14.3000030518 58.75 11.25 36.6999969482 7.40000915527 75.25 -11.9000091553 52.8000030518 -14.5 -23.1500091553 -39.8499908447 -12.9499969482 -52.3500061035 -11.8000030518 -62 -11.6999969482 -63.1999969482 -4.69999694824 -53.1000061035 4.55000305176 -42.6999969482 -28.5500030518 -28.1999969482 -81.1999969482 -18.5 -61.450012207 0.849990844727 -81.4499969482 0.850006103516 -12.9499969482 48.4499969482 20.1999969482 127.800003052 rrcurveto
          350.150009155 30 rmoveto
          17.1999969482 84.1000061035 8.30000305176 85.8499908447 141.449996948 0.300003051758 80 0.149993896484 39.6499938965 -8.75 -11.0999908447 -65.1499938965 -21.3500061035 -126.899993896 -254.149993896 30.3999938965 0 0 rrcurveto
          endchar
        </CharString>
        <CharString name="ae.smcp">
          241 -2.14999389648 87.5 -73.75 72.8999938965 71.75 78.9499969482 1.25 88 -80.1499938965 73 166.199996948 86.5 -86.5 73.75 hstemhm
          hintmask 10100000
          21.5 hmoveto
          107.699996948 0 98.8500061035 156.25 142.600006104 0 -10.3500061035 -70.75 rlineto
          -8.04998779297 -57 33.1999969482 -32.5 59.4000091553 1.85000610352 rrcurveto
          hintmask 01100000
          0 0 253.049987793 9.84999084473 17.700012207 3.90000915527 rrcurveto
          11.25 72.8999938965 rlineto
          hintmask 10110000
          -236.649993896 0.850006103516 rlineto
          -21.8500061035 0 -15.700012207 1.29998779297 5 29.8500061035 rrcurveto
          18.8500061035 119.949996948 rlineto
          hintmask 00101000
          243.699996948 7.85000610352 10.9499969482 73 rlineto
          hintmask 00110100
          -240.699996948 7.14999389648 20.6999969482 126.899993896 rlineto
          4.85000610352 21.4499969482 3 10.6999969482 30.8500061035 0 rrcurveto
          240.5 0 rlineto
          hintmask 00100010
          11.25 73.75 rlineto
          hintmask 10100100
          -13.5 2.55000305176 -239 10.1999969482 0 0 -94 -1 -80.5 -7.39999389648 -53.6000061035 -85.1500091553 rrcurveto
          -44.6499938965 -241.25 rmoveto
          144.350006104 232.800003052 -38.6999969482 -232.800003052 rlineto
          endchar
        </CharString>
        <CharString name="afii61289">
          -104 0.149993896484 64.5500030518 hstem
          67.1999969482 249.5 rmoveto
          19.0500030518 -41.1499938965 rlineto
          12 6 11.4499969482 6.14999389648 11 7 rrcurveto
          -4.39999389648 -40.3000030518 rlineto
          -15.8999938965 -130.750015259 41.25 -56.3000030518 95.3000030518 0 rrcurveto
          84.5 0 10.3500061035 64.5500030518 rlineto
          -1.89999389648 -1.52587890625e-05 -70.549987793 16.9499969482 0 0 -49.6500091553 10.3500061035 -12.8499908447 13.8999938965 13.25 92.25 rrcurveto
          11.8999938965 89.8500061035 rlineto
          109.449996948 82.5 94.1999969482 113.899993896 15.200012207 104.600006104 12.799987793 85.3500061035 -40 60.3999938965 -80.75 4.25 -83.8999938965 4.25 -53.6999969482 -48 -12.1999969482 -75.25 rrcurveto
          -50.0500030518 -314.5 rlineto
          -21.9999847412 -20 -21.8500061035 -19 -22 -17 rrcurveto
          172.75 152.5 rmoveto
          35.0500030518 213.949996948 rlineto
          9 56.9999847412 67.1499938965 -12.3499908447 3.25 -34.1000061035 9.95001220703 -62.6000061035 -53.6000061035 -83.5999908447 -70.8000030518 -78.3000030518 rrcurveto
          endchar
        </CharString>
        <CharString name="afii61352">
          563 21 -21 21 -21 381 72.5 206 75.3500061035 hstemhm
          798.949996948 74 hintmask 10111000
          67.1999969482 hmoveto
          88.75 0 100.050003052 632.550003052 rlineto
          3 17.0000152588 29.1000061035 5.14999389648 3.25 -15.1499938965 rrcurveto
          137.800003052 -561.100006104 rlineto
          21 -116.350006104 166.100006104 11.3999938965 17.3999938965 112.850006104 0 0 51.6500091553 323.949996948 24.6499938965 153.849990845 11 69.8500061035 38.9499969482 25.5 61.8000030518 0 69.75 0 104 -1 0 0 48.6500091553 -1.69999694824 21.0999908447 -6 -15.3499908447 -97.8000030518 -14.5 -92.6999969482 -29.3500061035 -6.80000305176 -41 0 rrcurveto
          -48 hlineto
          -41 0 -26.5 5.69999694824 23.4499969482 149.800003052 rrcurveto
          -74 hlineto
          -28.0000152588 -176 40.5 -51.25 91.3500061035 -0.75 rrcurveto
          60 hlineto
          122.850006104 0.75 20.75 61.3999938965 17.450012207 109.850006104 19.4499969482 123.699996948 -30.6000061035 57.3000030518 -94.3499908447 0 0 0 -142.600006104 0.850006103516 -62.8999938965 0 -98.6500091553 -0.300003051758 -76.1999969482 -44.5500030518 -19.1499938965 -122.449996948 -23.8000030518 -150.449996948 -49.1000061035 -315.400009155 0 0 -2 -15 -24.6999969482 -6.30000305176 -4.10000610352 18.3000030518 rrcurveto
          -138.649993896 568.25 rlineto
          -18.75 103.249984741 -172.050003052 -9.14999389648 -18.6999969482 -118.5 rrcurveto
          endchar
        </CharString>
        <CharString name="agrave">
          30 -6.69999694824 86.1499938965 -79.1499938965 21 581.376296997 134.5 hstemhm
          201.760696411 193.899993896 31.8893127441 68 hintmask 00110000
          201.760742188 737.176757812 rmoveto
          -55 callsubr
          hintmask 10001000
          -212.111328125 -454.077148438 rmoveto
          -35 callsubr
          hintmask 01001000
          -34 callsubr
          88.8505859375 -26.5498046875 rmoveto
          -33 callsubr
          hintmask 10001000
          -32 callsubr
          endchar
        </CharString>
        <CharString name="agrave.salt">
          28 -7.14999389648 83.8500061035 377.699981689 80.3500061035 65.9499969482 134.5 hstem
          185.800003052 193.899993896 vstem
          185.799804688 735.200195312 rmoveto
          -55 callsubr
          -196.599609375 -460.200195312 rmoveto
          102 callsubr
          91.5498046875 -15.0498046875 rmoveto
          103 callsubr
          endchar
        </CharString>
        <CharString name="agrave.smcp">
          85 0 21 121.25 84.5 403.25 134.5 hstem
          249.742004395 193.899993896 vstem
          249.7421875 764.5 rmoveto
          -65 callsubr
          -312.692382812 -764.5 rmoveto
          65 callsubr
          -89.349609375 -343.25 rmoveto
          66 callsubr
          endchar
        </CharString>
        <CharString name="amacron">
          30 -6.69999694824 86.1499938965 -79.1499938965 21 581.375991821 67.5 hstemhm
          212.309005737 302.75 -87.5090026855 68 hintmask 00000000
          212.309570312 602.676757812 rmoveto
          -75 callsubr
          hintmask 10001000
          -137.709960938 -387.077148438 rmoveto
          -35 callsubr
          hintmask 01001000
          -34 callsubr
          88.8505859375 -26.5498046875 rmoveto
          -33 callsubr
          hintmask 10001000
          -32 callsubr
          endchar
        </CharString>
        <CharString name="amacron.salt">
          28 -7.14999389648 83.8500061035 377.699981689 80.3500061035 61.6999969482 67.5 hstem
          220.979095459 302.75 vstem
          220.979492188 596.450195312 rmoveto
          -75 callsubr
          -146.829101562 -388.950195312 rmoveto
          102 callsubr
          91.5498046875 -15.0498046875 rmoveto
          103 callsubr
          endchar
        </CharString>
        <CharString name="amacron.smcp">
          85 0 21 121.25 84.5 403.25 67.5 hstem
          259.60899353 302.75 vstem
          259.609375 630 rmoveto
          -75 callsubr
          -237.609375 -697.5 rmoveto
          65 callsubr
          -89.349609375 -343.25 rmoveto
          66 callsubr
          endchar
        </CharString>
        <CharString name="ampersand">
          128 21 -21 21 -21 647.600006104 62.3999938965 hstemhm
          hintmask 10100000
          91.6000061035 80.1999969482 rmoveto
          67.3999938965 -107.200012207 144.050003052 2.14999389648 75.3499908447 66 rrcurveto
          74.3000030518 65.3500061035 62.1499938965 -106.5 97 0 -92.5500030518 157.399993896 47.5500030518 45.5500030518 70.8500061035 118.899993896 -28.8000030518 30.1999969482 -133.75 -119.25 -172.600006104 299.399993896 rlineto
          -51.299987793 89.4999847412 48.8500061035 25.9000091553 84.5 0 rrcurveto
          192.5 0 10.25 62.3999938965 rlineto
          -92.8000030518 21.25 -67.9000091553 7.14999389648 -108 -10.9499969482 -83.8999938965 -8.19999694824 -85.1000061035 -89.5500030518 64.5500030518 -111.25 rrcurveto
          46.4499969482 -80.8000030518 -93.8000030518 -71.8000030518 rlineto
          -103.75 -79.1500091553 -33.6000061035 -108.899993896 62.1000061035 -97.6000061035 rrcurveto
          75.3999938965 47.5 rmoveto
          -34.5 49.8499908447 6.19999694824 61.3499908447 82.0500030518 61.450012207 rrcurveto
          80.3000030518 61.0500030518 108.600006104 -182.649993896 -77.8500061035 -68.8500061035 rlineto
          -53.8499908447 -47.549987793 -73.8499908447 11.4499969482 -37.1000061035 53.8999938965 rrcurveto
          endchar
        </CharString>
        <CharString name="ampersand.salt">
          444 -0.300003051758 85.5500030518 71.1999969482 81.5500030518 83.6000061035 82.3999938965 61.8000030518 84.6999969482 -64.6999969482 64.3999938965 hstemhm
          827.449996948 74 hintmask 11101100
          87.6499938965 298.149993896 rmoveto
          -14.6499938965 -94.5999908447 64.25 -47.3000030518 82.3999938965 0 -15.5999908447 -131.449996948 96.5 -24.9499969482 90.5500030518 -0.150009155273 rrcurveto
          160.600006104 hlineto
          116.449981689 -1.52587890625e-05 129.350006104 32.3000030518 25.1999969482 159.050003052 rrcurveto
          43 274.899993896 146 19.8500061035 10.6499938965 64.3999938965 -143 0 22.1000061035 142.699996948 -74 0 rlineto
          hintmask 11110100
          -40.1000061035 -142.399993896 -438 0 rlineto
          -142.25 -0.300003051758 -82.6000061035 -13.1999969482 -23.3000030518 -150.75 rrcurveto
          78.3000030518 -89.75 rmoveto
          13.6999969482 86.75 rlineto
          12.3999938965 76.9499969482 37.8499908447 3.90000915527 93.6000061035 1.69999694824 rrcurveto
          436.5 0 -42.6999969482 -269.800003052 rlineto
          -11.5500030518 -73.3000030518 -71.6500091553 -37.4499969482 -83 0 rrcurveto
          -163.25 hlineto
          -49.0999908447 2.55000305176 -50.8500061035 -6.25 10.5 74.8999938965 rrcurveto
          195.550003052 hlineto
          106 -1.52587890625e-05 43.5 9.44999694824 17.6000061035 110.050003052 15.049987793 113.850006104 -86.1499938965 14.1999969482 -56.3500061035 0 rrcurveto
          -114 hlineto
          -113.25 0 -68.4499969482 -45.1000061035 -19.1499938965 -120.599990845 -42.9000091553 0.849990844727 -17.5999908447 11.3000030518 7.69999694824 46.0500030518 rrcurveto
          144.800003052 -58.5 rmoveto
          12.8000183105 76.8000030518 31.799987793 6.80000305176 52.5500030518 0 rrcurveto
          111.75 hlineto
          49.799987793 0 5.44999694824 -6.25 -5.39999389648 -36.1000061035 -6.40000915527 -42.3500061035 -14.5 1.10000610352 -42.5999908447 0 rrcurveto
          endchar
        </CharString>
        <CharString name="ampersand.smcp">
          36 21 -21 21 -21 488.100006104 81.1999969482 -81.1999969482 65 hstemhm
          hintmask 10100000
          79.5500030518 70.4499969482 rmoveto
          53.6000061035 -95.6000061035 122.450012207 5.39999389648 66.299987793 50.0500030518 rrcurveto
          53.8500061035 45 44.8000030518 -75.3000030518 100.199996948 0 -77.4499969482 126.699996948 26.3999938965 23.8999938965 57.4499969482 88.6499938965 -31.25 38.9499969482 -97.8500061035 -79.1499938965 -125.800003052 218.75 rlineto
          -23.25 39.6500091553 11.3999938965 30.6500091553 59.700012207 0 rrcurveto
          146.300003052 0 rlineto
          hintmask 00010000
          10.8000030518 65 rlineto
          hintmask 10100000
          -78.9000091553 19.0999908447 -49.9000091553 3.30000305176 -81.0999908447 -6.19999694824 -65.3500061035 -5.19999694824 -69.9499969482 -74.3000030518 54.5 -93.6000061035 rrcurveto
          24.5 -41.6000061035 -70.9499969482 -53.1499938965 rlineto
          -85.2499847412 -64.0000152588 -24.5 -79.8499908447 49.25 -87.1500091553 rrcurveto
          77.5 45 rmoveto
          -19.1999816895 30.299987793 -12.4000091553 41.4499969482 61.75 45.6999969482 rrcurveto
          65.6000061035 47.1000061035 78.25 -131.100006104 -60.3500061035 -50.5 rlineto
          -51.3000183105 -39.3499908447 -42.1499938965 24.3999938965 -20.1999969482 32 rrcurveto
          endchar
        </CharString>
        <CharString name="aogonek">
          -16 -182.350006104 64.5 98 20 -6.84999084473 86.1499938965 -79.1499938965 21 hstemhm
          408.850006104 68 hintmask 11000000
          422 0.150390625 rmoveto
          1 callsubr
          hintmask 00101000
          -398.849609375 282.94921875 rmoveto
          -40.4501953125 -235 78.5498046875 -54.7998046875 111.150390625 0 73.3994140625 0 77.4501953125 42.75 28.25 22.75 rrcurveto
          hintmask 00011000
          13.849609375 -58.5 68 0 70 478.700195312 rlineto
          -51 49 -131.94921875 20.650390625 -71.80078125 -7.650390625 rrcurveto
          -85.2998046875 -8.5 -102.5 -31.650390625 -37.6494140625 -217.75 rrcurveto
          88.849609375 -26.5498046875 rmoveto
          28.150390625 175.400390625 52.7998046875 14 59.599609375 11.25 37.8505859375 7.5498046875 64.099609375 -7.099609375 52.2001953125 -14.650390625 rrcurveto
          -48.25 -314.950195312 rlineto
          hintmask 00101000
          -32 callsubr
          endchar
        </CharString>
        <CharString name="aogonek.salt">
          110 -169.800003052 64.5 98 20 -19.8499908447 83.8500061035 377.699981689 80.3500061035 hstemhm
          hintmask 11000000
          456.200195312 12.7001953125 rmoveto
          83 callsubr
          hintmask 00110000
          -414.799804688 262.299804688 rmoveto
          102 callsubr
          91.5498046875 -15.0498046875 rmoveto
          103 callsubr
          endchar
        </CharString>
        <CharString name="aogonek.smcp">
          172 -182.350006104 64.5 98 20 -0.149993896484 21 121.25 84.5 hstemhm
          hintmask 11000000
          502.400390625 0.150390625 rmoveto
          56 callsubr
          hintmask 00110000
          -513.150390625 -0.150390625 rmoveto
          65 callsubr
          -89.349609375 -343.25 rmoveto
          66 callsubr
          endchar
        </CharString>
        <CharString name="approxequal">
          15 205.699996948 81 -43 80 60.0500030518 81 -43 80 hstemhm
          hintmask 10000000
          86.1499938965 252.699996948 rmoveto
          13.9499969482 -47 rlineto
          hintmask 01000000
          50.8499908447 14.9999847412 28.1500091553 23 51 0 rrcurveto
          hintmask 10000000
          60 0 25.25 -38 57.75 0 60.299987793 0 45.9000091553 43.6500091553 42.6999969482 28.799987793 rrcurveto
          -14.8500061035 47.5500030518 rlineto
          -49.0999908447 -19.3500061035 -23.9000091553 -19.6500091553 -47 0 rrcurveto
          hintmask 01000000
          -60 0 -23 37 -60 0 rrcurveto
          -64 0 -50.049987793 -38.1499938965 -43.950012207 -32.8500061035 rrcurveto
          28.1500091553 178.050003052 rmoveto
          hintmask 00100000
          13.9499969482 -47 rlineto
          hintmask 00010000
          50.8500061035 15 28.1499938965 23 51 0 rrcurveto
          hintmask 00100000
          60 0 25.25 -38 57.75 0 60.3000030518 0 45.8999938965 43.6499938965 42.6999969482 28.8000030518 rrcurveto
          -14.8500061035 47.5500030518 rlineto
          -49.0999908447 -19.3500061035 -23.75 -19.6499938965 -47 0 rrcurveto
          hintmask 00010000
          -60 0 -23.1499938965 37 -60 0 -64 0 -50.0500030518 -38.1499938965 -43.9499969482 -32.8500061035 rrcurveto
          endchar
        </CharString>
        <CharString name="aring">
          30 -6.69999694824 86.1499938965 -79.1499938965 21 581.376296997 50.8500061035 102.699996948 50.6999969482 hstemhm
          281.548995972 203 -56.9989929199 68 hintmask 00111000
          281.548828125 704.375976562 rmoveto
          -4.9892578125 -57 42.5048828125 -44.69921875 56 0 56 0 48.4951171875 44.69921875 4.9892578125 57 4.98828125 57 -41.279296875 45.55078125 -56 0 -56 0 -49.720703125 -45.55078125 -4.98828125 -57 rrcurveto
          50.150390625 hmoveto
          2.53125 28.3505859375 25.5078125 23.5 28.349609375 0 28.3505859375 0 20.4912109375 -23.5 -2.5302734375 -28.3505859375 -2.53125 -28.349609375 -24.435546875 -22.5 -28.349609375 0 -28.349609375 0 -21.5654296875 22.5 2.53125 28.349609375 rrcurveto
          hintmask 10000100
          -246.349609375 -421.276367188 rmoveto
          -35 callsubr
          hintmask 01000100
          -34 callsubr
          88.8505859375 -26.5498046875 rmoveto
          -33 callsubr
          hintmask 10000100
          -32 callsubr
          endchar
        </CharString>
        <CharString name="aring.salt">
          28 -7.14999389648 83.8500061035 377.699981689 80.3500061035 61.6999969482 50.8500061035 102.699996948 50.6999969482 hstem
          274.550994873 203 vstem
          274.55078125 698.150390625 rmoveto
          -4.9892578125 -57 42.5048828125 -44.7001953125 56 0 56 0 48.4951171875 44.7001953125 4.9892578125 57 4.98828125 57 -41.279296875 45.5498046875 -56 0 -56 0 -49.720703125 -45.5498046875 -4.98828125 -57 rrcurveto
          50.150390625 hmoveto
          2.53125 28.349609375 25.5078125 23.5 28.349609375 0 28.3505859375 0 20.4912109375 -23.5 -2.5302734375 -28.349609375 -2.53125 -28.3505859375 -24.435546875 -22.5 -28.349609375 0 -28.349609375 0 -21.5654296875 22.5 2.53125 28.3505859375 rrcurveto
          -239.80078125 -423.150390625 rmoveto
          102 callsubr
          91.5498046875 -15.0498046875 rmoveto
          103 callsubr
          endchar
        </CharString>
        <CharString name="aring.smcp">
          85 0 21 121.25 84.5 336.449996948 50.8500061035 102.699996948 50.6999969482 hstem
          302.348999023 203 vstem
          302.348632812 664.900390625 rmoveto
          81 callsubr
          50.150390625 hmoveto
          21 callsubr
          -319.749023438 -664.900390625 rmoveto
          65 callsubr
          -89.349609375 -343.25 rmoveto
          66 callsubr
          endchar
        </CharString>
        <CharString name="asciicircum">
          -121 531 132.350006104 hstem
          130.699996948 296.5 vstem
          130.699996948 531 rmoveto
          91.1999969482 0 81.1499938965 75.6499938965 48.8500061035 -75.6499938965 75.3000030518 0 -80.8999938965 132.350006104 -80 0 rlineto
          endchar
        </CharString>
        <CharString name="asciitilde">
          -78 531 78.8000030518 -43.8000030518 78.8000030518 hstemhm
          hintmask 10000000
          137.300003052 575.899993896 rmoveto
          -83 callsubr
          hintmask 01000000
          -82 callsubr
          hintmask 10000000
          -81 callsubr
          hintmask 01000000
          -80 callsubr
          endchar
        </CharString>
        <CharString name="asterisk">
          -74 561 77 -72 44.5 124.149993896 -20 hstemhm
          hintmask 01100000
          135.699996948 566 rmoveto
          hintmask 10100000
          143 -5 7.44999694824 77 rlineto
          hintmask 01100000
          -106 callsubr
          34.3999938965 -195.899993896 rmoveto
          39.1999969482 -13.3500061035 78.6499938965 130.75 -72.6999969482 18.0500030518 rlineto
          55.75 -76.5999908447 rmoveto
          118.949996948 -61.75 29.6000061035 35.6000061035 -95.6000061035 90.6999969482 rlineto
          -44.4000091553 179.75 rmoveto
          23.9499969482 -133.75 76 31.4499969482 -54.6000061035 119.199996948 rlineto
          6.20001220703 -163.649993896 rmoveto
          40.1999969482 -58.5500030518 107.649993896 97 -15.8500061035 38.3000030518 rlineto
          endchar
        </CharString>
        <CharString name="asterisk.smcp">
          -75 400.75 77 -72 44.5 hstemhm
          hintmask 01000000
          110.399993896 405.75 rmoveto
          hintmask 10000000
          142.149993896 -5 8.30000305176 77 rlineto
          hintmask 01000000
          -106 callsubr
          33.5500030518 -195.899993896 rmoveto
          39.1999969482 -13.3500061035 79.5 130.75 -72.6999969482 18.0500030518 rlineto
          55.7499847412 -76.5999908447 rmoveto
          118.949996948 -61.75 29.6000061035 35.6000061035 -95.6000061035 91.5500030518 rlineto
          -44.3999938965 178.899993896 rmoveto
          23.9499969482 -132.899993896 76 30.6000061035 -54.6000061035 119.199996948 rlineto
          6.19999694824 -162.799987793 rmoveto
          40.1999969482 -59.3999938965 107.649993896 97 -16.6999969482 38.3000030518 rlineto
          endchar
        </CharString>
        <CharString name="at">
          365 -182 84.5 -57.5 57.5 93.5 84.5 -77.5 84.5 373.300003052 83.5 75.1999969482 85.5 hstemhm
          hintmask 10001100
          60.3999938965 16.5 rmoveto
          -17.299987793 -109.699996948 55.049987793 -88.8000030518 120.350006104 0 rrcurveto
          96.5 hlineto
          hintmask 01001100
          -93 callsubr
          hintmask 10011100
          -386 hlineto
          -86 0 -8.44999694824 54 9 57 rrcurveto
          79.3500061035 501.5 rlineto
          5.60000610352 34.8999938965 18.5500030518 69.6000061035 95 0 rrcurveto
          376 hlineto
          44.6499938965 0 43.25 0.949996948242 -15.5500030518 -105.449996948 rrcurveto
          -50.4499969482 -337.5 rlineto
          -12.8500061035 -81 -31.6499938965 -9 -48 0 rrcurveto
          57.1999969482 393.75 rlineto
          -50.9999847412 49 -97.8000030518 14.0500030518 -78.0500030518 0 -78.5 0 -107 -45.6000061035 -34 -221.149993896 rrcurveto
          hintmask 00101100
          -32.9499969482 -219.5 71.8500061035 -63.1500091553 113.099990845 1.10000610352 73 0.550003051758 48.25 32.5999908447 28.6000061035 32.3500061035 rrcurveto
          hintmask 10011100
          23.1499938965 -58.5 64.5 0 rlineto
          143.999984741 0 23.1000061035 106.050003052 8.34999084473 56.4499969482 rrcurveto
          51.8000030518 346.5 rlineto
          17.7499847412 118.699996948 -43.75 74.3000030518 -119.849990845 0 rrcurveto
          -372 hlineto
          -140.550003052 0 -60.8500061035 -77.75 -17.25 -106.25 rrcurveto
          201.699996948 -264 rmoveto
          21.8000030518 171.649993896 62.6500091553 32.1500091553 52.75 0 39.299987793 0 43.8500061035 -0.150009155273 55.3500061035 -14.1999969482 rrcurveto
          -47.6999969482 -304.449996948 rlineto
          hintmask 00101100
          -55.8499908447 -48.6999969482 -40.9499969482 -13.3500061035 -55 0.550003051758 -76.8000030518 0.399993896484 -15.9000091553 45.3500061035 16.5 130.75 rrcurveto
          endchar
        </CharString>
        <CharString name="at.alt">
          265 -98 84.5 -57.5 57.5 93.5 84.5 -77.5 84.5 373.300003052 83.5 75.1999969482 85.5 hstemhm
          hintmask 10001100
          73.3000030518 100.5 rmoveto
          -17.299987793 -109.699996948 55.0500030518 -88.8000030518 120.349990845 0 rrcurveto
          96.5 hlineto
          hintmask 01001100
          -93 callsubr
          hintmask 10011100
          -386 hlineto
          -85.9999847412 0 -8.44999694824 54 9 57 rrcurveto
          79.3500061035 501.5 rlineto
          5.59999084473 34.8999938965 18.5500030518 69.6000061035 95 0 rrcurveto
          376 hlineto
          44.6499938965 0 43.25 0.949996948242 -15.5500030518 -105.449996948 rrcurveto
          -50.4499969482 -337.5 rlineto
          -12.8500061035 -81 -31.6499938965 -9 -48 0 rrcurveto
          57.1999969482 393.75 rlineto
          -51.0000152588 49 -97.8000030518 14.0500030518 -78.049987793 0 -78.5 0 -107 -45.6000061035 -34 -221.149993896 rrcurveto
          hintmask 00101100
          -32.950012207 -219.5 71.8500061035 -63.1500091553 113.100006104 1.10000610352 73 0.550003051758 48.25 32.5999908447 28.5999908447 32.3500061035 rrcurveto
          hintmask 10011100
          23.1499938965 -58.5 64.5 0 rlineto
          144 0 23.0999908447 106.050003052 8.35000610352 56.4499969482 rrcurveto
          51.8000030518 346.5 rlineto
          17.75 118.699996948 -43.75 74.3000030518 -119.850006104 0 rrcurveto
          -372 hlineto
          -140.550003052 0 -60.8499908447 -77.75 -17.25 -106.25 rrcurveto
          201.699996948 -264 rmoveto
          21.8000183105 171.649993896 62.6499938965 32.1500091553 52.75 0 39.3000030518 0 43.8499908447 -0.150009155273 55.3500061035 -14.1999969482 rrcurveto
          -47.6999969482 -304.449996948 rlineto
          hintmask 00101100
          -55.8499908447 -48.6999969482 -40.9499969482 -13.3500061035 -55 0.550003051758 -76.8000030518 0.399993896484 -15.8999938965 45.3500061035 16.5 130.75 rrcurveto
          endchar
        </CharString>
        <CharString name="at.smcp">
          366 -145.649993896 84.5 -57.5 57.5 93.5 84.5 -77.5 84.5 373.299987793 83.5 75.200012207 84 hstemhm
          hintmask 10001100
          67.25 52.8500061035 rmoveto
          -17.3000030518 -109.700012207 55.0500030518 -88.799987793 120.350006104 0 rrcurveto
          96.5 hlineto
          hintmask 01011100
          126 0 116 17 50 10 rrcurveto
          9.64999389648 57.5 -386 0 rlineto
          -86 0 -8.44999694824 54 9 57 rrcurveto
          79.3500061035 501.5 rlineto
          5.60000610352 34.8999938965 18.5500030518 69.6000061035 95 0 rrcurveto
          376 hlineto
          44.6500091553 0 43.25 0.949996948242 -15.5500030518 -105.449996948 rrcurveto
          -50.4499969482 -337.5 rlineto
          -12.8500061035 -81 -31.6500091553 -9 -48 0 rrcurveto
          57.1999969482 393.75 rlineto
          -51 49 -97.799987793 14.049987793 -78.0500030518 0 -78.5 0 -107 -45.5999908447 -34 -221.150009155 rrcurveto
          hintmask 00101100
          -32.9499969482 -219.5 71.8499908447 -63.1499938965 113.100006104 1.10000610352 73 0.549987792969 48.25 32.6000061035 28.5999908447 32.3500061035 rrcurveto
          hintmask 10011100
          23.1499938965 -58.5 64.5 0 rlineto
          144.000015259 0 23.0999908447 106.049987793 8.35000610352 56.450012207 rrcurveto
          51.8000030518 346.5 rlineto
          17.7500152588 118.699996948 -43.75 72.8000030518 -119.850006104 0 rrcurveto
          -372 hlineto
          -140.550018311 0 -60.8499908447 -76.25 -17.25 -106.25 rrcurveto
          201.699996948 -264 rmoveto
          21.8000030518 171.649993896 62.6499938965 32.1499938965 52.75 0 39.3000030518 0 43.8500061035 -0.149993896484 55.3499908447 -14.1999969482 rrcurveto
          -47.6999969482 -304.449996948 rlineto
          hintmask 00101100
          -55.8500061035 -48.700012207 -40.9499969482 -13.3499908447 -55 0.550003051758 -76.8000030518 0.399993896484 -15.8999938965 45.3500061035 16.5 130.75 rrcurveto
          endchar
        </CharString>
        <CharString name="atilde">
          30 -6.69999694824 86.1499938965 -79.1499938965 21 582.226303101 75.3999938965 -41.25 75.3999938965 hstemhm
          427.550003052 68 hintmask 00010000
          201.665039062 647.576171875 rmoveto
          -30 callsubr
          hintmask 00100000
          36.4501953125 0.849609375 12.7001953125 -34.150390625 54.0498046875 -0.849609375 45.0498046875 -0.849609375 40.0498046875 36.44921875 40.6005859375 27.900390625 rrcurveto
          -14.8505859375 46.7998046875 rlineto
          -9 -6.849609375 -64.599609375 -29.2001953125 -26.400390625 1.150390625 rrcurveto
          hintmask 00010000
          -29 callsubr
          hintmask 10001000
          -116.315429688 -364.4765625 rmoveto
          -35 callsubr
          hintmask 01001000
          -34 callsubr
          88.8505859375 -26.5498046875 rmoveto
          -33 callsubr
          hintmask 10001000
          -32 callsubr
          endchar
        </CharString>
        <CharString name="atilde.salt">
          28 -7.14999389648 83.8500061035 377.699981689 80.3500061035 62.5500030518 75.3999938965 -41.25 75.3999938965 hstemhm
          hintmask 00010000
          204.065429688 641.349609375 rmoveto
          -30 callsubr
          hintmask 00100000
          53 callsubr
          hintmask 00010000
          -29 callsubr
          hintmask 11000000
          -119.165039062 -366.349609375 rmoveto
          102 callsubr
          91.5498046875 -15.0498046875 rmoveto
          103 callsubr
          endchar
        </CharString>
        <CharString name="atilde.smcp">
          85 0 21 121.25 84.5 404.100006104 75.3999938965 -41.25 75.3999938965 hstemhm
          hintmask 00010000
          242.99609375 674.900390625 rmoveto
          55 callsubr
          hintmask 00100000
          -40 callsubr
          hintmask 00010000
          -39 callsubr
          hintmask 11000000
          -210.24609375 -674.900390625 rmoveto
          65 callsubr
          -89.349609375 -343.25 rmoveto
          66 callsubr
          endchar
        </CharString>
        <CharString name="b">
          44 21 -21 21 -21 455.25 83.75 hstemhm
          hintmask 10100000
          56.1000061035 hmoveto
          69.9499969482 0 30.1999969482 57.5 rlineto
          24.6499938965 -21.1000061035 85.1000061035 -39 66.6499938965 -3.39999389648 156.400009155 -8.5 38.6499938965 139.699996948 22.5 131.800003052 21.5 129.5 -2.25 152.5 -155.899993896 0 -45 0 -79.1999969482 -13.5500030518 -63.6500091553 -24.9499969482 rrcurveto
          44.6999969482 284.5 -90.3000030518 0 rlineto
          -13.3500061035 -662.149993896 rmoveto
          49.3000030518 308.050003052 rlineto
          63.0000152588 16.950012207 47 7.39999389648 69.1999969482 0 79.8500061035 0 1.25 -69.25 -18 -121.5 -18.700012207 -123.449996948 -34.8499908447 -60.6000061035 -68.1000061035 0 -71.8000030518 0 -53.75 21.1500091553 -44.3999938965 21.25 rrcurveto
          endchar
        </CharString>
        <CharString name="b.salt">
          42 -12.25 83 380.100006104 83.8999938965 248.800003052 -20 hstem
          57.5500030518 12.6999969482 rmoveto
          47.200012207 -8.65000915527 109.949996948 -16.3000030518 104.050003052 0 130.100006104 0 74.549987793 76.3999938965 25.200012207 188.100006104 21.5 163.949996948 -15.8000030518 118.550003052 -147.050003052 0 -41.8500061035 0 -77.299987793 -12.5500030518 -61.8500061035 -26.4499969482 rrcurveto
          45.6999969482 287.800003052 -92 0 rlineto
          -21.200012207 -712.799987793 rmoveto
          56.1499938965 356 rlineto
          75.200012207 20.1000061035 29.049987793 4 65.9000091553 0 104.699996948 0 -18.6999969482 -104.400009155 -14.6000061035 -90.75 -10 -62.5500030518 -22.0500030518 -122.399993896 -99.6499938965 0 rrcurveto
          endchar
        </CharString>
        <CharString name="b.smcp">
          36 0 87 167.25 81.5 149.25 86 hstem
          74.75 hmoveto
          265.5 hlineto
          126 0 48.4499969482 59.3999938965 16.0500030518 99.6000061035 12.1499938965 76.1999969482 -23.8499908447 46.4000091553 -37.8000030518 9.39999389648 46.4499969482 10.1999969482 28.6000061035 41.0500030518 11.4499969482 74.25 12.1999969482 75.1000061035 -31.6499938965 79.3999938965 -124 0 rrcurveto
          -259.550003052 hlineto
          15.9499969482 -484 rmoveto
          26.4499969482 167.25 rlineto
          30.6000061035 -1.69999694824 139.899993896 1.69999694824 0 0 58.25 0 8 -36.3500061035 -4.84999084473 -50.9499969482 -6.85000610352 -64.0500030518 -48.8499908447 -15.8999938965 -32.1500091553 0 rrcurveto
          -130.849990845 248.75 rmoveto
          23.4499969482 149.25 170.5 0 rlineto
          40.3000183105 0 30.1999969482 -7.75 -9.80000305176 -63.75 -8.94999694824 -55.8500061035 -17.3500061035 -21.8999938965 -57.8499908447 0 rrcurveto
          endchar
        </CharString>
        <CharString name="b.superior">
          -88 371.899993896 70.3999938965 227.200012207 68.4499969482 hstem
          113.149993896 375.899993896 rmoveto
          52.6000061035 0 28.8500061035 43.8000030518 rlineto
          18.8999938965 -15.6500091553 48.0500030518 -32.1500091553 49.8000030518 0 105.549987793 0 44.450012207 80.950012207 9.94999694824 95.4499969482 8.09999084473 76.3000030518 2.60000610352 113.349990845 -112.5 0 -33.6999969482 0 -48.1999969482 -9.69999694824 -47.5500030518 -19.25 rrcurveto
          30.5500030518 190.75 -74.4499969482 0 rlineto
          6.5 -430.850006104 rmoveto
          29.3500061035 184.5 rlineto
          47.1000061035 10.5500030518 15.049987793 5.55000305176 51.8500061035 0 43.6499938965 0 18.3500061035 -15.6499938965 -11 -100.300003052 -7.44999694824 -68.4000091553 -34.9499969482 -42.8499908447 -44.5 0 -53.3000030518 0 -20.25 13.1999969482 -33.9000091553 13.3999938965 rrcurveto
          endchar
        </CharString>
        <CharString name="backslash">
          -104 139.649993896 237.75 vstem
          139.649993896 770 rmoveto
          148 -842 89.75 0 -148 842 rlineto
          endchar
        </CharString>
        <CharString name="bar">
          -265 68.3000030518 219 vstem
          68.3000030518 -72 rmoveto
          86 0 133 842 -86 0 rlineto
          endchar
        </CharString>
        <CharString name="braceleft">
          -190 -219 84.5 428.75 77.5 375.25 86 hstem
          64.75 294.25 rmoveto
          40 3 43.1999969482 -23.6999969482 -6.69999694824 -40.8000030518 rrcurveto
          -39.25 -240.399993896 rlineto
          -17.4499969482 -105.300003052 35.1499938965 -106.050003052 147.949996948 0 rrcurveto
          13.6499938965 84.5 rlineto
          -68.0999908447 -3.39999389648 -35.0999908447 32.1499938965 16.799987793 104.100006104 rrcurveto
          38.8000030518 240.649993896 rlineto
          7.29998779297 44.25 -31.4499969482 35.5500030518 -49.4000091553 7.89999389648 51.5500030518 8.40000915527 42.3000030518 27 8.60000610352 51.8999938965 rrcurveto
          34.6000061035 221 rlineto
          13.9999847412 87.6000061035 45.4000091553 25.25 64.0999908447 -0.850006103516 rrcurveto
          13.8000030518 86 rlineto
          -135.100006104 0 -72.5 -64.0500030518 -19 -117.449996948 rrcurveto
          -37 -235.25 rlineto
          -7.69999694824 -49.0500030518 -51.9499969482 5.85000610352 -33.8500061035 -1.30000305176 rrcurveto
          endchar
        </CharString>
        <CharString name="braceright">
          -194 -219 84.5 382 77.5 422 86 hstem
          -14.3500061035 -219 rmoveto
          136.900009155 0 69.25 63.1499938965 19.5999908447 119.25 rrcurveto
          38.8999938965 239.600006104 rlineto
          7.70001220703 48.4499969482 50.75 -4.34999084473 34.8999938965 0.399993896484 rrcurveto
          12.6499938965 77.5 rlineto
          -38.9499816895 -2.10000610352 -44.25 22.200012207 6.54998779297 41.3999938965 rrcurveto
          36.8500061035 233.199996948 rlineto
          17.3000030518 104.699981689 -35 108.600006104 -146.150009155 0 rrcurveto
          -13.9499969482 -86 rlineto
          67.4999847412 3.39999389648 35.6999969482 -30.3499908447 -17.3999938965 -108 rrcurveto
          -37.1499938965 -231.199996948 rlineto
          -7.75 -46.8000030518 30.8999938965 -34.6500091553 49.5500030518 -6.69999694824 -51.6999969482 -9.59999084473 -41.450012207 -27.9000091553 -8.14999389648 -49.3499908447 rrcurveto
          -37.1000061035 -230.449996948 rlineto
          -13.3999938965 -83.6999969482 -44.25 -27.0500030518 -64.6999969482 0.850006103516 rrcurveto
          endchar
        </CharString>
        <CharString name="bracketleft">
          -186 -219 86 880 86 hstem
          73.8000030518 -35.1499938965 rmoveto
          -10.3499908447 -64.3500061035 -1.55000305176 -119.5 127.950012207 0 rrcurveto
          82.3999938965 0 13.8000030518 86 -73.25 0 rlineto
          -48.1999816895 0 -11.3500061035 14.6000061035 12.5500030518 80.3999938965 rrcurveto
          112.149993896 705.300003052 rlineto
          10.8499908447 65.1000061035 26 14.6000061035 38 0 rrcurveto
          72.5 0 13.8000030518 86 -80 0 rlineto
          -125.350006104 0 -31.5500030518 -63.5500030518 -15.1999969482 -93.75 rrcurveto
          endchar
        </CharString>
        <CharString name="bracketright">
          -186 -219 86 880 86 hstem
          -14.3500061035 -219 rmoveto
          83 hlineto
          128.200012207 0 28.8499908447 68.9499969482 13.8500061035 88.5 rrcurveto
          111.25 713.25 rlineto
          10.3500061035 68.2499847412 -2.5 113.050003052 -125.399993896 0 rrcurveto
          -80.6000061035 0 -13.9499969482 -86 72.5 0 rlineto
          48.1999816895 0 11.8000030518 -14.6000061035 -12.5500030518 -80.3999938965 rrcurveto
          -111.699996948 -705.300003052 rlineto
          -10.8500061035 -65.1000061035 -26.1500091553 -14.6000061035 -38 0 rrcurveto
          -72.5 hlineto
          endchar
        </CharString>
        <CharString name="breve">
          -257 530.300003052 48.8500061035 hstem
          58.25 49.1499938965 129.150009155 49.1499938965 vstem
          58.25 644 rmoveto
          -6 -73.1000061035 52.6499938965 -40.5999908447 55.4000091553 0 69.3000030518 0 45.8499908447 34.6499938965 10.25 79.0500030518 rrcurveto
          -49.1499938965 hlineto
          -7.09999084473 -47.5500030518 -26.75 -18.1499938965 -42.25 0.849990844727 -32.8499908447 0 -25.75 23.8000030518 5.54998779297 41.0500030518 rrcurveto
          endchar
        </CharString>
        <CharString name="brokenbar">
          -264 68.3000030518 219 vstem
          68.3000030518 -72 rmoveto
          86 0 52 328 -86 0 rlineto
          27.0000152588 173 rmoveto
          86 0 54 341 -86 0 rlineto
          endchar
        </CharString>
        <CharString name="bullet">
          -201 303.75 157.5 hstem
          132.550003052 166.149993896 vstem
          132.550003052 335.75 rmoveto
          -2.99998474121 -20 10 -12 20 0 rrcurveto
          84.5 hlineto
          20.0000152588 0 17 8 4 24 rrcurveto
          13.6499938965 90.5 rlineto
          2.99998474121 22 -7 13 -25 0 rrcurveto
          -84.5 hlineto
          -22.0000152588 0 -14 -14 -3 -21 rrcurveto
          endchar
        </CharString>
        <CharString name="bullet.smcp">
          -201 246.300003052 157.5 hstem
          123.550003052 166.149993896 vstem
          123.550003052 278.300003052 rmoveto
          -2.99998474121 -19.9999847412 10 -12 20 0 rrcurveto
          84.5 hlineto
          20.0000152588 1.52587890625e-05 17 8 4 24 rrcurveto
          13.6499938965 90.5 rlineto
          2.99998474121 22.0000152588 -7 13 -25 0 rrcurveto
          -84.5 hlineto
          -22.0000152588 1.52587890625e-05 -14 -14 -3 -21 rrcurveto
          endchar
        </CharString>
        <CharString name="c">
          -16 -5.85000610352 83.6499938965 376.150009155 84.5 hstem
          86.1499938965 270.5 rmoveto
          -34.6999969482 -202.050003052 72.8000030518 -73.3000030518 101.550003052 -1 90.3499908447 -1.14999389648 62.6000061035 6.14999389648 83.1999969482 24.5 rrcurveto
          10.3500061035 64.6999969482 rlineto
          1.52587890625e-05 0 -133.150009155 -10.5500030518 -92 0 -66.049987793 0 -29.75 39.5500030518 25.799987793 144.949996948 33.75 184.399993896 35.6000061035 7.25 60.3500061035 0 rrcurveto
          89 126.149993896 -7.69999694824 0 hvcurveto
          9.5 63 rlineto
          -69.5 15.6999969482 -106 13.5 -52 0 -95.1999969482 0 -80.3000030518 -21.6999969482 -42.3500061035 -246.25 rrcurveto
          endchar
        </CharString>
        <CharString name="c.smcp">
          8 -4 84.5 413 84.5 hstem
          98.4004058838 314.800003052 rmoveto
          -22.900390625 -143.699981689 -0.650405883789 -175.100006104 185.05039978 0 82.8500061035 0 84.6000061035 13.4501953125 62.6999969482 14.8993988037 rrcurveto
          10.6499938965 67.5 rlineto
          -1.52587890625e-05 -1.52587890625e-05 -143.649993896 -9.64939880371 -74.6500091553 -1.7001953125 -115 2 5.75 104.149993896 17.25 108.350006104 19.25 123.5 35.6000061035 75 102 0 65 0 135.699996948 -8.5 15 -3 rrcurveto
          10.6499938965 69.5 rlineto
          -52 15 -117.850006104 11.5 -51.8500061035 0 -172.099990845 0 -57.5 -112.350006104 -23.899597168 -150.849990845 rrcurveto
          endchar
        </CharString>
        <CharString name="c.superior">
          -144 371.199996948 68.8999938965 225.600006104 68.8999938965 hstem
          126.949996948 555.899993896 rmoveto
          -22.0000152588 -132.899993896 52.9499969482 -51.6499938965 79.3500061035 -0.150009155273 66.6499938965 -0.149993896484 34.950012207 5 62.1999969482 18.1999969482 rrcurveto
          8.89999389648 52.3999938965 rlineto
          -1.52587890625e-05 0 -84.8000030518 -6.54998779297 -67.799987793 0 -53.1000061035 0 -18.1000061035 18.1499938965 14.5500030518 92.8000030518 18.1000061035 112.800003052 29.3000030518 1.84999084473 45 0 rrcurveto
          65.799987793 79.8000030518 -4.84999084473 0 hvcurveto
          8.05000305176 51.8500061035 rlineto
          -51.6000061035 11.9499816895 -70.6999969482 9.95001220703 -38.6999969482 0 -75.3999938965 0 -57.1500091553 -16.0500030518 -26.25 -162.650009155 rrcurveto
          endchar
        </CharString>
        <CharString name="c_h">
          556 -7 84.5 -56.5 -21 21 -21 453.199996948 84.5 246 -20 hstemhm
          hintmask 10011000
          78.4499969482 270.5 rmoveto
          -37.0000152588 -233 86 -44.5 99 0 161.699996948 5.94999694824 272 -60.3499908447 42.75 272.349990845 rrcurveto
          30.0500030518 190.550003052 rlineto
          58.4999847412 29.5500030518 46.4000091553 24.4499969482 81.1999969482 0 43.25 0 33.8000030518 -27 -9.55000305176 -62.3999938965 rrcurveto
          hintmask 01011000
          -58.25 -366.100006104 92 0 58.1000061035 365.5 rlineto
          14.6000061035 91.6000061035 -38.5500030518 82.8999938965 -110.800003052 0 -82.6999969482 0 -62.6999969482 -38.8000030518 -54.9499969482 -30.6999969482 rrcurveto
          49.6999969482 313.199996948 -91.8500061035 0 -89.8000030518 -569.899993896 rlineto
          hintmask 10011000
          -24.8000030518 -154.349990845 -155.600006104 18.0500030518 -189 0 -72 0 -22.75 37.1999969482 23.1000061035 147.300003052 28.6499938965 180.449996948 39.8500061035 10.75 61.1999969482 0 rrcurveto
          89 125.300003052 -7.69999694824 0 hvcurveto
          10.3500061035 63 rlineto
          -72.1999969482 17.1999969482 -104 12 -52 0 rrcurveto
          -102 0 -79.5999908447 -38.8000030518 -36.4000091553 -228.399993896 rrcurveto
          endchar
        </CharString>
        <CharString name="c_k">
          440 -5.94999694824 83.75 375.399993896 84.5 244.300003052 -20 hstem
          915.600006104 101 vstem
          78.6000061035 270.5 rmoveto
          -36.4000091553 -229.25 133 -47.1999969482 119.400009155 0 82.3999938965 0 90.8500061035 41.8999938965 83.5 48.5 rrcurveto
          -13.6499938965 -84.4499969482 92 0 22.3999938965 143.800003052 rlineto
          4.04998779297 2.10000610352 66.8000030518 46.450012207 3.90000915527 2.39999389648 rrcurveto
          149.75 -194.75 108 0 -185.5 254.899993896 rlineto
          71.549987793 51.6500091553 113.550003052 125.399993896 32.4000091553 99.0500030518 rrcurveto
          -101 hlineto
          -13.3500061035 -68.75 -112.600006104 -117.649993896 -118.449996948 -82.1500091553 rrcurveto
          82.5 519.550003052 -92 0 -93 -587.850006104 rlineto
          -109.350006104 -69 -108.900009155 -49.8999938965 -59.6999969482 2.55000305176 -87.4499969482 4.25 -56.8000030518 31.8999938965 23.25 148.350006104 28.6499938965 180.149993896 39.700012207 10.75 61.1999969482 0 rrcurveto
          89 126.149993896 -7.69999694824 0 hvcurveto
          9.5 63 rlineto
          -69.5000152588 15.6999969482 -105.849990845 13.5 -52 0 -102 0 -79.6000061035 -38.8000030518 -36.3999938965 -228.399993896 rrcurveto
          endchar
        </CharString>
        <CharString name="c_t">
          345 -6.14999389648 83.6499938965 -76.9499969482 64.5500030518 382.049987793 84.6999969482 hstemhm
          728.149993896 72.5 hintmask 10110000
          77.4499969482 269.75 rmoveto
          -35.3000183105 -205.800003052 73.4000091553 -69.25 102 -0.849990844727 90.0500030518 -0.850006103516 61.6999969482 6.14999389648 84.5500030518 24.200012207 rrcurveto
          10.3500061035 64.6999969482 rlineto
          -1.52587890625e-05 1.52587890625e-05 -133.149993896 -10.5500030518 -92 0 -66.0500030518 0 -30.5 37.8999938965 25.9499969482 145.850006104 34.1999969482 187.699996948 38.1500091553 -1.94999694824 59.1499938965 0 rrcurveto
          371.5 0.149993896484 -40.6499938965 -257.300003052 rlineto
          hintmask 01110000
          -21.9999847412 -140.150009155 36.1499938965 -49.1499938965 92.75 0 rrcurveto
          84.3000030518 0 10.3500061035 64.5500030518 rlineto
          -1.90000915527 -68.75 18.4499969482 0 hvcurveto
          -40.3999938965 10.3000030518 -12.8500061035 7.19999694824 15.25 94.8000030518 rrcurveto
          39.75 251.300003052 145.100006104 0 13.3500061035 84.6999969482 -145.100006104 0 23.8500061035 148 -72.5 0 -43.3500061035 -147.149993896 -387.850006104 -2.25 rlineto
          -95.200012207 -1.52587890625e-05 -81.3500061035 -10.8499908447 -42.9499969482 -249.850006104 rrcurveto
          endchar
        </CharString>
        <CharString name="cacute">
          -16 -5.85000610352 83.6499938965 376.150009155 84.5 59.6999969482 134.5 hstem
          314.050003052 226.300003052 vstem
          314.049804688 598.150390625 rmoveto
          -49 callsubr
          -350 -462.150390625 rmoveto
          -34.69921875 -202.049804688 72.7998046875 -73.2998046875 101.549804688 -1 90.349609375 -1.150390625 62.6005859375 6.150390625 83.2001953125 24.5 rrcurveto
          10.349609375 64.69921875 rlineto
          0 -133.150390625 -10.5498046875 -92 vhcurveto
          -66.0498046875 0 -29.75 39.5498046875 25.7998046875 144.950195312 33.75 184.400390625 35.6005859375 7.25 60.349609375 0 rrcurveto
          89 126.150390625 -7.7001953125 0 hvcurveto
          9.5 63 rlineto
          -69.5 15.7001953125 -106 13.5 -52 0 -95.2001953125 0 -80.2998046875 -21.7001953125 -42.3505859375 -246.25 rrcurveto
          endchar
        </CharString>
        <CharString name="cacute.smcp">
          8 -4 84.5 413 84.5 65 134.5 hstem
          324.042007446 226.300003052 vstem
          324.041992188 643 rmoveto
          -49 callsubr
          -349.44140625 -462.700195312 rmoveto
          82 callsubr
          endchar
        </CharString>
</ttFont>
